<?xml version="1.0" standalone="no"?>
<!DOCTYPE svg PUBLIC "-//W3C//DTD SVG 1.1//EN" "http://www.w3.org/Graphics/SVG/1.1/DTD/svg11.dtd" >
<svg>
<metadata>
Created by FontForge 20120731 at Mon Aug  8 14:21:03 2016
 By Apache
Copyright (URW)++,Copyright 2014 by (URW)++ Design &#38; Development
</metadata>
<defs>
<font id="NimbusSanL-Reg" horiz-adv-x="556" >
  <font-face 
    font-family="Nimbus Sans L"
    font-weight="400"
    font-stretch="normal"
    units-per-em="1000"
    panose-1="0 0 5 0 0 0 0 0 0 0"
    ascent="729"
    descent="-271"
    x-height="524"
    cap-height="729"
    bbox="-151 -299 1032 1075"
    underline-thickness="50"
    underline-position="-101"
    stemh="83"
    stemv="93"
    unicode-range="U+0020-FB04"
  />
<missing-glyph horiz-adv-x="278" 
 />
    <glyph glyph-name="fi" unicode="fi" horiz-adv-x="500" 
d="M252 524v-68h-87v-456h-83v456h-70v68h70v89c0 75 46 119 123 119c17 0 28 -1 47 -5v-69c-19 1 -22 1 -29 1c-39 0 -58 -18 -58 -53v-82h87zM436 524v-524h-83v524h83zM436 729v-105h-83v105h83z" />
    <glyph glyph-name="fl" unicode="fl" horiz-adv-x="500" 
d="M257 524v-68h-87v-456h-83v456h-70v68h70v89c0 75 46 119 123 119c17 0 28 -1 47 -5v-69c-19 1 -22 1 -29 1c-39 0 -58 -18 -58 -53v-82h87zM430 729v-729h-83v729h83z" />
    <glyph glyph-name="ff" unicode="ff" 
d="M260 524v-68h-87v-456h-83v456h-70v68h70v89c0 75 46 119 123 119c17 0 28 -1 47 -5v-69c-19 1 -22 1 -29 1c-39 0 -58 -18 -58 -53v-82h87zM529 524v-68h-87v-456h-83v456h-70v68h70v89c0 75 46 119 123 119c17 0 28 -1 47 -5v-69c-19 1 -22 1 -29 1
c-39 0 -58 -18 -58 -53v-82h87z" />
    <glyph glyph-name="ffi" unicode="ffi" horiz-adv-x="778" 
d="M258 524v-68h-87v-456h-83v456h-70v68h70v89c0 75 46 119 123 119c17 0 28 -1 47 -5v-69c-19 1 -22 1 -29 1c-39 0 -58 -18 -58 -53v-82h87zM536 524v-68h-87v-456h-83v456h-70v68h70v89c0 75 46 119 123 119c17 0 28 -1 47 -5v-69c-19 1 -22 1 -29 1
c-39 0 -58 -18 -58 -53v-82h87zM706 524v-524h-83v524h83zM706 729v-105h-84v105h84z" />
    <glyph glyph-name=".notdef" horiz-adv-x="278" 
 />
    <glyph glyph-name="space" unicode=" " horiz-adv-x="278" 
 />
    <glyph glyph-name="exclam" unicode="!" horiz-adv-x="278" 
d="M208 729v-338l-22 -223h-39l-22 223v338h83zM208 104v-104h-84v104h84z" />
    <glyph glyph-name="quotedbl" unicode="&#x22;" horiz-adv-x="355" 
d="M52 709h93v-111l-27 -134h-39l-27 134v111zM212 709h93v-111l-27 -134h-39l-27 134v111z" />
    <glyph glyph-name="numbersign" unicode="#" 
d="M485 697l-36 -196h93v-68h-106l-31 -174h105v-68h-117l-39 -211h-76l38 211h-124l-39 -211h-76l38 211h-101v68h114l31 174h-108v68h121l36 196h76l-36 -196h125l35 196h77zM360 433h-124l-32 -174h125z" />
    <glyph glyph-name="dollar" unicode="$" 
d="M250 770h59v-54c121 -9 194 -83 194 -197h-79c-1 73 -48 124 -115 127v-249c92 -28 105 -33 131 -48c58 -33 85 -83 85 -154c0 -79 -34 -147 -92 -183c-33 -20 -70 -31 -124 -35v-103h-59v103c-141 9 -217 92 -210 231h79c6 -65 10 -82 25 -105c23 -31 61 -51 106 -57
v272c-72 22 -100 33 -127 52c-46 34 -70 83 -70 146c0 114 69 184 197 200v54zM250 405v240c-74 -10 -116 -53 -116 -119c0 -61 37 -100 116 -121zM309 309v-263c43 5 68 14 92 37c27 26 42 61 42 100c0 66 -32 96 -134 126z" />
    <glyph glyph-name="percent" unicode="%" horiz-adv-x="889" 
d="M199 685c96 0 171 -76 171 -173c0 -92 -77 -169 -170 -169c-95 0 -171 77 -171 171s76 171 170 171zM199 615c-56 0 -101 -45 -101 -101s46 -101 102 -101c55 0 101 45 101 100c0 57 -45 102 -102 102zM609 709h66l-395 -729h-66zM688 322c96 0 171 -76 171 -172
c0 -93 -77 -169 -170 -169c-95 0 -171 76 -171 171c0 94 76 170 170 170zM688 252c-56 0 -101 -45 -101 -100c0 -56 45 -101 102 -101c55 0 101 45 101 99c0 57 -45 102 -102 102z" />
    <glyph glyph-name="ampersand" unicode="&#x26;" horiz-adv-x="667" 
d="M493 334h80c0 -60 -21 -126 -58 -183l122 -151h-109l-62 78c-39 -38 -56 -52 -77 -66c-36 -23 -82 -35 -132 -35c-123 0 -205 79 -205 199c0 92 37 141 162 213c-63 79 -81 116 -81 163c0 88 75 157 171 157c95 0 163 -65 163 -157c0 -72 -34 -115 -138 -174l133 -163
c20 35 32 83 31 119zM285 431c76 47 103 79 103 123c0 49 -37 85 -87 85c-52 0 -86 -34 -86 -86c0 -36 9 -52 70 -122zM418 137l-160 200c-91 -58 -122 -98 -122 -154c0 -71 59 -128 131 -128c52 0 95 23 151 82z" />
    <glyph glyph-name="quoteright" unicode="&#x2019;" horiz-adv-x="222" 
d="M65 729h93v-101c0 -80 -33 -127 -93 -131v38c35 5 49 32 48 90h-48v104z" />
    <glyph glyph-name="parenleft" unicode="(" horiz-adv-x="333" 
d="M236 729h55c-88 -142 -137 -311 -137 -470c0 -160 49 -328 137 -471h-55c-100 131 -163 313 -163 471c0 157 63 339 163 470z" />
    <glyph glyph-name="parenright" unicode=")" horiz-adv-x="333" 
d="M93 -212h-55c88 142 137 311 137 470c0 160 -49 328 -137 471h55c100 -131 163 -313 163 -471c0 -157 -63 -339 -163 -470z" />
    <glyph glyph-name="asterisk" unicode="*" horiz-adv-x="389" 
d="M160 729h63l-5 -112l106 38l19 -59l-108 -30l70 -89l-51 -36l-62 93l-63 -93l-50 36l69 89l-108 30l19 59l106 -38z" />
    <glyph glyph-name="plus" unicode="+" horiz-adv-x="584" 
d="M534 267v-70h-207v-207h-70v207h-207v70h207v207h70v-207h207z" />
    <glyph glyph-name="comma" unicode="," horiz-adv-x="278" 
d="M87 104h105v-120c0 -85 -39 -133 -105 -131v38c47 2 60 22 60 91v18h-60v104z" />
    <glyph glyph-name="hyphen" unicode="-" horiz-adv-x="333" 
d="M284 312v-72h-238v72h238z" />
    <glyph glyph-name="period" unicode="." horiz-adv-x="278" 
d="M191 104v-104h-104v104h104z" />
    <glyph glyph-name="slash" unicode="/" horiz-adv-x="278" 
d="M229 729h55l-237 -749h-55z" />
    <glyph glyph-name="zero" unicode="0" 
d="M275 709c67 0 126 -28 163 -78c47 -64 69 -156 69 -294c0 -233 -82 -360 -232 -360c-152 0 -232 126 -232 366c0 131 23 226 69 288c37 49 97 78 163 78zM275 631c-95 0 -142 -95 -142 -289s47 -292 140 -292c98 0 144 94 144 295c0 191 -47 286 -142 286z" />
    <glyph glyph-name="one" unicode="1" 
d="M259 505h-157v63c136 17 156 32 187 141h58v-709h-88v505z" />
    <glyph glyph-name="two" unicode="2" 
d="M506 87v-87h-472c8 156 51 223 199 307l92 52c63 36 96 84 96 140c0 76 -60 133 -140 133c-53 0 -99 -26 -122 -69c-12 -23 -18 -52 -21 -100h-88c2 72 13 116 38 154c39 61 106 92 196 92c68 0 119 -18 161 -55c42 -39 66 -94 66 -153c0 -87 -51 -160 -150 -214
l-100 -54c-87 -51 -119 -88 -128 -146h373z" />
    <glyph glyph-name="three" unicode="3" 
d="M221 325v75c62 1 93 5 117 15c39 16 57 46 57 96c0 76 -47 121 -125 121c-55 0 -99 -24 -119 -63c-11 -22 -15 -46 -16 -89h-88c3 151 79 229 222 229c135 0 216 -73 216 -195c0 -71 -33 -120 -99 -147c85 -29 120 -79 120 -169c0 -134 -94 -221 -240 -221
c-97 0 -167 35 -203 103c-17 32 -27 69 -31 126h88c6 -103 53 -151 149 -151c92 0 147 53 147 142c0 85 -50 129 -147 129l-37 -1h-11z" />
    <glyph glyph-name="four" unicode="4" 
d="M327 170h-299v93l322 446h65v-460h105v-79h-105v-170h-88v170zM327 249v310l-222 -310h222z" />
    <glyph glyph-name="five" unicode="5" 
d="M476 709v-87h-295l-28 -198c41 30 81 43 131 43c136 0 229 -96 229 -236c0 -150 -100 -254 -243 -254c-80 0 -152 31 -192 85c-21 26 -31 54 -43 112h88c21 -80 68 -119 145 -119c96 0 155 62 155 164c0 105 -59 170 -154 170c-56 0 -90 -17 -131 -66h-81l53 386h366z
" />
    <glyph glyph-name="six" unicode="6" 
d="M498 524h-88c-14 68 -57 107 -119 107c-101 0 -157 -96 -158 -269c38 52 93 79 163 79c127 0 217 -93 217 -225c0 -139 -97 -239 -232 -239c-78 0 -140 31 -178 88c-42 63 -60 138 -60 258c0 129 20 216 64 285c42 64 112 101 190 101c108 0 184 -69 201 -185zM285 363
c-87 0 -147 -61 -147 -149c0 -91 62 -159 144 -159c81 0 141 65 141 154c0 95 -53 154 -138 154z" />
    <glyph glyph-name="seven" unicode="7" 
d="M520 709v-74c-160 -213 -249 -408 -288 -635h-94c53 233 122 381 291 622h-383v87h474z" />
    <glyph glyph-name="eight" unicode="8" 
d="M391 373c82 -39 122 -98 122 -177c0 -129 -98 -219 -238 -219c-141 0 -238 90 -238 220c0 78 40 137 121 176c-73 45 -96 81 -96 147c0 111 88 189 213 189c126 0 213 -77 213 -189c0 -67 -24 -102 -97 -147zM275 631c-75 0 -123 -44 -123 -112c0 -67 48 -111 123 -111
c74 0 123 44 123 110c0 69 -48 113 -123 113zM275 334c-89 0 -148 -56 -148 -139s60 -140 146 -140c91 0 150 55 150 140c0 83 -60 139 -148 139z" />
    <glyph glyph-name="nine" unicode="9" 
d="M53 162h88c14 -68 57 -107 119 -107c101 0 157 96 158 269c-46 -55 -95 -79 -162 -79c-128 0 -218 93 -218 225c0 139 97 239 232 239c78 0 140 -31 179 -88c42 -63 60 -139 60 -258c0 -129 -20 -216 -64 -285c-42 -64 -112 -101 -191 -101c-108 0 -184 69 -201 185z
M269 632c-82 0 -141 -65 -141 -155c0 -95 53 -154 138 -154c87 0 147 61 147 149c0 92 -62 160 -144 160z" />
    <glyph glyph-name="colon" unicode=":" horiz-adv-x="278" 
d="M214 104v-104h-104v104h104zM214 524v-104h-104v104h104z" />
    <glyph glyph-name="semicolon" unicode=";" horiz-adv-x="278" 
d="M215 524v-104h-104v104h104zM110 104h105v-120c0 -85 -39 -133 -105 -131v38c47 2 60 22 60 91v18h-60v104z" />
    <glyph glyph-name="less" unicode="&#x3c;" horiz-adv-x="584" 
d="M45 198v69l489 207v-79l-394 -161l394 -164v-79z" />
    <glyph glyph-name="equal" unicode="=" horiz-adv-x="584" 
d="M534 353v-70h-484v70h484zM534 181v-70h-484v70h484z" />
    <glyph glyph-name="greater" unicode="&#x3e;" horiz-adv-x="584" 
d="M539 267v-69l-489 -207v79l394 161l-394 164v79z" />
    <glyph glyph-name="question" unicode="?" 
d="M330 199h-90v55c0 59 19 88 104 163c53 47 75 86 75 132c0 68 -51 114 -128 114c-90 0 -129 -48 -129 -156h-85c0 155 74 234 219 234c130 0 213 -75 213 -192c0 -67 -25 -111 -100 -179c-64 -57 -78 -79 -79 -124v-47zM330 104v-104h-90v104h90z" />
    <glyph glyph-name="at" unicode="@" horiz-adv-x="1015" 
d="M665 501h83l-90 -280c-8 -23 -12 -41 -12 -50c0 -24 23 -44 50 -44c85 0 168 113 168 229c0 168 -160 308 -352 308c-211 0 -393 -181 -393 -391c0 -191 163 -338 374 -338c56 0 111 9 194 32l28 -67c-73 -27 -152 -42 -226 -42c-253 0 -455 178 -455 400
c0 131 60 265 158 354c88 80 214 129 333 129c233 0 426 -168 426 -372c0 -79 -31 -159 -86 -223c-51 -60 -111 -89 -186 -89c-64 0 -101 26 -110 77c-46 -50 -89 -72 -142 -72c-93 0 -163 79 -163 183c0 145 123 277 257 277c55 0 97 -29 122 -87zM515 458
c-84 0 -161 -102 -161 -214c0 -66 44 -118 99 -118c37 0 74 24 102 65c25 37 52 121 54 171c3 55 -38 96 -94 96z" />
    <glyph glyph-name="A" unicode="A" horiz-adv-x="667" 
d="M474 219h-281l-77 -219h-99l260 729h120l256 -729h-104zM448 297l-112 332l-120 -332h232z" />
    <glyph glyph-name="B" unicode="B" horiz-adv-x="667" 
d="M79 0v729h296c70 0 119 -16 158 -51c38 -34 58 -80 58 -134c0 -75 -34 -128 -101 -159c93 -36 133 -89 133 -177c0 -57 -20 -109 -56 -147c-39 -42 -90 -61 -159 -61h-329zM172 415h180c52 0 81 7 106 26c26 20 40 50 40 90s-14 70 -40 90c-25 19 -54 26 -106 26h-180
v-232zM172 82h227c82 0 131 47 131 125c0 79 -49 126 -131 126h-227v-251z" />
    <glyph glyph-name="C" unicode="C" horiz-adv-x="722" 
d="M662 503h-95c-11 55 -26 85 -53 110c-30 29 -85 46 -144 46c-142 0 -229 -115 -229 -302c0 -182 92 -298 237 -298c78 0 140 34 170 94c15 29 25 63 33 113h96c-22 -193 -122 -289 -300 -289c-95 0 -167 27 -224 85c-68 71 -105 174 -105 294c0 118 36 222 102 294
c54 60 133 91 231 91c160 0 252 -78 281 -238z" />
    <glyph glyph-name="D" unicode="D" horiz-adv-x="722" 
d="M89 0v729h281c185 0 297 -138 297 -364c0 -227 -113 -365 -297 -365h-281zM182 82h172c144 0 220 97 220 282c0 186 -76 283 -220 283h-172v-565z" />
    <glyph glyph-name="E" unicode="E" horiz-adv-x="667" 
d="M183 332v-250h430v-82h-523v729h505v-82h-412v-233h397v-82h-397z" />
    <glyph glyph-name="F" unicode="F" horiz-adv-x="611" 
d="M183 332v-332h-93v729h489v-82h-396v-233h348v-82h-348z" />
    <glyph glyph-name="G" unicode="G" horiz-adv-x="778" 
d="M709 385v-389h-59l-23 97c-72 -79 -150 -116 -249 -116c-197 0 -334 156 -334 380c0 131 47 244 132 314c57 47 129 70 218 70c167 0 279 -85 305 -233h-95c-20 94 -100 151 -211 151c-154 0 -256 -118 -256 -297c0 -90 29 -177 77 -229c43 -47 110 -74 184 -74
c133 0 229 94 229 224v20h-222v82h304z" />
    <glyph glyph-name="H" unicode="H" horiz-adv-x="722" 
d="M551 332h-375v-332h-93v729h93v-315h375v315h93v-729h-93v332z" />
    <glyph glyph-name="I" unicode="I" horiz-adv-x="278" 
d="M194 729v-729h-94v729h94z" />
    <glyph glyph-name="J" unicode="J" horiz-adv-x="500" 
d="M333 729h93v-547c0 -126 -79 -205 -206 -205c-125 0 -203 75 -203 193v64h95v-47c0 -85 39 -132 109 -132c37 0 71 17 89 45c17 25 23 58 23 116v513z" />
    <glyph glyph-name="K" unicode="K" horiz-adv-x="667" 
d="M172 255v-255h-93v729h93v-369l363 369h120l-297 -297l300 -432h-110l-257 374z" />
    <glyph glyph-name="L" unicode="L" 
d="M173 729v-647h360v-82h-453v729h93z" />
    <glyph glyph-name="M" unicode="M" horiz-adv-x="833" 
d="M468 0h-98l-207 611v-611h-88v729h129l216 -635l212 635h129v-729h-88v611z" />
    <glyph glyph-name="N" unicode="N" horiz-adv-x="722" 
d="M646 729v-729h-105l-377 591v-591h-88v729h101l381 -596v596h88z" />
    <glyph glyph-name="O" unicode="O" horiz-adv-x="778" 
d="M389 741c214 0 353 -153 353 -388c0 -119 -47 -232 -126 -299c-59 -50 -137 -77 -226 -77c-211 0 -352 153 -352 382c0 228 142 382 351 382zM389 659c-155 0 -258 -120 -258 -300s103 -300 259 -300c154 0 259 120 259 296c0 185 -102 304 -260 304z" />
    <glyph glyph-name="P" unicode="P" horiz-adv-x="667" 
d="M184 309v-309h-93v729h301c144 0 225 -77 225 -214c0 -67 -19 -114 -63 -154c-39 -35 -84 -52 -141 -52h-229zM184 391h194c89 0 142 48 142 128s-53 128 -142 128h-194v-256z" />
    <glyph glyph-name="Q" unicode="Q" horiz-adv-x="778" 
d="M733 -1l-47 -58l-105 87c-59 -35 -118 -51 -191 -51c-211 0 -352 154 -352 382c0 229 141 382 352 382c210 0 352 -153 352 -380c0 -116 -34 -209 -103 -285zM481 205l89 -73c54 61 79 133 79 228c0 179 -104 299 -259 299c-156 0 -259 -120 -259 -300s103 -300 258 -300
c44 0 77 7 120 28l-74 62z" />
    <glyph glyph-name="R" unicode="R" horiz-adv-x="722" 
d="M186 314v-314h-93v729h336c144 0 222 -69 222 -195c0 -84 -33 -133 -115 -174c79 -34 98 -70 99 -190c2 -97 9 -123 44 -147v-23h-113c-13 30 -21 74 -21 119l1 65c0 90 -37 130 -120 130h-240zM186 396h225c99 0 143 39 143 126c0 43 -13 76 -38 97
c-23 20 -53 28 -105 28h-225v-251z" />
    <glyph glyph-name="S" unicode="S" horiz-adv-x="667" 
d="M596 515h-88c-1 96 -66 148 -182 148c-98 0 -163 -49 -163 -123c0 -56 32 -84 120 -108l183 -49c99 -27 155 -93 155 -183c0 -63 -31 -128 -80 -167c-47 -36 -118 -56 -205 -56c-111 0 -195 35 -245 104c-29 40 -42 84 -43 151h88c-1 -45 11 -80 38 -112
c35 -42 88 -61 168 -61c59 0 105 10 134 31c31 22 52 62 52 101c0 57 -41 94 -134 118l-181 48c-96 25 -143 81 -143 170c0 132 99 214 259 214c123 0 208 -44 248 -128c16 -34 19 -48 19 -98z" />
    <glyph glyph-name="T" unicode="T" horiz-adv-x="611" 
d="M354 647v-647h-93v647h-240v82h572v-82h-239z" />
    <glyph glyph-name="U" unicode="U" horiz-adv-x="722" 
d="M552 729h93v-512c0 -146 -110 -240 -281 -240c-173 0 -279 92 -279 240v512h93v-512c0 -55 17 -92 53 -120c35 -25 79 -38 133 -38c117 0 188 60 188 158v512z" />
    <glyph glyph-name="V" unicode="V" horiz-adv-x="667" 
d="M392 0h-100l-262 729h100l214 -617l202 617h99z" />
    <glyph glyph-name="W" unicode="W" horiz-adv-x="944" 
d="M744 0h-102l-168 599l-163 -599h-102l-187 729h104l137 -592l162 592h100l166 -592l134 592h104z" />
    <glyph glyph-name="X" unicode="X" horiz-adv-x="667" 
d="M391 374l258 -374h-115l-199 304l-200 -304h-113l258 374l-242 355h113l187 -286l188 286h111z" />
    <glyph glyph-name="Y" unicode="Y" horiz-adv-x="667" 
d="M387 286v-286h-93v286l-281 443h115l214 -355l208 355h111z" />
    <glyph glyph-name="Z" unicode="Z" horiz-adv-x="611" 
d="M581 729v-84l-436 -563h438v-82h-555v82l438 565h-410v82h525z" />
    <glyph glyph-name="bracketleft" unicode="[" horiz-adv-x="278" 
d="M250 729v-72h-103v-797h103v-72h-186v941h186z" />
    <glyph glyph-name="backslash" unicode="\" horiz-adv-x="278" 
d="M47 729l237 -749h-55l-237 749h55z" />
    <glyph glyph-name="bracketright" unicode="]" horiz-adv-x="278" 
d="M23 -212v72h103v797h-103v72h186v-941h-186z" />
    <glyph glyph-name="asciicircum" unicode="^" horiz-adv-x="469" 
d="M197 709h73l155 -380h-69l-122 300l-121 -300h-69z" />
    <glyph glyph-name="underscore" unicode="_" 
d="M578 -126v-50h-600v50h600z" />
    <glyph glyph-name="quoteleft" unicode="&#x2018;" horiz-adv-x="222" 
d="M158 477h-93v101c0 79 34 126 93 131v-38c-34 -5 -49 -33 -48 -90h48v-104z" />
    <glyph glyph-name="a" unicode="a" 
d="M535 49v-63c-28 -7 -39 -9 -57 -9c-54 0 -80 23 -86 77c-59 -54 -112 -77 -178 -77c-106 0 -172 60 -172 155c0 68 31 114 92 140c32 13 50 17 168 32c68 9 86 22 87 58v22c0 50 -41 78 -117 78c-78 0 -116 -29 -123 -93h-84c2 52 12 82 36 109c36 39 97 61 174 61
c129 0 197 -50 197 -143v-308c0 -26 16 -41 45 -41c5 0 9 0 18 2zM389 165v94c-28 -13 -45 -17 -134 -29c-90 -13 -126 -41 -126 -96c0 -53 38 -84 103 -84c49 0 90 16 124 47c25 23 33 40 33 68z" />
    <glyph glyph-name="b" unicode="b" 
d="M54 729h83v-276c39 59 90 86 162 86c139 0 224 -105 224 -275c0 -174 -90 -287 -228 -287c-73 0 -126 29 -166 90v-67h-75v729zM283 461c-89 0 -146 -80 -146 -203s57 -203 146 -203c91 0 153 81 153 200c0 125 -60 206 -153 206z" />
    <glyph glyph-name="c" unicode="c" horiz-adv-x="500" 
d="M471 348h-84c-10 73 -54 114 -124 114c-91 0 -145 -78 -145 -209c0 -124 55 -199 147 -199c71 0 114 42 128 126h84c-10 -128 -89 -203 -214 -203c-142 0 -232 107 -232 276c0 174 91 286 233 286c73 0 136 -29 172 -78c20 -29 31 -62 35 -113z" />
    <glyph glyph-name="d" unicode="d" 
d="M495 729v-729h-74v69c-45 -65 -95 -92 -167 -92c-142 0 -228 109 -228 286c0 167 89 276 225 276c70 0 126 -28 161 -81v271h83zM265 461c-91 0 -152 -81 -152 -203s61 -203 153 -203c88 0 146 80 146 201c0 126 -57 205 -147 205z" />
    <glyph glyph-name="e" unicode="e" 
d="M513 234h-386c1 -52 8 -82 28 -112c28 -44 73 -68 126 -68c67 0 114 36 137 105h84c-21 -114 -104 -182 -224 -182c-148 0 -238 105 -238 278s94 284 240 284c98 0 178 -52 212 -138c15 -39 21 -87 21 -167zM129 302h294c0 94 -59 160 -144 160c-84 0 -143 -63 -150 -160
z" />
    <glyph glyph-name="f" unicode="f" horiz-adv-x="278" 
d="M258 524v-68h-87v-456h-83v456h-70v68h70v89c0 75 46 119 123 119c17 0 28 -1 47 -5v-69c-19 1 -22 1 -29 1c-39 0 -58 -18 -58 -53v-82h87z" />
    <glyph glyph-name="g" unicode="g" 
d="M404 524h77v-438c0 -123 -15 -188 -55 -237c-34 -42 -98 -67 -175 -67c-114 0 -191 61 -199 158h85c8 -60 45 -88 116 -88c104 0 143 52 143 192v27c-44 -66 -89 -94 -152 -94c-54 0 -104 25 -143 71c-45 53 -66 117 -66 205c0 168 88 286 215 286c66 0 112 -28 154 -91
v76zM258 462c-86 0 -136 -76 -136 -204c0 -129 50 -204 136 -204c87 0 138 74 138 201c0 133 -50 207 -138 207z" />
    <glyph glyph-name="h" unicode="h" 
d="M70 729h83v-277c49 64 94 87 168 87c102 0 165 -55 165 -143v-396h-83v363c0 37 -10 62 -34 80c-20 15 -46 23 -74 23c-86 0 -142 -70 -142 -177v-289h-83v729z" />
    <glyph glyph-name="i" unicode="i" horiz-adv-x="222" 
d="M150 524v-524h-83v524h83zM150 729v-105h-84v105h84z" />
    <glyph glyph-name="j" unicode="j" horiz-adv-x="222" 
d="M70 524h83v-633c0 -72 -49 -109 -143 -109c-13 0 -18 1 -28 3v71c11 -1 14 -1 20 -1c52 0 68 17 68 69v600zM153 729v-105h-83v105h83z" />
    <glyph glyph-name="k" unicode="k" horiz-adv-x="500" 
d="M141 729v-427l222 222h107l-182 -181l214 -343h-103l-177 284l-81 -80v-204h-83v729h83z" />
    <glyph glyph-name="l" unicode="l" horiz-adv-x="222" 
d="M152 729v-729h-84v729h84z" />
    <glyph glyph-name="m" unicode="m" horiz-adv-x="833" 
d="M70 524h77v-74c44 63 91 89 161 89c68 0 110 -24 141 -80c49 59 91 80 161 80c98 0 152 -52 152 -146v-393h-84v361c0 66 -36 105 -97 105c-68 0 -123 -61 -123 -137v-329h-84v361c0 67 -35 105 -97 105c-68 0 -123 -61 -123 -137v-329h-84v524z" />
    <glyph glyph-name="n" unicode="n" 
d="M70 524h77v-88c46 73 96 103 174 103c101 0 166 -56 166 -143v-396h-83v363c0 63 -42 103 -108 103c-86 0 -142 -70 -142 -177v-289h-84v524z" />
    <glyph glyph-name="o" unicode="o" 
d="M272 539c152 0 238 -103 238 -285c0 -172 -89 -277 -237 -277c-149 0 -237 104 -237 281c0 176 88 281 236 281zM273 462c-93 0 -150 -77 -150 -204s57 -204 150 -204c92 0 150 77 150 201c0 130 -56 207 -150 207z" />
    <glyph glyph-name="p" unicode="p" 
d="M54 -218v742h77v-79c39 62 96 94 167 94c139 0 225 -110 225 -286c0 -167 -88 -276 -224 -276c-68 0 -117 24 -161 78v-273h-84zM284 461c-89 0 -146 -80 -146 -203s57 -203 146 -203c91 0 152 81 152 200c0 125 -60 206 -152 206z" />
    <glyph glyph-name="q" unicode="q" 
d="M495 -218h-83v278c-39 -57 -89 -83 -162 -83c-139 0 -224 105 -224 275c0 174 90 287 228 287c69 0 128 -30 167 -85v70h74v-742zM266 461c-92 0 -153 -81 -153 -203s61 -203 153 -203c88 0 146 80 146 200c0 127 -57 206 -146 206z" />
    <glyph glyph-name="r" unicode="r" horiz-adv-x="333" 
d="M69 524h77v-95c48 78 89 110 143 110c10 0 18 -1 32 -3v-85c-115 3 -167 -53 -168 -179v-272h-84v524z" />
    <glyph glyph-name="s" unicode="s" horiz-adv-x="500" 
d="M438 378h-88c-2 55 -38 84 -105 84c-68 0 -111 -30 -111 -79c0 -37 29 -59 97 -75l80 -19c104 -25 148 -68 148 -146c0 -101 -84 -166 -216 -166c-137 0 -205 58 -209 179h88c5 -37 11 -52 24 -67c21 -22 59 -35 104 -35c73 0 122 33 122 83c0 37 -23 58 -81 72l-78 19
c-124 30 -166 69 -166 151c0 97 79 160 201 160c121 0 189 -58 190 -161z" />
    <glyph glyph-name="t" unicode="t" horiz-adv-x="278" 
d="M254 524v-68h-86v-359c0 -37 10 -47 46 -47c17 0 28 1 40 4v-70c-28 -5 -46 -7 -68 -7c-65 0 -101 29 -101 83v396h-71v68h71v144h83v-144h86z" />
    <glyph glyph-name="u" unicode="u" 
d="M482 0h-75v73c-49 -69 -98 -96 -175 -96c-102 0 -167 56 -167 143v404h83v-371c0 -63 42 -103 108 -103c87 0 143 70 143 177v297h83v-524z" />
    <glyph glyph-name="v" unicode="v" horiz-adv-x="500" 
d="M285 0h-91l-184 524h94l140 -425l148 425h94z" />
    <glyph glyph-name="w" unicode="w" horiz-adv-x="722" 
d="M554 0h-95l-106 411l-101 -411h-94l-152 524h92l107 -408l100 408h102l103 -408l104 408h94z" />
    <glyph glyph-name="x" unicode="x" horiz-adv-x="500" 
d="M292 271l181 -271h-97l-131 201l-133 -201h-95l185 267l-175 257h95l126 -190l126 190h94z" />
    <glyph glyph-name="y" unicode="y" horiz-adv-x="500" 
d="M388 524h90l-233 -634c-16 -42 -31 -64 -57 -83c-22 -16 -51 -25 -78 -25c-22 0 -39 4 -56 13v75c18 -4 30 -6 44 -6c35 0 53 14 67 51l32 83l-177 526h89l134 -408z" />
    <glyph glyph-name="z" unicode="z" horiz-adv-x="500" 
d="M443 524v-74l-311 -377h325v-73h-426v75l313 376h-292v73h391z" />
    <glyph glyph-name="braceleft" unicode="{" horiz-adv-x="334" 
d="M276 729v-65h-15c-50 -1 -63 -15 -63 -67v-181c0 -90 -24 -136 -82 -157c53 -21 81 -75 82 -158v-181c0 -52 13 -66 63 -67h15v-65h-46c-69 1 -111 51 -109 132v166c1 89 -20 127 -78 138v69c58 11 79 49 78 138v166c-2 81 40 131 109 132h46z" />
    <glyph glyph-name="bar" unicode="|" horiz-adv-x="260" 
d="M100 729h60v-941h-60v941z" />
    <glyph glyph-name="braceright" unicode="}" horiz-adv-x="334" 
d="M29 -212v65h16c51 1 64 15 64 67v181c1 83 29 137 82 157c-53 21 -81 75 -82 158v181c0 52 -14 66 -64 67h-16v65h47c70 -1 112 -51 110 -132v-166c-1 -89 20 -127 76 -138v-69c-56 -11 -77 -49 -76 -138v-166c2 -81 -40 -131 -110 -132h-47z" />
    <glyph glyph-name="asciitilde" unicode="~" horiz-adv-x="584" 
d="M455 411h53v-16c0 -78 -40 -127 -105 -127c-25 0 -55 10 -81 26l-98 63c-10 6 -33 14 -43 14c-19 0 -35 -13 -45 -35c-4 -10 -6 -20 -8 -43h-53c5 95 43 145 108 145c18 0 37 -5 54 -16l117 -69c20 -12 35 -17 50 -17c37 0 52 22 51 75z" />
    <glyph glyph-name="exclamdown" unicode="&#xa1;" horiz-adv-x="333" 
d="M122 -205v338l22 223h39l22 -223v-338h-83zM121 420v104h84v-104h-84z" />
    <glyph glyph-name="cent" unicode="&#xa2;" 
d="M312 462v-409c64 7 102 48 114 127h84c-7 -120 -82 -197 -198 -203v-97h-42v98c-135 12 -218 116 -218 275c0 163 83 271 218 285v90h42v-89c117 -8 186 -77 192 -191h-84c-7 67 -47 109 -108 114zM270 55v406c-86 -16 -131 -87 -131 -208c0 -113 48 -185 131 -198z" />
    <glyph glyph-name="sterling" unicode="&#xa3;" 
d="M366 376v-55h-136c10 -29 15 -52 15 -71c0 -52 -28 -98 -118 -189c39 26 79 39 122 39c27 0 43 -3 82 -15c42 -12 61 -16 79 -16c26 0 54 10 83 30l42 -66c-40 -39 -79 -56 -131 -56c-37 0 -63 6 -146 35c-21 7 -45 11 -66 11c-35 0 -70 -12 -109 -37l-48 66
c92 79 125 129 125 191c0 25 -8 52 -24 78h-110v55h81c-46 76 -53 95 -53 139c0 121 104 214 238 214c85 0 156 -37 192 -99c19 -33 27 -72 28 -133h-88c-3 103 -49 154 -136 154c-85 0 -141 -51 -141 -127c0 -28 7 -54 22 -81l21 -39c4 -6 9 -15 16 -28h160z" />
    <glyph glyph-name="fraction" unicode="&#x2044;" horiz-adv-x="278" 
d="M333 709h58l-452 -729h-58z" />
    <glyph glyph-name="yen" unicode="&#xa5;" 
d="M495 354v-51h-170v-77h170v-51h-170v-175h-88v175h-172v51h172v77h-172v51h151l-205 355h85l185 -322l179 322h85l-201 -355h151z" />
    <glyph glyph-name="florin" unicode="&#x192;" 
d="M467 462v-70h-126l-75 -397c-13 -70 -33 -117 -65 -150c-34 -35 -85 -57 -135 -57c-24 0 -42 3 -55 10l17 84c17 -11 31 -16 50 -16c52 0 82 36 97 113l78 413h-113v70h125l22 104c11 56 31 95 61 124c32 30 75 48 115 48c26 0 49 -6 79 -19l-30 -79
c-25 14 -36 18 -52 18c-47 0 -79 -44 -94 -126l-12 -70h113z" />
    <glyph glyph-name="section" unicode="&#xa7;" 
d="M464 524h-83v9v17c0 62 -38 102 -97 102c-51 0 -89 -36 -89 -85c0 -29 15 -49 57 -77l146 -94c79 -51 108 -95 108 -167c0 -77 -36 -129 -108 -156c39 -45 52 -75 52 -118c0 -97 -79 -168 -186 -168c-84 0 -149 42 -175 113c-8 22 -11 42 -11 71v15h85
c0 -39 4 -59 17 -78c20 -29 48 -44 85 -44c56 0 95 35 95 86c0 35 -17 62 -54 88l-170 117c-65 45 -92 91 -92 157c0 67 31 111 105 150c-31 35 -44 64 -44 102c0 92 81 165 184 165c105 0 175 -71 175 -177v-20v-8zM189 229l166 -123c46 25 72 62 72 103s-24 78 -73 111
l-160 109c-52 -34 -71 -61 -71 -101s13 -60 66 -99z" />
    <glyph glyph-name="currency" unicode="&#xa4;" 
d="M485 190l-58 -54l-53 53c-27 -20 -60 -30 -100 -30c-33 0 -68 9 -94 25l-51 -51l-56 57l48 49c-20 27 -32 65 -32 102c0 36 12 73 32 102l-54 55l56 53l55 -55c29 17 61 26 97 26c37 0 72 -10 98 -28l59 53l57 -58l-55 -55c16 -26 26 -60 26 -93c0 -34 -9 -66 -29 -97z
M274 445c-58 0 -106 -47 -106 -105c0 -57 48 -104 107 -104c58 0 106 47 106 103c0 59 -47 106 -107 106z" />
    <glyph glyph-name="quotesingle" unicode="'" horiz-adv-x="191" 
d="M48 709h94v-111l-27 -134h-40l-27 134v111z" />
    <glyph glyph-name="quotedblleft" unicode="&#x201c;" horiz-adv-x="333" 
d="M141 477h-93v101c0 79 34 126 93 131v-38c-34 -5 -49 -33 -48 -90h48v-104zM299 477h-93v101c0 79 34 126 93 131v-38c-34 -5 -49 -33 -48 -90h48v-104z" />
    <glyph glyph-name="guillemotleft" unicode="&#xab;" 
d="M98 227v89l152 122v-83l-106 -83l106 -83v-83zM303 227v89l152 122v-83l-106 -83l106 -83v-83z" />
    <glyph glyph-name="guilsinglleft" unicode="&#x2039;" horiz-adv-x="333" 
d="M91 227v89l152 122v-83l-106 -83l106 -83v-83z" />
    <glyph glyph-name="guilsinglright" unicode="&#x203a;" horiz-adv-x="333" 
d="M239 317v-89l-154 -122v83l108 83l-108 83v83z" />
    <glyph glyph-name="endash" unicode="&#x2013;" 
d="M561 312v-72h-566v72h566z" />
    <glyph glyph-name="dagger" unicode="&#x2020;" 
d="M513 502v-82h-194v-597h-88v597h-193v82h193v207h88v-207h194z" />
    <glyph glyph-name="daggerdbl" unicode="&#x2021;" 
d="M513 502v-82h-194v-307h194v-82h-194v-208h-88v208h-193v82h193v307h-193v82h193v207h88v-207h194z" />
    <glyph glyph-name="periodcentered" unicode="&#xb7;" horiz-adv-x="278" 
d="M211 427v-125h-124v125h124z" />
    <glyph glyph-name="paragraph" unicode="&#xb6;" horiz-adv-x="537" 
d="M522 729v-64h-57v-842h-64v842h-82v-842h-64v436c-55 3 -90 15 -125 44c-52 43 -82 112 -82 186c0 135 98 240 224 240h250z" />
    <glyph glyph-name="bullet" unicode="&#x2022;" horiz-adv-x="350" 
d="M175 470c70 0 125 -56 125 -127c0 -67 -57 -123 -125 -123c-69 0 -125 56 -125 125s56 125 125 125z" />
    <glyph glyph-name="quotesinglbase" unicode="&#x201a;" horiz-adv-x="222" 
d="M65 104h93v-101c0 -80 -34 -127 -94 -131v38c36 5 51 32 49 90h-48v104z" />
    <glyph glyph-name="quotedblbase" unicode="&#x201e;" horiz-adv-x="333" 
d="M47 104h93v-101c0 -80 -33 -127 -93 -131v38c35 5 49 32 48 90h-48v104zM207 104h93v-101c0 -80 -33 -127 -93 -131v38c35 5 49 32 48 90h-48v104z" />
    <glyph glyph-name="quotedblright" unicode="&#x201d;" horiz-adv-x="333" 
d="M49 709h93v-101c0 -80 -33 -127 -93 -131v38c35 5 49 32 48 90h-48v104zM209 709h93v-101c0 -80 -33 -127 -93 -131v38c35 5 49 32 48 90h-48v104z" />
    <glyph glyph-name="guillemotright" unicode="&#xbb;" 
d="M252 317v-89l-154 -122v83l108 83l-108 83v83zM451 317v-89l-154 -122v83l108 83l-108 83v83z" />
    <glyph glyph-name="ellipsis" unicode="&#x2026;" horiz-adv-x="1000" 
d="M219 104v-104h-104v104h104zM552 104v-104h-104v104h104zM885 104v-104h-104v104h104z" />
    <glyph glyph-name="perthousand" unicode="&#x2030;" horiz-adv-x="1000" 
d="M158 728c84 0 150 -67 150 -152c0 -82 -68 -149 -149 -149c-83 0 -150 67 -150 151c0 83 67 150 149 150zM158 668c-50 0 -90 -40 -90 -90s40 -91 91 -91c49 0 90 40 90 90c0 51 -40 91 -91 91zM492 738h66l-395 -758h-66zM483 279c84 0 150 -67 150 -152
c0 -81 -68 -149 -149 -149c-83 0 -150 67 -150 151c0 83 67 150 149 150zM483 219c-50 0 -90 -40 -90 -90s41 -91 90 -91c50 0 91 41 91 90c0 51 -40 91 -91 91zM843 279c84 0 150 -67 150 -152c0 -82 -68 -149 -149 -149c-83 0 -150 68 -150 151c0 82 67 150 149 150z
M843 219c-50 0 -90 -40 -90 -90s41 -91 91 -91c49 0 90 41 90 90c0 51 -40 91 -91 91z" />
    <glyph glyph-name="questiondown" unicode="&#xbf;" horiz-adv-x="611" 
d="M275 325h90v-55c0 -59 -19 -88 -105 -163c-53 -47 -75 -86 -75 -132c0 -68 51 -114 129 -114c90 0 129 48 129 156h85c0 -155 -74 -234 -219 -234c-131 0 -214 75 -214 192c0 67 25 111 100 179c65 57 79 79 80 124v47zM275 420v104h90v-104h-90z" />
    <glyph glyph-name="grave" unicode="`" horiz-adv-x="333" 
d="M135 740l96 -148h-60l-149 148h113z" />
    <glyph glyph-name="acute" unicode="&#xb4;" horiz-adv-x="333" 
d="M188 740h113l-149 -148h-60z" />
    <glyph glyph-name="circumflex" unicode="&#x2c6;" horiz-adv-x="333" 
d="M116 741h95l96 -150h-63l-81 96l-79 -96h-64z" />
    <glyph glyph-name="tilde" unicode="&#x2dc;" horiz-adv-x="333" 
d="M261 717h58c-10 -69 -40 -104 -89 -104c-19 0 -27 2 -85 24c-25 10 -38 13 -49 13c-15 0 -27 -13 -33 -36h-58c11 66 42 103 86 103c21 0 28 -2 70 -19c25 -10 51 -17 63 -17c18 0 29 11 37 36z" />
    <glyph glyph-name="macron" unicode="&#xaf;" horiz-adv-x="333" 
d="M302 701v-70h-274v70h274z" />
    <glyph glyph-name="breve" unicode="&#x2d8;" horiz-adv-x="333" 
d="M15 732h59c5 -44 35 -66 92 -66c54 0 87 24 91 66h59c-7 -89 -59 -135 -152 -135c-57 0 -101 20 -128 57c-14 20 -20 39 -21 78z" />
    <glyph glyph-name="dotaccent" unicode="&#x2d9;" horiz-adv-x="333" 
d="M219 716v-104h-104v104h104z" />
    <glyph glyph-name="dieresis" unicode="&#xa8;" horiz-adv-x="333" 
d="M134 715v-103h-104v103h104zM296 715v-103h-104v103h104z" />
    <glyph glyph-name="ring" unicode="&#x2da;" horiz-adv-x="333" 
d="M167 754c49 0 88 -39 88 -88c0 -48 -40 -87 -88 -87c-49 0 -88 39 -88 88c0 48 40 87 88 87zM167 710c-24 0 -44 -20 -44 -44c0 -23 20 -43 44 -43s44 20 44 43c0 25 -19 44 -44 44z" />
    <glyph glyph-name="cedilla" unicode="&#xb8;" horiz-adv-x="333" 
d="M165 0h38l-23 -56c13 2 18 2 27 2c51 0 80 -24 80 -67c0 -58 -47 -93 -123 -93c-39 0 -63 6 -125 34l21 40l9 -4c45 -23 63 -29 89 -29c31 0 54 19 54 45c0 23 -17 37 -46 37c-12 0 -19 -2 -31 -8l-12 7z" />
    <glyph glyph-name="hungarumlaut" unicode="&#x2dd;" horiz-adv-x="333" 
d="M61 740h113l-149 -150h-60zM235 740h113l-149 -150h-60z" />
    <glyph glyph-name="ogonek" unicode="&#x2db;" horiz-adv-x="333" 
d="M154 0h70c-73 -41 -94 -64 -94 -106c0 -35 25 -54 72 -54c24 0 44 3 63 10v-45c-24 -5 -57 -10 -76 -10c-22 0 -47 5 -69 13c-42 16 -63 42 -63 81c0 48 36 89 97 111z" />
    <glyph glyph-name="caron" unicode="&#x2c7;" horiz-adv-x="333" 
d="M210 591h-95l-96 150h63l81 -96l79 96h64z" />
    <glyph glyph-name="emdash" unicode="&#x2014;" horiz-adv-x="1000" 
d="M1001 312v-72h-1010v72h1010z" />
    <glyph glyph-name="AE" unicode="&#xc6;" horiz-adv-x="1000" 
d="M468 214h-269l-85 -214h-103l299 729h622v-82h-371v-233h352v-82h-352v-250h389v-82h-482v214zM468 296v351h-100l-138 -351h238z" />
    <glyph glyph-name="ordfeminine" unicode="&#xaa;" horiz-adv-x="370" 
d="M320 354v-51h-277v51h277zM333 449v-44c-13 -5 -20 -6 -32 -6c-33 0 -49 12 -55 43c-33 -29 -66 -43 -105 -43c-64 0 -104 37 -104 96c0 41 20 71 57 87c17 7 58 15 100 18c38 3 47 9 49 33v13c0 29 -23 44 -67 44c-45 0 -61 -13 -68 -56h-59c2 71 47 108 129 108
s122 -31 122 -94v-179c0 -15 8 -23 23 -23c4 0 6 1 10 3zM243 517v51c-14 -6 -26 -8 -76 -16c-52 -7 -72 -22 -72 -54c0 -30 21 -47 57 -47c49 0 91 30 91 66z" />
    <glyph glyph-name="Lslash" unicode="&#x141;" 
d="M173 406l171 121v-76l-171 -122v-247h379v-82h-472v280l-80 -57v77l80 56v373h93v-323z" />
    <glyph glyph-name="Oslash" unicode="&#xd8;" horiz-adv-x="778" 
d="M30 19l81 89c-51 70 -76 155 -76 252c0 228 142 381 352 381c91 0 168 -27 230 -81l87 95l40 -36l-89 -97c54 -68 84 -161 84 -264c0 -228 -142 -381 -352 -381c-97 0 -175 29 -241 90l-77 -84zM174 176l384 419c-48 43 -106 64 -171 64c-155 0 -259 -120 -259 -299
c0 -70 15 -131 46 -184zM593 554l-387 -421c49 -49 110 -74 181 -74c155 0 259 120 259 299c0 75 -18 142 -53 196z" />
    <glyph glyph-name="OE" unicode="&#x152;" horiz-adv-x="1000" 
d="M618 327v-245h341v-82h-434v74c-46 -65 -103 -94 -184 -94c-85 0 -159 32 -211 92c-59 68 -87 160 -87 284c0 136 34 240 102 307c50 49 124 78 197 78c82 0 140 -28 183 -88v76h429v-82h-336v-238h328v-82h-328zM525 182v357c-40 81 -99 120 -183 120
c-67 0 -120 -27 -155 -78c-36 -54 -51 -119 -51 -221s15 -166 51 -220c35 -51 88 -78 154 -78c84 0 144 39 184 120z" />
    <glyph glyph-name="ordmasculine" unicode="&#xba;" horiz-adv-x="365" 
d="M314 354v-51h-263v51h263zM182 742c92 0 142 -61 142 -174c0 -107 -52 -169 -142 -169c-91 0 -142 62 -142 171c0 110 51 172 142 172zM182 690c-52 0 -84 -45 -84 -119c0 -75 32 -120 84 -120s84 45 84 118c0 76 -31 121 -84 121z" />
    <glyph glyph-name="ae" unicode="&#xe6;" horiz-adv-x="889" 
d="M751 159h84c-22 -114 -105 -182 -223 -182c-77 0 -143 31 -178 83c-5 8 -9 15 -16 27c-75 -78 -138 -110 -216 -110c-102 0 -168 61 -168 155c0 68 31 114 92 140c33 14 84 24 168 31c70 7 86 18 87 59v22c0 51 -41 78 -118 78s-115 -29 -122 -93h-84c2 52 12 82 36 109
c35 39 97 61 172 61c85 0 144 -27 175 -82c36 52 101 82 173 82c97 0 177 -53 211 -138c15 -39 21 -87 21 -167h-386c1 -52 8 -82 28 -112c28 -44 73 -68 126 -68c67 0 114 36 138 105zM381 157v101c-28 -12 -45 -16 -134 -29c-90 -13 -126 -40 -126 -95
c0 -52 38 -84 100 -84c41 0 78 13 111 38c30 23 49 50 49 69zM461 302h294c0 95 -59 160 -144 160c-84 0 -143 -63 -150 -160z" />
    <glyph glyph-name="dotlessi" unicode="&#x131;" horiz-adv-x="278" 
d="M178 524v-524h-84v524h84z" />
    <glyph glyph-name="lslash" unicode="&#x142;" horiz-adv-x="222" 
d="M146 421l66 51v-64l-66 -51v-357h-83v313l-63 -50v64l63 50v352h83v-308z" />
    <glyph glyph-name="oslash" unicode="&#xf8;" horiz-adv-x="611" 
d="M529 511l-63 -71c30 -50 44 -106 44 -182c0 -176 -88 -281 -236 -281c-68 0 -123 21 -163 62l-61 -69l-32 28l66 74c-33 49 -48 108 -48 186c0 177 88 281 237 281c69 0 121 -20 166 -65l58 65zM405 371l-238 -269c29 -32 64 -48 106 -48c93 0 150 77 150 204
c0 44 -6 81 -18 113zM144 141l239 269c-26 33 -66 52 -110 52c-93 0 -150 -77 -150 -204c0 -47 7 -83 21 -117z" />
    <glyph glyph-name="oe" unicode="&#x153;" horiz-adv-x="944" 
d="M804 159h84c-21 -114 -104 -182 -223 -182c-85 0 -154 36 -194 103c-42 -69 -106 -103 -194 -103c-152 0 -237 102 -237 282c0 179 85 280 237 280c89 0 156 -36 196 -106c41 67 111 106 193 106c98 0 178 -52 212 -138c15 -39 21 -87 21 -167h-386c1 -52 8 -82 28 -112
c28 -44 73 -68 126 -68c67 0 114 36 137 105zM277 462c-93 0 -150 -77 -150 -203c0 -128 57 -205 150 -205s150 77 150 202c0 130 -56 206 -150 206zM515 302h294c0 95 -59 160 -144 160s-143 -63 -150 -160z" />
    <glyph glyph-name="germandbls" unicode="&#xdf;" horiz-adv-x="611" 
d="M271 349v82h10c89 0 152 46 152 111c0 64 -57 109 -138 109c-86 0 -142 -44 -142 -113v-538h-83v538c0 64 17 104 57 136c46 35 108 55 175 55c130 0 218 -74 218 -184c0 -71 -39 -116 -125 -144c52 -16 79 -29 106 -54c38 -35 54 -73 54 -129c0 -146 -96 -238 -248 -238
c-20 0 -30 1 -48 4v78h9h32c99 0 168 61 168 151c0 60 -28 104 -79 123c-25 10 -49 13 -102 13h-16z" />
    <glyph glyph-name="onesuperior" unicode="&#xb9;" horiz-adv-x="333" 
d="M151 580h-99v46l15 1c72 7 86 18 103 82h43v-425h-62v296z" />
    <glyph glyph-name="logicalnot" unicode="&#xac;" horiz-adv-x="584" 
d="M40 375h504v-289h-70v219h-434v70z" />
    <glyph glyph-name="mu" unicode="&#xb5;" 
d="M544 49v-63c-26 -7 -39 -9 -57 -9c-57 0 -84 26 -86 83c-40 -55 -95 -83 -163 -83c-36 0 -65 8 -90 26v-223h-83v744h83v-371c0 -63 42 -103 107 -103c87 0 143 70 143 177v297h83v-436c0 -27 16 -41 45 -41c4 0 8 0 18 2z" />
    <glyph glyph-name="trademark" unicode="&#x2122;" horiz-adv-x="1000" 
d="M285 674v-382h-68v382h-154v55h375v-55h-153zM748 292h-70l-121 341v-341h-67v437h94l132 -362l131 362h91v-437h-67v341z" />
    <glyph glyph-name="Eth" unicode="&#xd0;" horiz-adv-x="722" 
d="M89 339h-69v67h69v323h282c184 0 296 -138 296 -364c0 -227 -112 -365 -296 -365h-282v339zM182 339v-257h173c143 0 219 97 219 283c0 95 -17 160 -55 209c-37 48 -94 73 -164 73h-173v-241h171v-67h-171z" />
    <glyph glyph-name="onehalf" unicode="&#xbd;" horiz-adv-x="834" 
d="M124 580h-99v46l15 1c72 7 86 18 103 82h43v-425h-62v296zM583 709h58l-452 -729h-58zM805 58v-58h-304c5 97 31 136 127 187l58 31c39 21 59 48 59 79c0 43 -36 75 -85 75c-32 0 -60 -15 -74 -39c-8 -13 -11 -29 -13 -60h-62c3 103 52 152 151 152
c86 0 146 -52 146 -126c0 -53 -33 -97 -96 -129l-63 -32c-43 -23 -61 -42 -73 -80h229z" />
    <glyph glyph-name="plusminus" unicode="&#xb1;" horiz-adv-x="584" 
d="M534 416v-70h-207v-207h-70v207h-207v70h207v207h70v-207h207zM534 59v-70h-484v70h484z" />
    <glyph glyph-name="Thorn" unicode="&#xde;" horiz-adv-x="667" 
d="M184 189v-189h-93v729h93v-120h208c139 0 224 -80 224 -212c0 -122 -84 -208 -203 -208h-229zM184 271h194c87 0 138 47 138 128c0 80 -51 128 -138 128h-194v-256z" />
    <glyph glyph-name="onequarter" unicode="&#xbc;" horiz-adv-x="834" 
d="M125 580h-99v46l15 1c72 7 86 18 103 82h43v-425h-62v296zM608 709h58l-452 -729h-58zM685 100h-188v59l204 266h46v-272h67v-53h-67v-100h-62v100zM685 153v170l-129 -170h129z" />
    <glyph glyph-name="divide" unicode="&#xf7;" horiz-adv-x="584" 
d="M534 271v-70h-484v70h484zM344 104v-104h-104v104h104zM344 472v-104h-104v104h104z" />
    <glyph glyph-name="brokenbar" unicode="&#xa6;" horiz-adv-x="260" 
d="M100 729h60v-401h-60v401zM100 189h60v-401h-60v401z" />
    <glyph glyph-name="degree" unicode="&#xb0;" horiz-adv-x="400" 
d="M200 686c83 0 151 -68 151 -151c0 -85 -68 -152 -153 -152c-82 0 -150 69 -150 152s68 151 152 151zM200 629c-53 0 -95 -42 -95 -94s43 -95 93 -95c54 0 96 42 96 95c0 52 -42 94 -94 94z" />
    <glyph glyph-name="thorn" unicode="&#xfe;" 
d="M54 -218v932h83v-255c36 51 94 80 161 80c136 0 224 -112 224 -286c0 -167 -88 -276 -224 -276c-68 0 -117 24 -161 78v-273h-83zM283 461c-89 0 -146 -80 -146 -203s57 -203 146 -203c91 0 152 81 152 200c0 125 -60 206 -152 206z" />
    <glyph glyph-name="threequarters" unicode="&#xbe;" horiz-adv-x="834" 
d="M144 476v51c86 0 110 14 110 61c0 43 -28 68 -76 68c-33 0 -60 -13 -72 -35c-7 -13 -9 -26 -9 -54h-63c2 94 50 142 144 142c86 0 139 -45 139 -120c0 -39 -20 -68 -57 -85c48 -16 71 -49 71 -100c0 -81 -61 -134 -155 -134c-96 0 -151 51 -151 142h62
c3 -62 31 -89 91 -89c57 0 90 30 90 81c0 48 -30 72 -92 72h-23h-9zM636 709h58l-452 -729h-58zM683 100h-188v59l204 266h46v-272h67v-53h-67v-100h-62v100zM683 153v170l-129 -170h129z" />
    <glyph glyph-name="twosuperior" unicode="&#xb2;" horiz-adv-x="333" 
d="M314 342v-58h-304c4 97 31 136 127 187l58 31c39 21 59 48 59 79c0 43 -36 75 -85 75c-32 0 -60 -15 -74 -39c-8 -13 -11 -29 -13 -60h-62c3 103 52 152 151 152c86 0 146 -52 146 -126c0 -53 -33 -97 -96 -129l-63 -32c-43 -23 -61 -42 -73 -80h229z" />
    <glyph glyph-name="registered" unicode="&#xae;" horiz-adv-x="737" 
d="M272 325v-185h-70v445h206c95 0 141 -41 141 -126c0 -46 -12 -69 -54 -99c37 -24 44 -41 45 -112c1 -58 5 -70 23 -83v-25h-79c-9 21 -15 49 -15 77l1 40c0 48 -19 68 -64 68h-134zM272 388h129c52 0 75 20 75 67s-22 67 -75 67h-129v-134zM369 742
c211 0 382 -171 382 -381c0 -214 -170 -383 -387 -383c-205 0 -377 174 -377 382c0 211 171 382 382 382zM369 680c-173 0 -314 -143 -314 -320c0 -174 141 -320 310 -320c178 0 318 142 318 321c0 176 -141 319 -314 319z" />
    <glyph glyph-name="minus" unicode="&#x2212;" horiz-adv-x="584" 
d="M544 267v-70h-504v70h504z" />
    <glyph glyph-name="eth" unicode="&#xf0;" 
d="M219 613l-97 -45l-36 39l85 40c-26 20 -39 28 -82 52l44 44c31 -13 44 -20 111 -63l97 45l40 -37l-90 -41c72 -55 109 -93 147 -150c51 -78 72 -146 72 -238c0 -181 -85 -282 -237 -282c-151 0 -237 102 -237 281c0 117 35 200 103 244c35 23 75 35 115 35
c19 0 33 -3 63 -13c-35 35 -46 45 -98 89zM273 462c-93 0 -150 -77 -150 -204s57 -204 150 -204c92 0 150 77 150 201c0 130 -56 207 -150 207z" />
    <glyph glyph-name="multiply" unicode="&#xd7;" horiz-adv-x="584" 
d="M438 427l49 -50l-146 -146l147 -147l-50 -50l-147 147l-146 -146l-50 49l147 147l-146 146l49 49l146 -145z" />
    <glyph glyph-name="threesuperior" unicode="&#xb3;" horiz-adv-x="333" 
d="M126 476v51c86 0 110 14 110 61c0 43 -28 68 -76 68c-33 0 -60 -13 -72 -35c-7 -13 -9 -26 -9 -54h-63c2 94 50 142 144 142c86 0 139 -45 139 -120c0 -39 -20 -68 -57 -85c48 -16 71 -49 71 -100c0 -81 -61 -134 -155 -134c-96 0 -151 51 -151 142h62
c3 -62 31 -89 91 -89c57 0 90 30 90 81c0 48 -30 72 -92 72h-23h-9z" />
    <glyph glyph-name="copyright" unicode="&#xa9;" horiz-adv-x="737" 
d="M544 437h-71c-17 66 -45 93 -98 93c-76 0 -125 -67 -125 -172c0 -51 13 -95 36 -124c21 -28 57 -46 89 -46c56 0 93 43 106 124h71c-12 -60 -22 -88 -41 -116c-33 -47 -79 -70 -136 -70c-115 0 -194 94 -194 231c0 141 79 235 197 235c89 0 142 -49 166 -155zM369 742
c211 0 382 -171 382 -381c0 -214 -170 -383 -387 -383c-205 0 -377 174 -377 382c0 211 171 382 382 382zM369 680c-173 0 -314 -143 -314 -320c0 -174 141 -320 310 -320c178 0 318 142 318 321c0 176 -141 319 -314 319z" />
    <glyph glyph-name="Aacute" unicode="&#xc1;" horiz-adv-x="667" 
d="M474 219h-281l-77 -219h-99l260 729h120l256 -729h-104zM448 297l-112 332l-120 -332h232zM370 939h113l-149 -148h-60z" />
    <glyph glyph-name="Acircumflex" unicode="&#xc2;" horiz-adv-x="667" 
d="M474 219h-281l-77 -219h-99l260 729h120l256 -729h-104zM448 297l-112 332l-120 -332h232zM288 940h94l97 -150h-64l-80 96l-79 -96h-64z" />
    <glyph glyph-name="Adieresis" unicode="&#xc4;" horiz-adv-x="667" 
d="M474 219h-281l-77 -219h-99l260 729h120l256 -729h-104zM448 297l-112 332l-120 -332h232zM306 914v-103h-104v103h104zM468 914v-103h-104v103h104z" />
    <glyph glyph-name="Agrave" unicode="&#xc0;" horiz-adv-x="667" 
d="M474 219h-281l-77 -219h-99l260 729h120l256 -729h-104zM448 297l-112 332l-120 -332h232zM303 939l97 -148h-61l-148 148h112z" />
    <glyph glyph-name="Aring" unicode="&#xc5;" horiz-adv-x="667" 
d="M474 219h-281l-77 -219h-99l260 729h120l256 -729h-104zM448 297l-112 332l-120 -332h232zM335 953c49 0 88 -39 88 -88c0 -48 -40 -87 -88 -87c-49 0 -88 39 -88 88c0 48 40 87 88 87zM335 909c-24 0 -44 -20 -44 -44c0 -23 20 -43 44 -43s44 20 44 43
c0 25 -19 44 -44 44z" />
    <glyph glyph-name="Atilde" unicode="&#xc3;" horiz-adv-x="667" 
d="M474 219h-281l-77 -219h-99l260 729h120l256 -729h-104zM448 297l-112 332l-120 -332h232zM434 916h58c-10 -69 -40 -104 -89 -104c-19 0 -27 2 -85 24c-25 10 -38 13 -49 13c-15 0 -27 -13 -33 -36h-58c11 66 42 103 86 103c21 0 28 -2 70 -19c25 -10 51 -17 63 -17
c18 0 29 11 37 36z" />
    <glyph glyph-name="Ccedilla" unicode="&#xc7;" horiz-adv-x="722" 
d="M379 -23l-13 -33c13 2 18 2 27 2c51 0 80 -24 80 -67c0 -57 -47 -93 -123 -93c-39 0 -63 6 -125 34l21 40l9 -4c46 -24 63 -29 89 -29c31 0 54 19 54 45c0 23 -17 37 -46 37c-12 0 -19 -2 -31 -8l-11 7l31 69c-76 11 -106 22 -149 52c-91 64 -144 185 -144 327
c0 118 36 222 102 294c54 60 133 91 231 91c160 0 252 -78 281 -238h-95c-11 55 -26 85 -53 110c-30 29 -85 46 -143 46c-142 0 -230 -115 -230 -302c0 -183 92 -299 237 -299c78 0 140 34 170 94c15 30 25 64 33 114h96c-22 -191 -122 -289 -298 -289z" />
    <glyph glyph-name="Eacute" unicode="&#xc9;" horiz-adv-x="667" 
d="M183 332v-250h430v-82h-523v729h505v-82h-412v-233h397v-82h-397zM367 939h112l-149 -148h-60z" />
    <glyph glyph-name="Ecircumflex" unicode="&#xca;" horiz-adv-x="667" 
d="M183 332v-250h430v-82h-523v729h505v-82h-412v-233h397v-82h-397zM297 940h95l96 -150h-63l-80 96l-79 -96h-65z" />
    <glyph glyph-name="Edieresis" unicode="&#xcb;" horiz-adv-x="667" 
d="M183 332v-250h430v-82h-523v729h505v-82h-412v-233h397v-82h-397zM315 914v-103h-104v103h104zM477 914v-103h-104v103h104z" />
    <glyph glyph-name="Egrave" unicode="&#xc8;" horiz-adv-x="667" 
d="M183 332v-250h430v-82h-523v729h505v-82h-412v-233h397v-82h-397zM320 939l96 -148h-60l-149 148h113z" />
    <glyph glyph-name="Iacute" unicode="&#xcd;" horiz-adv-x="278" 
d="M193 729v-729h-93v729h93zM167 939h113l-149 -148h-60z" />
    <glyph glyph-name="Icircumflex" unicode="&#xce;" horiz-adv-x="278" 
d="M193 729v-729h-93v729h93zM95 940h95l96 -150h-63l-81 96l-79 -96h-64z" />
    <glyph glyph-name="Idieresis" unicode="&#xcf;" horiz-adv-x="278" 
d="M193 729v-729h-93v729h93zM113 907v-103h-104v103h104zM275 907v-103h-104v103h104z" />
    <glyph glyph-name="Igrave" unicode="&#xcc;" horiz-adv-x="278" 
d="M193 729v-729h-93v729h93zM114 939l96 -148h-60l-149 148h113z" />
    <glyph glyph-name="Ntilde" unicode="&#xd1;" horiz-adv-x="722" 
d="M646 729v-729h-106l-376 591v-591h-88v729h101l381 -596v596h88zM467 916h58c-10 -69 -40 -104 -90 -104c-19 0 -26 2 -85 24c-24 10 -37 13 -49 13c-14 0 -26 -13 -33 -36h-57c11 66 42 103 86 103c20 0 28 -2 70 -19c24 -10 50 -17 63 -17c17 0 29 11 37 36z" />
    <glyph glyph-name="Oacute" unicode="&#xd3;" horiz-adv-x="778" 
d="M389 741c214 0 353 -153 353 -388c0 -119 -47 -232 -126 -299c-59 -50 -137 -77 -226 -77c-211 0 -352 153 -352 382c0 228 142 382 351 382zM389 659c-155 0 -258 -120 -258 -300s103 -300 259 -300c154 0 259 120 259 296c0 185 -102 304 -260 304zM419 939h112
l-149 -148h-60z" />
    <glyph glyph-name="Ocircumflex" unicode="&#xd4;" horiz-adv-x="778" 
d="M389 741c214 0 353 -153 353 -388c0 -119 -47 -232 -126 -299c-59 -50 -137 -77 -226 -77c-211 0 -352 153 -352 382c0 228 142 382 351 382zM389 659c-155 0 -258 -120 -258 -300s103 -300 259 -300c154 0 259 120 259 296c0 185 -102 304 -260 304zM343 940h94l97 -150
h-64l-80 96l-79 -96h-64z" />
    <glyph glyph-name="Odieresis" unicode="&#xd6;" horiz-adv-x="778" 
d="M389 741c214 0 353 -153 353 -388c0 -119 -47 -232 -126 -299c-59 -50 -137 -77 -226 -77c-211 0 -352 153 -352 382c0 228 142 382 351 382zM389 659c-155 0 -258 -120 -258 -300s103 -300 259 -300c154 0 259 120 259 296c0 185 -102 304 -260 304zM361 914v-103h-104
v103h104zM523 914v-103h-104v103h104z" />
    <glyph glyph-name="Ograve" unicode="&#xd2;" horiz-adv-x="778" 
d="M389 741c214 0 353 -153 353 -388c0 -119 -47 -232 -126 -299c-59 -50 -137 -77 -226 -77c-211 0 -352 153 -352 382c0 228 142 382 351 382zM389 659c-155 0 -258 -120 -258 -300s103 -300 259 -300c154 0 259 120 259 296c0 185 -102 304 -260 304zM358 939l97 -148
h-61l-148 148h112z" />
    <glyph glyph-name="Otilde" unicode="&#xd5;" horiz-adv-x="778" 
d="M389 741c214 0 353 -153 353 -388c0 -119 -47 -232 -126 -299c-59 -50 -137 -77 -226 -77c-211 0 -352 153 -352 382c0 228 142 382 351 382zM389 659c-155 0 -258 -120 -258 -300s103 -300 259 -300c154 0 259 120 259 296c0 185 -102 304 -260 304zM493 916h57
c-9 -69 -40 -104 -89 -104c-19 0 -26 2 -85 24c-24 10 -37 13 -49 13c-15 0 -27 -13 -33 -36h-58c11 66 42 103 86 103c21 0 29 -2 70 -19c25 -10 51 -17 63 -17c18 0 30 11 38 36z" />
    <glyph glyph-name="Scaron" unicode="&#x160;" horiz-adv-x="667" 
d="M596 515h-88c-1 96 -66 148 -182 148c-98 0 -163 -49 -163 -123c0 -56 32 -84 120 -108l183 -49c99 -27 155 -93 155 -183c0 -63 -31 -128 -80 -167c-47 -36 -118 -56 -205 -56c-111 0 -195 35 -245 104c-29 40 -42 84 -43 151h88c-1 -45 11 -80 38 -112
c35 -42 88 -61 168 -61c59 0 105 10 134 31c31 22 52 62 52 101c0 57 -41 94 -134 118l-181 48c-96 25 -143 81 -143 170c0 132 99 214 259 214c123 0 208 -44 248 -128c16 -34 19 -48 19 -98zM380 790h-94l-97 150h64l80 -96l79 96h64z" />
    <glyph glyph-name="Uacute" unicode="&#xda;" horiz-adv-x="722" 
d="M551 729h93l1 -512c0 -145 -110 -240 -280 -240s-280 94 -280 240v512h93v-512c0 -98 71 -158 187 -158s187 60 187 158zM387 939h113l-149 -148h-60z" />
    <glyph glyph-name="Ucircumflex" unicode="&#xdb;" horiz-adv-x="722" 
d="M552 729h93v-512c0 -146 -110 -240 -280 -240s-280 94 -280 240v512h93v-512c0 -98 71 -158 187 -158s187 60 187 158v512zM318 940h94l97 -150h-64l-80 96l-79 -96h-64z" />
    <glyph glyph-name="Udieresis" unicode="&#xdc;" horiz-adv-x="722" 
d="M552 729h93v-512c0 -146 -110 -240 -280 -240s-280 94 -280 240v512h93v-512c0 -98 71 -158 187 -158s187 60 187 158v512zM336 914v-103h-104v103h104zM498 914v-103h-104v103h104z" />
    <glyph glyph-name="Ugrave" unicode="&#xd9;" horiz-adv-x="722" 
d="M552 729h93v-512c0 -146 -110 -240 -280 -240s-280 94 -280 240v512h93v-512c0 -98 71 -158 187 -158s187 60 187 158v512zM333 939l97 -148h-61l-148 148h112z" />
    <glyph glyph-name="Yacute" unicode="&#xdd;" horiz-adv-x="667" 
d="M386 286v-286h-93v286l-280 443h115l213 -355l208 355h111zM365 939h113l-149 -148h-60z" />
    <glyph glyph-name="Ydieresis" unicode="&#x178;" horiz-adv-x="667" 
d="M387 286v-286h-93v286l-281 443h115l214 -355l208 355h111zM312 914v-103h-104v103h104zM474 914v-103h-104v103h104z" />
    <glyph glyph-name="Zcaron" unicode="&#x17d;" horiz-adv-x="611" 
d="M581 729v-84l-436 -563h438v-82h-555v82l438 565h-410v82h525zM366 790h-94l-97 150h64l80 -96l79 96h64z" />
    <glyph glyph-name="aacute" unicode="&#xe1;" 
d="M535 49v-63c-28 -7 -39 -9 -57 -9c-54 0 -80 23 -86 77c-59 -54 -112 -77 -178 -77c-106 0 -172 60 -172 155c0 68 31 114 92 140c32 13 50 17 168 32c68 9 86 22 87 58v22c0 50 -41 78 -117 78c-78 0 -116 -29 -123 -93h-84c2 52 12 82 36 109c36 39 97 61 174 61
c129 0 197 -50 197 -143v-308c0 -26 16 -41 45 -41c5 0 9 0 18 2zM389 165v94c-28 -13 -45 -17 -134 -29c-90 -13 -126 -41 -126 -96c0 -53 38 -84 103 -84c49 0 90 16 124 47c25 23 33 40 33 68zM304 740h112l-149 -148h-60z" />
    <glyph glyph-name="acircumflex" unicode="&#xe2;" 
d="M535 49v-63c-28 -7 -39 -9 -57 -9c-54 0 -80 23 -86 77c-59 -54 -112 -77 -178 -77c-106 0 -172 60 -172 155c0 68 31 114 92 140c32 13 50 17 168 32c68 9 86 22 87 58v22c0 50 -41 78 -117 78c-78 0 -116 -29 -123 -93h-84c2 52 12 82 36 109c36 39 97 61 174 61
c129 0 197 -50 197 -143v-308c0 -26 16 -41 45 -41c5 0 9 0 18 2zM389 165v94c-28 -13 -45 -17 -134 -29c-90 -13 -126 -41 -126 -96c0 -53 38 -84 103 -84c49 0 90 16 124 47c25 23 33 40 33 68zM228 741h94l97 -150h-64l-80 96l-79 -96h-64z" />
    <glyph glyph-name="adieresis" unicode="&#xe4;" 
d="M535 49v-63c-28 -7 -39 -9 -57 -9c-54 0 -80 23 -86 77c-59 -54 -112 -77 -178 -77c-106 0 -172 60 -172 155c0 68 31 114 92 140c32 13 50 17 168 32c68 9 86 22 87 58v22c0 50 -41 78 -117 78c-78 0 -116 -29 -123 -93h-84c2 52 12 82 36 109c36 39 97 61 174 61
c129 0 197 -50 197 -143v-308c0 -26 16 -41 45 -41c5 0 9 0 18 2zM389 165v94c-28 -13 -45 -17 -134 -29c-90 -13 -126 -41 -126 -96c0 -53 38 -84 103 -84c49 0 90 16 124 47c25 23 33 40 33 68zM244 715v-103h-104v103h104zM406 715v-103h-104v103h104z" />
    <glyph glyph-name="agrave" unicode="&#xe0;" 
d="M535 49v-63c-28 -7 -39 -9 -57 -9c-54 0 -80 23 -86 77c-59 -54 -112 -77 -178 -77c-106 0 -172 60 -172 155c0 68 31 114 92 140c32 13 50 17 168 32c68 9 86 22 87 58v22c0 50 -41 78 -117 78c-78 0 -116 -29 -123 -93h-84c2 52 12 82 36 109c36 39 97 61 174 61
c129 0 197 -50 197 -143v-308c0 -26 16 -41 45 -41c5 0 9 0 18 2zM389 165v94c-28 -13 -45 -17 -134 -29c-90 -13 -126 -41 -126 -96c0 -53 38 -84 103 -84c49 0 90 16 124 47c25 23 33 40 33 68zM250 740l96 -148h-60l-149 148h113z" />
    <glyph glyph-name="aring" unicode="&#xe5;" 
d="M535 49v-63c-28 -7 -39 -9 -57 -9c-54 0 -80 23 -86 77c-59 -54 -112 -77 -178 -77c-106 0 -172 60 -172 155c0 68 31 114 92 140c32 13 50 17 168 32c68 9 86 22 87 58v22c0 50 -41 78 -117 78c-78 0 -116 -29 -123 -93h-84c2 52 12 82 36 109c36 39 97 61 174 61
c129 0 197 -50 197 -143v-308c0 -26 16 -41 45 -41c5 0 9 0 18 2zM389 165v94c-28 -13 -45 -17 -134 -29c-90 -13 -126 -41 -126 -96c0 -53 38 -84 103 -84c49 0 90 16 124 47c25 23 33 40 33 68zM275 754c49 0 88 -39 88 -88c0 -48 -40 -87 -88 -87c-49 0 -88 39 -88 88
c0 48 40 87 88 87zM275 710c-24 0 -44 -20 -44 -44c0 -23 20 -43 44 -43s44 20 44 43c0 25 -19 44 -44 44z" />
    <glyph glyph-name="atilde" unicode="&#xe3;" 
d="M535 49v-63c-28 -7 -39 -9 -57 -9c-54 0 -80 23 -86 77c-59 -54 -112 -77 -178 -77c-106 0 -172 60 -172 155c0 68 31 114 92 140c32 13 50 17 168 32c68 9 86 22 87 58v22c0 50 -41 78 -117 78c-78 0 -116 -29 -123 -93h-84c2 52 12 82 36 109c36 39 97 61 174 61
c129 0 197 -50 197 -143v-308c0 -26 16 -41 45 -41c5 0 9 0 18 2zM389 165v94c-28 -13 -45 -17 -134 -29c-90 -13 -126 -41 -126 -96c0 -53 38 -84 103 -84c49 0 90 16 124 47c25 23 33 40 33 68zM375 717h57c-10 -69 -40 -104 -89 -104c-19 0 -27 2 -85 24
c-24 10 -38 13 -49 13c-15 0 -27 -13 -33 -36h-58c11 66 42 103 86 103c21 0 28 -2 70 -19c25 -10 51 -17 63 -17c18 0 30 11 38 36z" />
    <glyph glyph-name="ccedilla" unicode="&#xe7;" horiz-adv-x="500" 
d="M264 -23l-13 -33c13 2 19 2 28 2c50 0 79 -24 79 -67c0 -57 -47 -93 -123 -93c-39 0 -60 6 -125 33l21 41l9 -4c45 -23 63 -29 89 -29c31 0 54 19 54 45c0 23 -17 37 -46 37c-12 0 -19 -2 -31 -8l-12 7l31 71c-43 8 -66 17 -93 37c-65 46 -101 131 -101 237
c0 174 91 286 233 286c73 0 136 -29 172 -78c20 -29 31 -62 35 -113h-84c-10 73 -54 114 -124 114c-91 0 -145 -78 -145 -210c0 -124 55 -199 147 -199c71 0 114 42 128 127h84c-7 -125 -90 -203 -213 -203z" />
    <glyph glyph-name="eacute" unicode="&#xe9;" 
d="M513 234h-386c1 -52 8 -82 28 -112c28 -44 73 -68 126 -68c67 0 114 36 137 105h84c-21 -114 -104 -182 -224 -182c-148 0 -238 105 -238 278s94 284 240 284c98 0 178 -52 212 -138c15 -39 21 -87 21 -167zM129 302h294c0 94 -59 160 -144 160c-84 0 -143 -63 -150 -160
zM308 740h113l-149 -148h-60z" />
    <glyph glyph-name="ecircumflex" unicode="&#xea;" 
d="M513 234h-386c1 -52 8 -82 28 -112c28 -44 73 -68 126 -68c67 0 114 36 137 105h84c-21 -114 -104 -182 -224 -182c-148 0 -238 105 -238 278s94 284 240 284c98 0 178 -52 212 -138c15 -39 21 -87 21 -167zM129 302h294c0 94 -59 160 -144 160c-84 0 -143 -63 -150 -160
zM239 741h95l96 -150h-63l-81 96l-79 -96h-64z" />
    <glyph glyph-name="edieresis" unicode="&#xeb;" 
d="M513 234h-386c1 -52 8 -82 28 -112c28 -44 73 -68 126 -68c67 0 114 36 137 105h84c-21 -114 -104 -182 -224 -182c-148 0 -238 105 -238 278s94 284 240 284c98 0 178 -52 212 -138c15 -39 21 -87 21 -167zM129 302h294c0 94 -59 160 -144 160c-84 0 -143 -63 -150 -160
zM257 715v-103h-104v103h104zM419 715v-103h-104v103h104z" />
    <glyph glyph-name="egrave" unicode="&#xe8;" 
d="M513 234h-386c1 -52 8 -82 28 -112c28 -44 73 -68 126 -68c67 0 114 36 137 105h84c-21 -114 -104 -182 -224 -182c-148 0 -238 105 -238 278s94 284 240 284c98 0 178 -52 212 -138c15 -39 21 -87 21 -167zM129 302h294c0 94 -59 160 -144 160c-84 0 -143 -63 -150 -160
zM251 740l97 -148h-60l-149 148h112z" />
    <glyph glyph-name="iacute" unicode="&#xed;" horiz-adv-x="278" 
d="M177 524v-524h-83v524h83zM161 740h113l-149 -148h-60z" />
    <glyph glyph-name="icircumflex" unicode="&#xee;" horiz-adv-x="278" 
d="M177 524v-524h-83v524h83zM89 741h95l96 -150h-63l-81 96l-79 -96h-64z" />
    <glyph glyph-name="idieresis" unicode="&#xef;" horiz-adv-x="278" 
d="M177 524v-524h-83v524h83zM107 708v-103h-104v103h104zM269 708v-103h-104v103h104z" />
    <glyph glyph-name="igrave" unicode="&#xec;" horiz-adv-x="278" 
d="M177 524v-524h-83v524h83zM108 740l96 -148h-60l-149 148h113z" />
    <glyph glyph-name="ntilde" unicode="&#xf1;" 
d="M70 524h77v-88c46 73 96 103 174 103c101 0 166 -56 166 -143v-396h-83v363c0 63 -42 103 -108 103c-86 0 -142 -70 -142 -177v-289h-84v524zM378 717h58c-10 -69 -40 -104 -90 -104c-19 0 -26 2 -85 24c-24 10 -37 13 -49 13c-14 0 -26 -13 -33 -36h-57
c11 66 41 103 85 103c21 0 29 -2 70 -19c25 -10 51 -17 63 -17c18 0 30 11 38 36z" />
    <glyph glyph-name="oacute" unicode="&#xf3;" 
d="M272 539c152 0 238 -103 238 -285c0 -172 -89 -277 -237 -277c-149 0 -237 104 -237 281c0 176 88 281 236 281zM273 462c-93 0 -150 -77 -150 -204s57 -204 150 -204c92 0 150 77 150 201c0 130 -56 207 -150 207zM298 740h113l-149 -148h-60z" />
    <glyph glyph-name="ocircumflex" unicode="&#xf4;" 
d="M272 539c152 0 238 -103 238 -285c0 -172 -89 -277 -237 -277c-149 0 -237 104 -237 281c0 176 88 281 236 281zM273 462c-93 0 -150 -77 -150 -204s57 -204 150 -204c92 0 150 77 150 201c0 130 -56 207 -150 207zM226 741h94l97 -150h-64l-80 96l-79 -96h-64z" />
    <glyph glyph-name="odieresis" unicode="&#xf6;" 
d="M272 539c152 0 238 -103 238 -285c0 -172 -89 -277 -237 -277c-149 0 -237 104 -237 281c0 176 88 281 236 281zM273 462c-93 0 -150 -77 -150 -204s57 -204 150 -204c92 0 150 77 150 201c0 130 -56 207 -150 207zM244 715v-103h-104v103h104zM406 715v-103h-104v103
h104z" />
    <glyph glyph-name="ograve" unicode="&#xf2;" 
d="M272 539c152 0 238 -103 238 -285c0 -172 -89 -277 -237 -277c-149 0 -237 104 -237 281c0 176 88 281 236 281zM273 462c-93 0 -150 -77 -150 -204s57 -204 150 -204c92 0 150 77 150 201c0 130 -56 207 -150 207zM245 740l96 -148h-60l-149 148h113z" />
    <glyph glyph-name="otilde" unicode="&#xf5;" 
d="M272 539c152 0 238 -103 238 -285c0 -172 -89 -277 -237 -277c-149 0 -237 104 -237 281c0 176 88 281 236 281zM273 462c-93 0 -150 -77 -150 -204s57 -204 150 -204c92 0 150 77 150 201c0 130 -56 207 -150 207zM376 717h57c-9 -69 -40 -104 -89 -104
c-19 0 -26 2 -85 24c-24 10 -37 13 -49 13c-15 0 -27 -13 -33 -36h-58c11 66 42 103 86 103c21 0 29 -2 70 -19c25 -10 51 -17 63 -17c18 0 30 11 38 36z" />
    <glyph glyph-name="scaron" unicode="&#x161;" horiz-adv-x="500" 
d="M438 378h-88c-2 55 -38 84 -105 84c-68 0 -111 -30 -111 -79c0 -37 29 -59 97 -75l80 -19c104 -25 148 -68 148 -146c0 -101 -84 -166 -216 -166c-137 0 -205 58 -209 179h88c5 -37 11 -52 24 -67c21 -22 59 -35 104 -35c73 0 122 33 122 83c0 37 -23 58 -81 72l-78 19
c-124 30 -166 69 -166 151c0 97 79 160 201 160c121 0 189 -58 190 -161zM294 591h-95l-96 150h63l81 -96l79 96h64z" />
    <glyph glyph-name="uacute" unicode="&#xfa;" 
d="M482 0h-75v73c-49 -69 -98 -96 -175 -96c-102 0 -167 56 -167 143v404h83v-371c0 -63 42 -103 108 -103c87 0 143 70 143 177v297h83v-524zM296 740h113l-149 -148h-60z" />
    <glyph glyph-name="ucircumflex" unicode="&#xfb;" 
d="M482 0h-75v73c-49 -69 -98 -96 -175 -96c-102 0 -167 56 -167 143v404h83v-371c0 -63 42 -103 108 -103c87 0 143 70 143 177v297h83v-524zM227 741h95l96 -150h-63l-81 96l-79 -96h-64z" />
    <glyph glyph-name="udieresis" unicode="&#xfc;" 
d="M482 0h-75v73c-49 -69 -98 -96 -175 -96c-102 0 -167 56 -167 143v404h83v-371c0 -63 42 -103 108 -103c87 0 143 70 143 177v297h83v-524zM245 715v-103h-104v103h104zM407 715v-103h-104v103h104z" />
    <glyph glyph-name="ugrave" unicode="&#xf9;" 
d="M482 0h-75v73c-49 -69 -98 -96 -175 -96c-102 0 -167 56 -167 143v404h83v-371c0 -63 42 -103 108 -103c87 0 143 70 143 177v297h83v-524zM243 740l96 -148h-60l-149 148h113z" />
    <glyph glyph-name="yacute" unicode="&#xfd;" horiz-adv-x="500" 
d="M388 524h90l-233 -634c-16 -42 -31 -64 -57 -83c-22 -16 -51 -25 -78 -25c-22 0 -39 4 -56 13v75c18 -4 30 -6 44 -6c35 0 53 14 67 51l32 83l-177 526h89l134 -408zM271 740h113l-149 -148h-60z" />
    <glyph glyph-name="ydieresis" unicode="&#xff;" horiz-adv-x="500" 
d="M388 524h90l-233 -634c-16 -42 -31 -64 -57 -83c-22 -16 -51 -25 -78 -25c-22 0 -39 4 -56 13v75c18 -4 30 -6 44 -6c35 0 53 14 67 51l32 83l-177 526h89l134 -408zM217 715v-103h-104v103h104zM379 715v-103h-104v103h104z" />
    <glyph glyph-name="zcaron" unicode="&#x17e;" horiz-adv-x="500" 
d="M443 524v-74l-311 -377h325v-73h-426v75l313 376h-292v73h391zM298 591h-94l-97 150h64l80 -96l79 96h64z" />
    <glyph glyph-name="nsuperior" unicode="&#x207f;" horiz-adv-x="365" 
d="M50 576h54v-43c27 36 59 52 104 52c65 0 107 -34 107 -85v-233h-59v214c0 37 -24 61 -62 61c-52 0 -85 -41 -85 -105v-170h-59v309z" />
    <glyph glyph-name="ffl" unicode="&#xfb04;" horiz-adv-x="778" 
d="M258 524v-68h-87v-456h-83v456h-70v68h70v89c0 75 46 119 123 119c17 0 28 -1 47 -5v-69c-19 1 -22 1 -29 1c-39 0 -58 -18 -58 -53v-82h87zM536 524v-68h-87v-456h-83v456h-70v68h70v89c0 75 46 119 123 119c17 0 28 -1 47 -5v-69c-19 1 -22 1 -29 1
c-39 0 -58 -18 -58 -53v-82h87zM708 729v-729h-84v729h84z" />
    <glyph glyph-name="oneeighth" unicode="&#x215b;" horiz-adv-x="834" 
d="M590 709h58l-452 -729h-58zM154 580h-99v46l15 1c72 7 86 18 103 82h43v-425h-62v296zM724 224c49 -24 73 -59 73 -106c0 -78 -59 -132 -143 -132c-85 0 -143 54 -143 132c0 47 24 82 73 106c-44 27 -58 48 -58 88c0 67 53 113 128 113c76 0 128 -46 128 -113
c0 -40 -14 -61 -58 -88zM654 378c-45 0 -74 -26 -74 -67c0 -40 29 -66 74 -66c44 0 74 26 74 65c0 42 -29 68 -74 68zM654 201c-53 0 -89 -34 -89 -84s36 -84 88 -84c54 0 90 33 90 84c0 50 -36 84 -89 84z" />
    <glyph glyph-name="threeeighths" unicode="&#x215c;" horiz-adv-x="834" 
d="M619 709h58l-452 -729h-58zM726 224c49 -24 73 -59 73 -106c0 -78 -59 -132 -143 -132c-85 0 -143 54 -143 132c0 47 24 82 73 106c-44 27 -58 48 -58 88c0 67 53 113 128 113c76 0 128 -46 128 -113c0 -40 -14 -61 -58 -88zM656 378c-45 0 -74 -26 -74 -67
c0 -40 29 -66 74 -66c44 0 74 26 74 65c0 42 -29 68 -74 68zM656 201c-53 0 -89 -34 -89 -84s36 -84 88 -84c54 0 90 33 90 84c0 50 -36 84 -89 84zM154 476v51c86 0 110 14 110 61c0 43 -28 68 -76 68c-33 0 -60 -13 -72 -35c-7 -13 -9 -26 -9 -54h-63c2 94 50 142 144 142
c86 0 139 -45 139 -120c0 -39 -20 -68 -57 -85c48 -16 71 -49 71 -100c0 -81 -61 -134 -155 -134c-96 0 -151 51 -151 142h62c3 -62 31 -89 91 -89c57 0 90 30 90 81c0 48 -30 72 -92 72h-23h-9z" />
    <glyph glyph-name="fiveeighths" unicode="&#x215d;" horiz-adv-x="834" 
d="M619 709h58l-452 -729h-58zM725 224c50 -24 74 -59 74 -106c0 -78 -59 -132 -143 -132c-85 0 -143 54 -143 132c0 47 24 82 73 106c-45 27 -58 48 -58 88c0 67 52 113 128 113c75 0 128 -46 128 -113c0 -40 -14 -61 -59 -88zM655 378c-44 0 -73 -26 -73 -67
c0 -40 29 -66 74 -66c44 0 74 26 74 65c0 42 -29 68 -75 68zM656 201c-54 0 -89 -34 -89 -84s35 -84 87 -84c55 0 91 33 91 84c0 50 -36 84 -89 84zM302 725v-52h-178l-16 -118c24 17 48 25 78 25c82 0 138 -57 138 -142c0 -90 -60 -152 -146 -152c-48 0 -91 19 -115 51
c-13 16 -19 32 -26 67h53c12 -48 41 -71 87 -71c57 0 93 37 93 98c0 63 -36 102 -93 102c-33 0 -54 -10 -78 -39h-49l32 231h220z" />
    <glyph glyph-name="seveneighths" unicode="&#x215e;" horiz-adv-x="834" 
d="M557 709h58l-452 -729h-58zM717 224c49 -24 73 -59 73 -106c0 -78 -59 -132 -143 -132c-85 0 -143 54 -143 132c0 47 24 82 73 106c-44 27 -58 48 -58 88c0 67 53 113 128 113c76 0 128 -46 128 -113c0 -40 -14 -61 -58 -88zM647 378c-45 0 -74 -26 -74 -67
c0 -40 29 -66 74 -66c44 0 74 26 74 65c0 42 -29 68 -74 68zM647 201c-53 0 -89 -34 -89 -84s36 -84 88 -84c54 0 90 33 90 84c0 50 -36 84 -89 84zM339 725v-44c-96 -128 -149 -245 -173 -381h-56c32 140 73 228 174 373h-229v52h284z" />
    <glyph glyph-name="zerosuperior" unicode="&#x2070;" horiz-adv-x="333" 
d="M164 709c99 0 150 -75 150 -223c0 -140 -53 -216 -149 -216c-98 0 -150 76 -150 220c0 143 52 219 149 219zM164 656c-58 0 -86 -54 -86 -167c0 -112 28 -169 85 -169c60 0 88 54 88 171c0 110 -29 165 -87 165z" />
    <glyph glyph-name="foursuperior" unicode="&#x2074;" horiz-adv-x="333" 
d="M193 384h-188v59l204 266h46v-272h67v-53h-67v-100h-62v100zM193 437v170l-129 -170h129z" />
    <glyph glyph-name="fivesuperior" unicode="&#x2075;" horiz-adv-x="333" 
d="M294 709v-58h-187l-15 -106c23 14 48 21 78 21c87 0 148 -59 148 -143c0 -89 -65 -153 -157 -153c-52 0 -97 19 -124 51c-14 18 -21 35 -28 72h62c13 -48 41 -70 89 -70c59 0 95 36 95 94s-37 96 -95 96c-34 0 -55 -10 -81 -39h-56l34 235h237z" />
    <glyph glyph-name="sixsuperior" unicode="&#x2076;" horiz-adv-x="333" 
d="M309 593h-62c-9 41 -34 63 -73 63c-58 0 -96 -57 -96 -146c33 31 58 41 100 41c81 0 140 -57 140 -136c0 -84 -63 -145 -149 -145c-102 0 -154 70 -154 208c0 77 13 129 41 170c27 39 72 61 122 61c72 0 119 -42 131 -116zM171 498c-53 0 -89 -34 -89 -84
c0 -52 37 -91 88 -91c49 0 85 37 85 88c0 53 -32 87 -84 87z" />
    <glyph glyph-name="sevensuperior" unicode="&#x2077;" horiz-adv-x="333" 
d="M323 709v-48c-101 -126 -158 -242 -182 -377h-66c34 141 76 226 181 367h-238v58h305z" />
    <glyph glyph-name="eightsuperior" unicode="&#x2078;" horiz-adv-x="333" 
d="M245 508c47 -23 72 -59 72 -105c0 -79 -62 -133 -153 -133s-153 54 -153 134c0 46 25 81 72 104c-42 24 -57 47 -57 86c0 68 57 115 138 115s138 -47 138 -115c0 -39 -16 -62 -57 -86zM164 656c-46 0 -75 -25 -75 -63s29 -62 75 -62c45 0 75 24 75 62c0 39 -29 63 -75 63
zM164 481c-54 0 -90 -32 -90 -79s36 -79 89 -79c55 0 91 31 91 79c0 47 -36 79 -90 79z" />
    <glyph glyph-name="ninesuperior" unicode="&#x2079;" horiz-adv-x="333" 
d="M21 386h62c8 -41 34 -63 72 -63c60 0 95 54 96 147c-34 -32 -57 -42 -99 -42c-82 0 -140 56 -140 136c0 84 63 145 150 145c102 0 153 -69 153 -207c0 -79 -12 -130 -41 -171c-28 -39 -72 -61 -122 -61c-72 0 -120 43 -131 116zM160 656c-49 0 -85 -37 -85 -88
c0 -54 32 -87 84 -87s89 35 89 84c0 52 -37 91 -88 91z" />
    <glyph glyph-name="IJ" unicode="&#x132;" horiz-adv-x="735" 
d="M196 729v-729h-94v729h94zM563 729h93v-547c0 -126 -79 -205 -206 -205c-125 0 -203 75 -203 193v64h95v-47c0 -85 39 -132 109 -132c37 0 71 17 89 45c17 25 23 58 23 116v513z" />
    <glyph glyph-name="Abreve" unicode="&#x102;" horiz-adv-x="667" 
d="M474 219h-281l-77 -219h-99l260 729h120l256 -729h-104zM448 297l-112 332l-120 -332h232zM185 931h58c5 -44 36 -66 93 -66c54 0 86 24 91 66h59c-7 -89 -59 -135 -152 -135c-57 0 -102 20 -128 57c-15 20 -20 39 -21 78z" />
    <glyph glyph-name="Aogonek" unicode="&#x104;" horiz-adv-x="667" 
d="M474 219h-281l-77 -219h-99l260 729h120l256 -729c-66 -31 -96 -64 -96 -105c0 -36 24 -55 71 -55c25 0 45 3 64 10v-45c-24 -5 -57 -10 -76 -10c-22 0 -47 5 -69 13c-42 16 -63 42 -63 81c0 48 30 80 101 111h-36zM448 297l-112 332l-120 -332h232z" />
    <glyph glyph-name="Cacute" unicode="&#x106;" horiz-adv-x="722" 
d="M662 503h-95c-11 55 -26 85 -53 110c-30 29 -85 46 -144 46c-142 0 -229 -115 -229 -302c0 -182 92 -298 237 -298c78 0 140 34 170 94c15 29 25 63 33 113h96c-22 -193 -122 -289 -300 -289c-95 0 -167 27 -224 85c-68 71 -105 174 -105 294c0 118 36 222 102 294
c54 60 133 91 231 91c160 0 252 -78 281 -238zM406 939h113l-149 -148h-60z" />
    <glyph glyph-name="Ccaron" unicode="&#x10c;" horiz-adv-x="722" 
d="M662 503h-95c-11 55 -26 85 -53 110c-30 29 -85 46 -144 46c-142 0 -229 -115 -229 -302c0 -182 92 -298 237 -298c78 0 140 34 170 94c15 29 25 63 33 113h96c-22 -193 -122 -289 -300 -289c-95 0 -167 27 -224 85c-68 71 -105 174 -105 294c0 118 36 222 102 294
c54 60 133 91 231 91c160 0 252 -78 281 -238zM428 790h-94l-97 150h64l80 -96l79 96h64z" />
    <glyph glyph-name="Cdotaccent" unicode="&#x10a;" horiz-adv-x="722" 
d="M662 503h-95c-11 55 -26 85 -53 110c-30 29 -85 46 -144 46c-142 0 -229 -115 -229 -302c0 -182 92 -298 237 -298c78 0 140 34 170 94c15 29 25 63 33 113h96c-22 -193 -122 -289 -300 -289c-95 0 -167 27 -224 85c-68 71 -105 174 -105 294c0 118 36 222 102 294
c54 60 133 91 231 91c160 0 252 -78 281 -238zM434 915v-104h-104v104h104z" />
    <glyph glyph-name="Dcaron" unicode="&#x10e;" horiz-adv-x="722" 
d="M89 0v729h281c185 0 297 -138 297 -364c0 -227 -113 -365 -297 -365h-281zM182 82h172c144 0 220 97 220 282c0 186 -76 283 -220 283h-172v-565zM386 790h-95l-96 150h63l80 -96l79 96h65z" />
    <glyph glyph-name="Dcroat" unicode="&#x110;" horiz-adv-x="722" 
d="M89 339h-69v67h69v323h282c184 0 296 -138 296 -364c0 -227 -112 -365 -296 -365h-282v339zM182 339v-257h173c143 0 219 97 219 283c0 95 -17 160 -55 209c-37 48 -94 73 -164 73h-173v-241h171v-67h-171z" />
    <glyph glyph-name="Ecaron" unicode="&#x11a;" horiz-adv-x="667" 
d="M183 332v-250h430v-82h-523v729h505v-82h-412v-233h397v-82h-397zM392 790h-94l-97 150h64l80 -96l79 96h64z" />
    <glyph glyph-name="Edotaccent" unicode="&#x116;" horiz-adv-x="667" 
d="M183 332v-250h430v-82h-523v729h505v-82h-412v-233h397v-82h-397zM397 915v-104h-104v104h104z" />
    <glyph glyph-name="Eogonek" unicode="&#x118;" horiz-adv-x="667" 
d="M183 332v-250h430v-82c-65 -30 -96 -65 -96 -106c0 -35 25 -54 72 -54c25 0 44 3 63 10v-45c-23 -5 -57 -10 -75 -10c-22 0 -47 5 -70 13c-42 16 -63 42 -63 81c0 48 30 81 101 111h-455v729h505v-82h-412v-233h397v-82h-397z" />
    <glyph glyph-name="Gbreve" unicode="&#x11e;" horiz-adv-x="778" 
d="M709 385v-389h-59l-23 97c-72 -79 -150 -116 -249 -116c-197 0 -334 156 -334 380c0 131 47 244 132 314c57 47 129 70 218 70c167 0 279 -85 305 -233h-95c-20 94 -100 151 -211 151c-154 0 -256 -118 -256 -297c0 -90 29 -177 77 -229c43 -47 110 -74 184 -74
c133 0 229 94 229 224v20h-222v82h304zM249 931h59c5 -44 35 -66 93 -66c53 0 86 24 91 66h58c-7 -89 -59 -135 -152 -135c-56 0 -101 20 -128 57c-14 20 -19 39 -21 78z" />
    <glyph glyph-name="Gdotaccent" unicode="&#x120;" horiz-adv-x="778" 
d="M709 385v-389h-59l-23 97c-72 -79 -150 -116 -249 -116c-197 0 -334 156 -334 380c0 131 47 244 132 314c57 47 129 70 218 70c167 0 279 -85 305 -233h-95c-20 94 -100 151 -211 151c-154 0 -256 -118 -256 -297c0 -90 29 -177 77 -229c43 -47 110 -74 184 -74
c133 0 229 94 229 224v20h-222v82h304zM442 915v-104h-104v104h104z" />
    <glyph glyph-name="Idotaccent" unicode="&#x130;" horiz-adv-x="278" 
d="M195 729v-729h-94v729h94zM196 915v-104h-104v104h104z" />
    <glyph glyph-name="Lacute" unicode="&#x139;" 
d="M173 729v-647h360v-82h-453v729h93zM166 939h113l-149 -148h-60z" />
    <glyph glyph-name="Lcaron" unicode="&#x13d;" 
d="M173 729v-647h360v-82h-453v729h93zM273 729h100v-103c0 -70 -38 -121 -92 -121h-8v38c38 0 57 31 55 86h-55v100z" />
    <glyph glyph-name="Nacute" unicode="&#x143;" horiz-adv-x="722" 
d="M646 729v-729h-105l-377 591v-591h-88v729h101l381 -596v596h88zM390 939h112l-149 -148h-60z" />
    <glyph glyph-name="Ncaron" unicode="&#x147;" horiz-adv-x="722" 
d="M646 729v-729h-105l-377 591v-591h-88v729h101l381 -596v596h88zM409 790h-95l-96 150h63l80 -96l79 96h65z" />
    <glyph glyph-name="Ohungarumlaut" unicode="&#x150;" horiz-adv-x="778" 
d="M389 741c214 0 353 -153 353 -388c0 -119 -47 -232 -126 -299c-59 -50 -137 -77 -226 -77c-211 0 -352 153 -352 382c0 228 142 382 351 382zM389 659c-155 0 -258 -120 -258 -300s103 -300 259 -300c154 0 259 120 259 296c0 185 -102 304 -260 304zM364 939h113
l-149 -150h-60zM538 939h113l-149 -150h-60z" />
    <glyph glyph-name="Racute" unicode="&#x154;" horiz-adv-x="722" 
d="M186 314v-314h-93v729h336c144 0 222 -69 222 -195c0 -84 -33 -133 -115 -174c79 -34 98 -70 99 -190c2 -97 9 -123 44 -147v-23h-113c-13 30 -21 74 -21 119l1 65c0 90 -37 130 -120 130h-240zM186 396h225c99 0 143 39 143 126c0 43 -13 76 -38 97
c-23 20 -53 28 -105 28h-225v-251zM383 939h113l-149 -148h-60z" />
    <glyph glyph-name="Rcaron" unicode="&#x158;" horiz-adv-x="722" 
d="M186 314v-314h-93v729h336c144 0 222 -69 222 -195c0 -84 -33 -133 -115 -174c79 -34 98 -70 99 -190c2 -97 9 -123 44 -147v-23h-113c-13 30 -21 74 -21 119l1 65c0 90 -37 130 -120 130h-240zM186 396h225c99 0 143 39 143 126c0 43 -13 76 -38 97
c-23 20 -53 28 -105 28h-225v-251zM404 790h-95l-96 150h63l80 -96l79 96h65z" />
    <glyph glyph-name="Sacute" unicode="&#x15a;" horiz-adv-x="667" 
d="M596 515h-88c-1 96 -66 148 -182 148c-98 0 -163 -49 -163 -123c0 -56 32 -84 120 -108l183 -49c99 -27 155 -93 155 -183c0 -63 -31 -128 -80 -167c-47 -36 -118 -56 -205 -56c-111 0 -195 35 -245 104c-29 40 -42 84 -43 151h88c-1 -45 11 -80 38 -112
c35 -42 88 -61 168 -61c59 0 105 10 134 31c31 22 52 62 52 101c0 57 -41 94 -134 118l-181 48c-96 25 -143 81 -143 170c0 132 99 214 259 214c123 0 208 -44 248 -128c16 -34 19 -48 19 -98zM362 939h113l-149 -148h-60z" />
    <glyph glyph-name="Scedilla" unicode="&#x15e;" horiz-adv-x="667" 
d="M338 -24l-15 -32c13 2 19 2 28 2c50 0 79 -24 79 -67c0 -58 -47 -93 -123 -93c-39 0 -62 6 -125 34l21 40l9 -4c46 -23 63 -29 89 -29c31 0 54 19 54 45c0 23 -17 37 -46 37c-11 0 -19 -2 -31 -7l-11 6l31 69c-6 2 -10 3 -11 3l-44 7c-121 26 -195 121 -192 245h88
c-1 -45 11 -80 38 -112c35 -42 88 -61 168 -61c59 0 105 10 134 31c31 22 52 62 52 101c0 57 -41 94 -134 118l-181 48c-96 25 -143 81 -143 170c0 132 99 214 259 214c123 0 208 -44 248 -128c16 -34 19 -48 19 -98h-88c-1 96 -66 148 -182 148c-98 0 -163 -49 -163 -123
c0 -56 32 -84 120 -108l183 -49c99 -27 155 -93 155 -183c0 -86 -53 -165 -134 -198c-41 -16 -81 -23 -152 -26z" />
    <glyph glyph-name="Tcaron" unicode="&#x164;" horiz-adv-x="611" 
d="M354 647v-647h-93v647h-240v82h572v-82h-239zM355 790h-95l-96 150h63l80 -96l79 96h65z" />
    <glyph glyph-name="Uring" unicode="&#x16e;" horiz-adv-x="722" 
d="M552 729h93v-512c0 -146 -110 -240 -281 -240c-173 0 -279 92 -279 240v512h93v-512c0 -55 17 -92 53 -120c35 -25 79 -38 133 -38c117 0 188 60 188 158v512zM365 953c49 0 88 -39 88 -88c0 -48 -40 -87 -88 -87c-49 0 -88 39 -88 88c0 48 40 87 88 87zM365 909
c-24 0 -44 -20 -44 -44c0 -23 20 -43 44 -43s44 20 44 43c0 25 -19 44 -44 44z" />
    <glyph glyph-name="Uhungarumlaut" unicode="&#x170;" horiz-adv-x="722" 
d="M552 729h93v-512c0 -146 -110 -240 -281 -240c-173 0 -279 92 -279 240v512h93v-512c0 -55 17 -92 53 -120c35 -25 79 -38 133 -38c117 0 188 60 188 158v512zM329 939h113l-149 -150h-60zM503 939h113l-149 -150h-60z" />
    <glyph glyph-name="Zacute" unicode="&#x179;" horiz-adv-x="611" 
d="M581 729v-84l-436 -563h438v-82h-555v82l438 565h-410v82h525zM347 939h113l-149 -148h-60z" />
    <glyph glyph-name="Zdotaccent" unicode="&#x17b;" horiz-adv-x="611" 
d="M581 729v-84l-436 -563h438v-82h-555v82l438 565h-410v82h525zM371 915v-104h-104v104h104z" />
    <glyph glyph-name="Amacron" unicode="&#x100;" horiz-adv-x="667" 
d="M474 219h-281l-77 -219h-99l260 729h120l256 -729h-104zM448 297l-112 332l-120 -332h232zM472 900v-70h-274v70h274z" />
    <glyph glyph-name="Tcommaaccent" unicode="&#x162;" horiz-adv-x="611" 
d="M354 647v-647h-93v647h-240v82h572v-82h-239zM260 -60h100v-103c-1 -76 -40 -123 -100 -121v38c38 0 57 31 55 86h-55v100z" />
    <glyph glyph-name="uni021A" unicode="&#x21a;" horiz-adv-x="611" 
d="M354 647v-647h-93v647h-240v82h572v-82h-239zM260 -60h100v-103c-1 -76 -40 -123 -100 -121v38c38 0 57 31 55 86h-55v100z" />
    <glyph glyph-name="Ccircumflex" unicode="&#x108;" horiz-adv-x="722" 
d="M662 503h-95c-11 55 -26 85 -53 110c-30 29 -85 46 -144 46c-142 0 -229 -115 -229 -302c0 -182 92 -298 237 -298c78 0 140 34 170 94c15 29 25 63 33 113h96c-22 -193 -122 -289 -300 -289c-95 0 -167 27 -224 85c-68 71 -105 174 -105 294c0 118 36 222 102 294
c54 60 133 91 231 91c160 0 252 -78 281 -238zM326 940h95l96 -150h-63l-81 96l-79 -96h-64z" />
    <glyph glyph-name="Wcircumflex" unicode="&#x174;" horiz-adv-x="944" 
d="M744 0h-102l-168 599l-163 -599h-102l-187 729h104l137 -592l162 592h100l166 -592l134 592h104zM421 940h95l96 -150h-63l-80 96l-79 -96h-65z" />
    <glyph glyph-name="Wdieresis" unicode="&#x1e84;" horiz-adv-x="944" 
d="M744 0h-102l-168 599l-163 -599h-102l-187 729h104l137 -592l162 592h100l166 -592l134 592h104zM443 914v-103h-104v103h104zM605 914v-103h-104v103h104z" />
    <glyph glyph-name="Ycircumflex" unicode="&#x176;" horiz-adv-x="667" 
d="M387 286v-286h-93v286l-281 443h115l214 -355l208 355h111zM297 940h94l97 -150h-64l-80 96l-79 -96h-64z" />
    <glyph glyph-name="Hbar" unicode="&#x126;" horiz-adv-x="722" 
d="M83 502h-75v70h75v157h93v-157h375v157h93v-157h75v-70h-75v-502h-93v332h-374v-332h-94v502zM176 502v-88h375v88h-375z" />
    <glyph glyph-name="Emacron" unicode="&#x112;" horiz-adv-x="667" 
d="M183 332v-250h430v-82h-523v729h505v-82h-412v-233h397v-82h-397zM482 900v-70h-274v70h274z" />
    <glyph glyph-name="Gcircumflex" unicode="&#x11c;" horiz-adv-x="778" 
d="M709 385v-389h-59l-23 97c-72 -79 -150 -116 -249 -116c-197 0 -334 156 -334 380c0 131 47 244 132 314c57 47 129 70 218 70c167 0 279 -85 305 -233h-95c-20 94 -100 151 -211 151c-154 0 -256 -118 -256 -297c0 -90 29 -177 77 -229c43 -47 110 -74 184 -74
c133 0 229 94 229 224v20h-222v82h304zM338 940h95l96 -150h-63l-80 96l-79 -96h-65z" />
    <glyph glyph-name="Hcircumflex" unicode="&#x124;" horiz-adv-x="722" 
d="M551 332h-374v-332h-94v729h93v-315h375v315h93v-729h-93v332zM324 940h95l96 -150h-63l-81 96l-79 -96h-64z" />
    <glyph glyph-name="Imacron" unicode="&#x12a;" horiz-adv-x="278" 
d="M194 729v-729h-94v729h94zM274 900v-70h-254v70h254z" />
    <glyph glyph-name="Iogonek" unicode="&#x12e;" horiz-adv-x="278" 
d="M194 729v-729c-37 -33 -56 -71 -56 -107c0 -31 20 -52 51 -52c14 0 27 3 45 9v-45c-18 -5 -41 -9 -59 -9c-65 0 -109 35 -109 88c0 44 20 75 77 116h-43v729h94z" />
    <glyph glyph-name="Jcircumflex" unicode="&#x134;" horiz-adv-x="500" 
d="M333 729h93v-547c0 -126 -79 -205 -206 -205c-125 0 -203 75 -203 193v64h95v-47c0 -85 39 -132 109 -132c37 0 71 17 89 45c17 25 23 58 23 116v513zM319 940h94l97 -150h-64l-80 96l-79 -96h-64z" />
    <glyph glyph-name="Kcommaaccent" unicode="&#x136;" horiz-adv-x="667" 
d="M172 255v-255h-93v729h93v-369l363 369h120l-297 -297l300 -432h-110l-257 374zM299 -60h100v-103c-1 -76 -40 -123 -100 -121v38c38 0 57 31 55 86h-55v100z" />
    <glyph glyph-name="Lcommaaccent" unicode="&#x13b;" 
d="M173 729v-647h360v-82h-453v729h93zM257 -60h100v-103c-1 -76 -40 -123 -100 -121v38c38 0 57 31 55 86h-55v100z" />
    <glyph glyph-name="Ncommaaccent" unicode="&#x145;" horiz-adv-x="722" 
d="M646 729v-729h-105l-377 591v-591h-88v729h101l381 -596v596h88zM298 -60h100v-103c-1 -76 -40 -123 -100 -121v38c38 0 57 31 55 86h-55v100z" />
    <glyph glyph-name="Omacron" unicode="&#x14c;" horiz-adv-x="778" 
d="M389 741c214 0 353 -153 353 -388c0 -119 -47 -232 -126 -299c-59 -50 -137 -77 -226 -77c-211 0 -352 153 -352 382c0 228 142 382 351 382zM389 659c-155 0 -258 -120 -258 -300s103 -300 259 -300c154 0 259 120 259 296c0 185 -102 304 -260 304zM527 900v-70h-274
v70h274z" />
    <glyph glyph-name="Rcommaaccent" unicode="&#x156;" horiz-adv-x="722" 
d="M186 314v-314h-93v729h336c144 0 222 -69 222 -195c0 -84 -33 -133 -115 -174c79 -34 98 -70 99 -190c2 -97 9 -123 44 -147v-23h-113c-13 30 -21 74 -21 119l1 65c0 90 -37 130 -120 130h-240zM186 396h225c99 0 143 39 143 126c0 43 -13 76 -38 97
c-23 20 -53 28 -105 28h-225v-251zM319 -60h100v-103c-1 -76 -40 -123 -100 -121v38c38 0 57 31 55 86h-55v100z" />
    <glyph glyph-name="Scircumflex" unicode="&#x15c;" horiz-adv-x="667" 
d="M596 515h-88c-1 96 -66 148 -182 148c-98 0 -163 -49 -163 -123c0 -56 32 -84 120 -108l183 -49c99 -27 155 -93 155 -183c0 -63 -31 -128 -80 -167c-47 -36 -118 -56 -205 -56c-111 0 -195 35 -245 104c-29 40 -42 84 -43 151h88c-1 -45 11 -80 38 -112
c35 -42 88 -61 168 -61c59 0 105 10 134 31c31 22 52 62 52 101c0 57 -41 94 -134 118l-181 48c-96 25 -143 81 -143 170c0 132 99 214 259 214c123 0 208 -44 248 -128c16 -34 19 -48 19 -98zM283 940h95l96 -150h-63l-81 96l-79 -96h-64z" />
    <glyph glyph-name="Gcommaaccent" unicode="&#x122;" horiz-adv-x="778" 
d="M709 385v-389h-59l-23 97c-72 -79 -150 -116 -249 -116c-197 0 -334 156 -334 380c0 131 47 244 132 314c57 47 129 70 218 70c167 0 279 -85 305 -233h-95c-20 94 -100 151 -211 151c-154 0 -256 -118 -256 -297c0 -90 29 -177 77 -229c43 -47 110 -74 184 -74
c133 0 229 94 229 224v20h-222v82h304zM337 -60h100v-103c-1 -76 -40 -123 -100 -121v38c38 0 57 31 55 86h-55v100z" />
    <glyph glyph-name="Umacron" unicode="&#x16a;" horiz-adv-x="722" 
d="M552 729h93v-512c0 -146 -110 -240 -281 -240c-173 0 -279 92 -279 240v512h93v-512c0 -55 17 -92 53 -120c35 -25 79 -38 133 -38c117 0 188 60 188 158v512zM502 900v-70h-274v70h274z" />
    <glyph glyph-name="Uogonek" unicode="&#x172;" horiz-adv-x="722" 
d="M602 -150v-45c-24 -5 -57 -10 -75 -10c-22 0 -47 5 -70 13c-42 16 -63 42 -63 80c0 41 21 70 73 102c-44 -10 -65 -13 -101 -13c-174 0 -281 91 -281 240v512h93v-512c0 -55 17 -92 53 -120c35 -25 79 -38 133 -38c117 0 188 60 188 158v512h93v-512
c-3 -89 -29 -140 -113 -217c-44 -42 -65 -76 -65 -106c0 -35 25 -54 72 -54c25 0 45 3 63 10z" />
    <glyph glyph-name="Ebreve" unicode="&#x114;" horiz-adv-x="667" 
d="M183 332v-250h430v-82h-523v729h505v-82h-412v-233h397v-82h-397zM194 931h59c5 -44 35 -66 93 -66c53 0 86 24 91 66h58c-7 -89 -59 -135 -152 -135c-56 0 -101 20 -128 57c-14 20 -19 39 -21 78z" />
    <glyph glyph-name="Ibreve" unicode="&#x12c;" horiz-adv-x="278" 
d="M188 729v-729h-94v729h94zM-12 931h59c5 -44 35 -66 92 -66c54 0 87 24 91 66h59c-7 -89 -59 -135 -152 -135c-57 0 -101 20 -128 57c-15 20 -20 39 -21 78z" />
    <glyph glyph-name="ij" unicode="&#x133;" horiz-adv-x="444" 
d="M171 524v-524h-83v524h83zM171 729v-105h-84v105h84zM280 524h83v-633c0 -72 -49 -109 -143 -109c-13 0 -18 1 -28 3v71c11 -1 14 -1 20 -1c52 0 68 17 68 69v600zM363 729v-105h-83v105h83z" />
    <glyph glyph-name="longs" unicode="&#x17f;" horiz-adv-x="222" 
d="M143 0h-83v456h-70v68h70v89c0 75 46 119 123 119c17 0 28 -1 47 -5v-69l-30 1c-38 0 -57 -18 -57 -53v-606z" />
    <glyph glyph-name="abreve" unicode="&#x103;" 
d="M535 49v-63c-28 -7 -39 -9 -57 -9c-54 0 -80 23 -86 77c-59 -54 -112 -77 -178 -77c-106 0 -172 60 -172 155c0 68 31 114 92 140c32 13 50 17 168 32c68 9 86 22 87 58v22c0 50 -41 78 -117 78c-78 0 -116 -29 -123 -93h-84c2 52 12 82 36 109c36 39 97 61 174 61
c129 0 197 -50 197 -143v-308c0 -26 16 -41 45 -41c5 0 9 0 18 2zM389 165v94c-28 -13 -45 -17 -134 -29c-90 -13 -126 -41 -126 -96c0 -53 38 -84 103 -84c49 0 90 16 124 47c25 23 33 40 33 68zM125 732h58c6 -44 36 -66 93 -66c54 0 86 24 91 66h59
c-7 -89 -59 -135 -152 -135c-57 0 -102 20 -128 57c-15 20 -20 39 -21 78z" />
    <glyph glyph-name="aogonek" unicode="&#x105;" 
d="M536 49v-63c-48 -19 -76 -52 -76 -91c0 -36 25 -55 72 -55c25 0 46 3 64 10v-45c-26 -6 -54 -10 -71 -10c-20 0 -52 5 -74 13c-40 13 -63 42 -63 79c0 38 19 63 68 90c-38 7 -59 33 -63 77c-58 -54 -111 -77 -178 -77c-106 0 -172 60 -172 155c0 68 31 114 93 140
c31 13 49 17 168 32c67 9 86 22 86 58v22c0 50 -41 78 -117 78c-78 0 -116 -29 -122 -93h-84c2 52 12 82 35 109c36 39 98 61 174 61c129 0 197 -49 197 -143v-308c0 -26 16 -41 45 -41c5 0 9 0 18 2zM389 165v94c-28 -13 -45 -17 -134 -29c-90 -13 -126 -41 -126 -96
c0 -53 38 -84 103 -84c49 0 90 16 124 47c25 23 33 40 33 68z" />
    <glyph glyph-name="cacute" unicode="&#x107;" horiz-adv-x="500" 
d="M471 348h-84c-10 73 -54 114 -124 114c-91 0 -145 -78 -145 -209c0 -124 55 -199 147 -199c71 0 114 42 128 126h84c-10 -128 -89 -203 -214 -203c-142 0 -232 107 -232 276c0 174 91 286 233 286c73 0 136 -29 172 -78c20 -29 31 -62 35 -113zM299 740h112l-149 -148
h-60z" />
    <glyph glyph-name="ccaron" unicode="&#x10d;" horiz-adv-x="500" 
d="M471 348h-84c-10 73 -54 114 -124 114c-91 0 -145 -78 -145 -209c0 -124 55 -199 147 -199c71 0 114 42 128 126h84c-10 -128 -89 -203 -214 -203c-142 0 -232 107 -232 276c0 174 91 286 233 286c73 0 136 -29 172 -78c20 -29 31 -62 35 -113zM313 591h-94l-97 150h64
l80 -96l79 96h64z" />
    <glyph glyph-name="cdotaccent" unicode="&#x10b;" horiz-adv-x="500" 
d="M471 348h-84c-10 73 -54 114 -124 114c-91 0 -145 -78 -145 -209c0 -124 55 -199 147 -199c71 0 114 42 128 126h84c-10 -128 -89 -203 -214 -203c-142 0 -232 107 -232 276c0 174 91 286 233 286c73 0 136 -29 172 -78c20 -29 31 -62 35 -113zM318 716v-104h-104v104
h104z" />
    <glyph glyph-name="dcaron" unicode="&#x10f;" horiz-adv-x="643" 
d="M495 729v-729h-74v69c-45 -65 -95 -92 -167 -92c-142 0 -228 109 -228 286c0 167 89 276 225 276c70 0 126 -28 161 -81v271h83zM265 461c-91 0 -152 -81 -152 -203s61 -203 153 -203c88 0 146 80 146 201c0 126 -57 205 -147 205zM548 729h100v-103
c0 -70 -38 -121 -92 -121h-8v38c38 0 57 31 55 86h-55v100z" />
    <glyph glyph-name="dcroat" unicode="&#x111;" 
d="M494 653h63v-53h-63v-600h-74v59c-48 -56 -101 -82 -168 -82c-136 0 -226 114 -226 287c0 166 89 275 224 275c68 0 117 -24 161 -78v139h-150v53h150v76h83v-76zM265 457c-92 0 -152 -79 -152 -199s60 -199 152 -199c88 0 146 78 146 197c0 123 -57 201 -146 201z" />
    <glyph glyph-name="ecaron" unicode="&#x11b;" 
d="M513 234h-386c1 -52 8 -82 28 -112c28 -44 73 -68 126 -68c67 0 114 36 137 105h84c-21 -114 -104 -182 -224 -182c-148 0 -238 105 -238 278s94 284 240 284c98 0 178 -52 212 -138c15 -39 21 -87 21 -167zM129 302h294c0 94 -59 160 -144 160c-84 0 -143 -63 -150 -160
zM334 591h-95l-96 150h63l81 -96l79 96h64z" />
    <glyph glyph-name="edotaccent" unicode="&#x117;" 
d="M513 234h-386c1 -52 8 -82 28 -112c28 -44 73 -68 126 -68c67 0 114 36 137 105h84c-21 -114 -104 -182 -224 -182c-148 0 -238 105 -238 278s94 284 240 284c98 0 178 -52 212 -138c15 -39 21 -87 21 -167zM129 302h294c0 94 -59 160 -144 160c-84 0 -143 -63 -150 -160
zM337 716v-104h-104v104h104z" />
    <glyph glyph-name="eogonek" unicode="&#x119;" 
d="M513 234h-386c1 -52 9 -82 28 -113c29 -43 74 -68 126 -68c67 0 115 37 138 106h84c-11 -55 -35 -98 -81 -144c-54 -57 -71 -86 -71 -124c0 -32 27 -51 72 -51c25 0 45 3 64 10v-45c-27 -6 -46 -9 -69 -9c-84 0 -139 34 -139 88c0 23 11 49 28 68c7 7 14 13 40 33
c-30 -6 -44 -8 -68 -8c-149 0 -239 104 -239 277c0 174 94 285 240 285c98 0 179 -52 212 -138c15 -38 22 -87 21 -167zM130 302h294c0 94 -60 160 -145 160c-84 0 -143 -63 -149 -160z" />
    <glyph glyph-name="gbreve" unicode="&#x11f;" 
d="M119 732h59c5 -44 36 -66 93 -66c53 0 86 24 91 66h58c-7 -89 -59 -135 -151 -135c-57 0 -102 20 -128 57c-15 20 -20 39 -22 78zM404 524h77v-438c0 -123 -15 -188 -55 -237c-34 -42 -98 -67 -175 -67c-114 0 -191 61 -199 158h85c8 -60 45 -88 116 -88
c104 0 143 52 143 192v27c-44 -66 -89 -94 -152 -94c-54 0 -104 25 -143 71c-45 53 -66 117 -66 205c0 168 88 286 215 286c66 0 112 -28 154 -91v76zM258 462c-86 0 -136 -76 -136 -204c0 -129 50 -204 136 -204c87 0 138 74 138 201c0 133 -50 207 -138 207z" />
    <glyph glyph-name="gdotaccent" unicode="&#x121;" 
d="M317 715v-103h-104v103h104zM404 524h77v-438c0 -123 -15 -188 -55 -237c-34 -42 -98 -67 -175 -67c-114 0 -191 61 -199 158h85c8 -60 45 -88 116 -88c104 0 143 52 143 192v27c-44 -66 -89 -94 -152 -94c-54 0 -104 25 -143 71c-45 53 -66 117 -66 205
c0 168 88 286 215 286c66 0 112 -28 154 -91v76zM258 462c-86 0 -136 -76 -136 -204c0 -129 50 -204 136 -204c87 0 138 74 138 201c0 133 -50 207 -138 207z" />
    <glyph glyph-name="lacute" unicode="&#x13a;" horiz-adv-x="222" 
d="M152 729v-729h-84v729h84zM159 939h113l-149 -148h-60z" />
    <glyph glyph-name="lcaron" unicode="&#x13e;" horiz-adv-x="299" 
d="M152 729v-729h-84v729h84zM205 729h100v-103c0 -70 -38 -121 -92 -121h-8v38c38 0 57 31 55 86h-55v100z" />
    <glyph glyph-name="nacute" unicode="&#x144;" 
d="M70 524h77v-88c46 73 96 103 174 103c101 0 166 -56 166 -143v-396h-83v363c0 63 -42 103 -108 103c-86 0 -142 -70 -142 -177v-289h-84v524zM310 740h113l-149 -148h-60z" />
    <glyph glyph-name="ncaron" unicode="&#x148;" 
d="M70 524h77v-88c46 73 96 103 174 103c101 0 166 -56 166 -143v-396h-83v363c0 63 -42 103 -108 103c-86 0 -142 -70 -142 -177v-289h-84v524zM326 591h-95l-96 150h63l81 -96l79 96h64z" />
    <glyph glyph-name="ohungarumlaut" unicode="&#x151;" 
d="M272 539c152 0 238 -103 238 -285c0 -172 -89 -277 -237 -277c-149 0 -237 104 -237 281c0 176 88 281 236 281zM273 462c-93 0 -150 -77 -150 -204s57 -204 150 -204c92 0 150 77 150 201c0 130 -56 207 -150 207zM240 740h112l-149 -150h-60zM414 740h112l-149 -150
h-60z" />
    <glyph glyph-name="racute" unicode="&#x155;" horiz-adv-x="333" 
d="M69 524h77v-95c48 78 89 110 143 110c10 0 18 -1 32 -3v-85c-115 3 -167 -53 -168 -179v-272h-84v524zM218 740h113l-149 -148h-60z" />
    <glyph glyph-name="sacute" unicode="&#x15b;" horiz-adv-x="500" 
d="M438 378h-88c-2 55 -38 84 -105 84c-68 0 -111 -30 -111 -79c0 -37 29 -59 97 -75l80 -19c104 -25 148 -68 148 -146c0 -101 -84 -166 -216 -166c-137 0 -205 58 -209 179h88c5 -37 11 -52 24 -67c21 -22 59 -35 104 -35c73 0 122 33 122 83c0 37 -23 58 -81 72l-78 19
c-124 30 -166 69 -166 151c0 97 79 160 201 160c121 0 189 -58 190 -161zM275 740h113l-149 -148h-60z" />
    <glyph glyph-name="scircumflex" unicode="&#x15d;" horiz-adv-x="500" 
d="M438 378h-88c-2 55 -38 84 -105 84c-68 0 -111 -30 -111 -79c0 -37 29 -59 97 -75l80 -19c104 -25 148 -68 148 -146c0 -101 -84 -166 -216 -166c-137 0 -205 58 -209 179h88c5 -37 11 -52 24 -67c21 -22 59 -35 104 -35c73 0 122 33 122 83c0 37 -23 58 -81 72l-78 19
c-124 30 -166 69 -166 151c0 97 79 160 201 160c121 0 189 -58 190 -161zM202 741h95l96 -150h-63l-80 96l-79 -96h-65z" />
    <glyph glyph-name="scommaaccent" unicode="&#x219;" horiz-adv-x="500" 
d="M438 378h-88c-2 55 -38 84 -105 84c-68 0 -111 -30 -111 -79c0 -37 29 -59 97 -75l80 -19c104 -25 148 -68 148 -146c0 -101 -84 -166 -216 -166c-137 0 -205 58 -209 179h88c5 -37 11 -52 24 -67c21 -22 59 -35 104 -35c73 0 122 33 122 83c0 37 -23 58 -81 72l-78 19
c-124 30 -166 69 -166 151c0 97 79 160 201 160c121 0 189 -58 190 -161zM197 -60h100v-103c-1 -76 -40 -123 -100 -121v38c38 0 57 31 55 86h-55v100z" />
    <glyph glyph-name="tcaron" unicode="&#x165;" horiz-adv-x="317" 
d="M254 524v-68h-86v-359c0 -37 10 -47 46 -47c17 0 28 1 40 4v-70c-28 -5 -46 -7 -68 -7c-65 0 -101 29 -101 83v396h-71v68h71v144h83v-144h86zM221 801h100v-103c-1 -76 -40 -123 -100 -121v38c38 0 57 31 55 86h-55v100z" />
    <glyph glyph-name="uring" unicode="&#x16f;" 
d="M482 0h-75v73c-49 -69 -98 -96 -175 -96c-102 0 -167 56 -167 143v404h83v-371c0 -63 42 -103 108 -103c87 0 143 70 143 177v297h83v-524zM274 754c49 0 88 -39 88 -88c0 -48 -40 -87 -88 -87c-49 0 -88 39 -88 88c0 48 40 87 88 87zM274 710c-24 0 -44 -20 -44 -44
c0 -23 20 -43 44 -43s44 20 44 43c0 25 -19 44 -44 44z" />
    <glyph glyph-name="uhungarumlaut" unicode="&#x171;" 
d="M482 0h-75v73c-49 -69 -98 -96 -175 -96c-102 0 -167 56 -167 143v404h83v-371c0 -63 42 -103 108 -103c87 0 143 70 143 177v297h83v-524zM243 740h113l-149 -150h-60zM417 740h113l-149 -150h-60z" />
    <glyph glyph-name="zacute" unicode="&#x17a;" horiz-adv-x="500" 
d="M443 524v-74l-311 -377h325v-73h-426v75l313 376h-292v73h391zM279 740h112l-149 -148h-60z" />
    <glyph glyph-name="zdotaccent" unicode="&#x17c;" horiz-adv-x="500" 
d="M443 524v-74l-311 -377h325v-73h-426v75l313 376h-292v73h391zM303 716v-104h-104v104h104z" />
    <glyph glyph-name="hbar" unicode="&#x127;" 
d="M153 653h207v-53h-207v-148c49 64 94 87 168 87c102 0 165 -55 165 -143v-396h-83v363c0 38 -10 62 -34 80c-20 15 -46 23 -73 23c-87 0 -143 -70 -143 -177v-289h-83v600h-60v53h60v76h83v-76z" />
    <glyph glyph-name="tcommaaccent" unicode="&#x163;" horiz-adv-x="278" 
d="M254 524v-68h-86v-359c0 -37 10 -47 46 -47c17 0 28 1 40 4v-70c-28 -5 -46 -7 -68 -7c-65 0 -101 29 -101 83v396h-71v68h71v144h83v-144h86zM111 -60h100v-103c-1 -76 -40 -123 -100 -121v38c38 0 57 31 55 86h-55v100z" />
    <glyph glyph-name="uni021B" unicode="&#x21b;" horiz-adv-x="278" 
d="M254 524v-68h-86v-359c0 -37 10 -47 46 -47c17 0 28 1 40 4v-70c-28 -5 -46 -7 -68 -7c-65 0 -101 29 -101 83v396h-71v68h71v144h83v-144h86zM111 -60h100v-103c-1 -76 -40 -123 -100 -121v38c38 0 57 31 55 86h-55v100z" />
    <glyph glyph-name="wcircumflex" unicode="&#x175;" horiz-adv-x="722" 
d="M554 0h-95l-106 411l-101 -411h-94l-152 524h92l107 -408l100 408h102l103 -408l104 408h94zM308 741h95l96 -150h-63l-80 96l-79 -96h-65z" />
    <glyph glyph-name="wdieresis" unicode="&#x1e85;" horiz-adv-x="722" 
d="M554 0h-95l-106 411l-101 -411h-94l-152 524h92l107 -408l100 408h102l103 -408l104 408h94zM320 715v-103h-104v103h104zM482 715v-103h-104v103h104z" />
    <glyph glyph-name="amacron" unicode="&#x101;" 
d="M535 49v-63c-28 -7 -39 -9 -57 -9c-54 0 -80 23 -86 77c-59 -54 -112 -77 -178 -77c-106 0 -172 60 -172 155c0 68 31 114 92 140c32 13 50 17 168 32c68 9 86 22 87 58v22c0 50 -41 78 -117 78c-78 0 -116 -29 -123 -93h-84c2 52 12 82 36 109c36 39 97 61 174 61
c129 0 197 -50 197 -143v-308c0 -26 16 -41 45 -41c5 0 9 0 18 2zM389 165v94c-28 -13 -45 -17 -134 -29c-90 -13 -126 -41 -126 -96c0 -53 38 -84 103 -84c49 0 90 16 124 47c25 23 33 40 33 68zM411 701v-70h-274v70h274z" />
    <glyph glyph-name="ycircumflex" unicode="&#x177;" horiz-adv-x="500" 
d="M388 524h90l-233 -634c-16 -42 -31 -64 -57 -83c-22 -16 -51 -25 -78 -25c-22 0 -39 4 -56 13v75c18 -4 30 -6 44 -6c35 0 53 14 67 51l32 83l-177 526h89l134 -408zM203 741h94l97 -150h-64l-80 96l-79 -96h-64z" />
    <glyph glyph-name="ccircumflex" unicode="&#x109;" horiz-adv-x="500" 
d="M471 348h-84c-10 73 -54 114 -124 114c-91 0 -145 -78 -145 -209c0 -124 55 -199 147 -199c71 0 114 42 128 126h84c-10 -128 -89 -203 -214 -203c-142 0 -232 107 -232 276c0 174 91 286 233 286c73 0 136 -29 172 -78c20 -29 31 -62 35 -113zM220 741h94l97 -150h-64
l-80 96l-79 -96h-64z" />
    <glyph glyph-name="emacron" unicode="&#x113;" 
d="M513 234h-386c1 -52 8 -82 28 -112c28 -44 73 -68 126 -68c67 0 114 36 137 105h84c-21 -114 -104 -182 -224 -182c-148 0 -238 105 -238 278s94 284 240 284c98 0 178 -52 212 -138c15 -39 21 -87 21 -167zM129 302h294c0 94 -59 160 -144 160c-84 0 -143 -63 -150 -160
zM422 701v-70h-274v70h274z" />
    <glyph glyph-name="gcircumflex" unicode="&#x11d;" 
d="M225 741h94l97 -150h-64l-80 96l-79 -96h-64zM404 524h77v-438c0 -123 -15 -188 -55 -237c-34 -42 -98 -67 -175 -67c-114 0 -191 61 -199 158h85c8 -60 45 -88 116 -88c104 0 143 52 143 192v27c-44 -66 -89 -94 -152 -94c-54 0 -104 25 -143 71c-45 53 -66 117 -66 205
c0 168 88 286 215 286c66 0 112 -28 154 -91v76zM258 462c-86 0 -136 -76 -136 -204c0 -129 50 -204 136 -204c87 0 138 74 138 201c0 133 -50 207 -138 207z" />
    <glyph glyph-name="ibreve" unicode="&#x12d;" horiz-adv-x="278" 
d="M177 524v-524h-83v524h83zM-12 732h59c5 -44 35 -66 92 -66c54 0 87 24 91 66h59c-7 -89 -59 -135 -152 -135c-57 0 -101 20 -128 57c-14 20 -20 39 -21 78z" />
    <glyph glyph-name="imacron" unicode="&#x12b;" horiz-adv-x="278" 
d="M180 524v-524h-83v524h83zM262 701v-70h-247v70h247z" />
    <glyph glyph-name="jcircumflex" unicode="&#x135;" horiz-adv-x="222" 
d="M70 524h83v-633c0 -72 -49 -109 -143 -109c-13 0 -18 1 -28 3v71c11 -1 14 -1 20 -1c52 0 68 17 68 69v600zM60 741h95l96 -150h-63l-81 96l-79 -96h-64z" />
    <glyph glyph-name="kcommaaccent" unicode="&#x137;" horiz-adv-x="500" 
d="M141 729v-427l222 222h107l-182 -181l214 -343h-103l-177 284l-81 -80v-204h-83v729h83zM217 -60h100v-103c-1 -76 -40 -123 -100 -121v38c38 0 57 31 55 86h-55v100z" />
    <glyph glyph-name="lcommaaccent" unicode="&#x13c;" horiz-adv-x="222" 
d="M152 729v-729h-84v729h84zM63 -60h100v-103c-1 -76 -40 -123 -100 -121v38c38 0 57 31 55 86h-55v100z" />
    <glyph glyph-name="ncommaaccent" unicode="&#x146;" 
d="M70 524h77v-88c46 73 96 103 174 103c101 0 166 -56 166 -143v-396h-83v363c0 63 -42 103 -108 103c-86 0 -142 -70 -142 -177v-289h-84v524zM229 -60h100v-103c-1 -76 -40 -123 -100 -121v38c38 0 57 31 55 86h-55v100z" />
    <glyph glyph-name="omacron" unicode="&#x14d;" 
d="M272 539c152 0 238 -103 238 -285c0 -172 -89 -277 -237 -277c-149 0 -237 104 -237 281c0 176 88 281 236 281zM273 462c-93 0 -150 -77 -150 -204s57 -204 150 -204c92 0 150 77 150 201c0 130 -56 207 -150 207zM410 701v-70h-274v70h274z" />
    <glyph glyph-name="rcommaaccent" unicode="&#x157;" horiz-adv-x="333" 
d="M69 524h77v-95c48 78 89 110 143 110c10 0 18 -1 32 -3v-85c-115 3 -167 -53 -168 -179v-272h-84v524zM65 -60h100v-103c-1 -76 -40 -123 -100 -121v38c38 0 57 31 55 86h-55v100z" />
    <glyph glyph-name="ubreve" unicode="&#x16d;" 
d="M482 0h-75v73c-49 -69 -98 -96 -175 -96c-102 0 -167 56 -167 143v404h83v-371c0 -63 42 -103 108 -103c87 0 143 70 143 177v297h83v-524zM128 732h58c5 -44 36 -66 93 -66c53 0 86 24 91 66h59c-8 -89 -60 -135 -152 -135c-57 0 -102 20 -128 57c-15 20 -20 39 -21 78z
" />
    <glyph glyph-name="umacron" unicode="&#x16b;" 
d="M482 0h-75v73c-49 -69 -98 -96 -175 -96c-102 0 -167 56 -167 143v404h83v-371c0 -63 42 -103 108 -103c87 0 143 70 143 177v297h83v-524zM411 701v-70h-274v70h274z" />
    <glyph glyph-name="uogonek" unicode="&#x173;" 
d="M482 524v-524c-46 -26 -76 -69 -76 -108c0 -32 26 -52 66 -52c16 0 28 2 49 10v-45c-6 -1 -11 -2 -13 -3c-20 -5 -27 -6 -39 -6c-83 0 -136 36 -136 93c0 43 30 77 96 111h-22v73c-49 -69 -98 -96 -175 -96c-102 0 -167 56 -167 143v404h83v-371c0 -63 42 -103 108 -103
c87 0 143 70 143 177v297h83z" />
    <glyph glyph-name="rcaron" unicode="&#x159;" horiz-adv-x="333" 
d="M69 524h77v-95c48 78 89 110 143 110c10 0 18 -1 32 -3v-85c-115 3 -167 -53 -168 -179v-272h-84v524zM239 591h-95l-96 150h63l81 -96l79 96h64z" />
    <glyph glyph-name="scedilla" unicode="&#x15f;" horiz-adv-x="500" 
d="M244 -24l-14 -32c13 2 19 2 28 2c50 0 79 -24 79 -67c0 -57 -47 -93 -123 -93c-39 0 -63 6 -125 34l21 40l9 -4c46 -23 63 -29 89 -29c31 0 54 19 54 45c0 23 -17 37 -46 37c-12 0 -19 -2 -31 -7l-11 6l31 71c-112 11 -169 69 -171 177h88c5 -37 11 -52 24 -67
c21 -22 59 -35 104 -35c73 0 122 33 122 83c0 37 -23 58 -81 72l-78 19c-124 30 -166 69 -166 151c0 97 79 160 201 160c121 0 189 -58 190 -161h-88c-2 55 -38 84 -105 84c-68 0 -111 -30 -111 -79c0 -37 29 -59 97 -75l80 -19c104 -25 148 -68 148 -146
c0 -63 -37 -118 -98 -145c-27 -12 -57 -18 -117 -22z" />
    <glyph glyph-name="gcommaaccent" unicode="&#x123;" 
d="M315 592h-100v103c1 76 40 123 100 121v-38l-2 -1c-37 -1 -55 -30 -53 -85h55v-100zM404 524h77v-438c0 -123 -15 -188 -55 -237c-34 -42 -98 -67 -175 -67c-114 0 -191 61 -199 158h85c8 -60 45 -88 116 -88c104 0 143 52 143 192v27c-44 -66 -89 -94 -152 -94
c-54 0 -104 25 -143 71c-45 53 -66 117 -66 205c0 168 88 286 215 286c66 0 112 -28 154 -91v76zM258 462c-86 0 -136 -76 -136 -204c0 -129 50 -204 136 -204c87 0 138 74 138 201c0 133 -50 207 -138 207z" />
    <glyph glyph-name="Euro" unicode="&#x20ac;" 
d="M79 313v24c0 13 0 23 2 42h-79l22 59h63c10 64 32 120 66 170c47 68 112 101 198 101c69 0 126 -20 192 -67l-32 -80c-73 54 -114 71 -167 71c-86 0 -138 -62 -166 -195h284l-23 -59h-270c-1 -13 -2 -23 -2 -36c0 -11 0 -19 1 -30h246l-24 -59h-214
c25 -131 82 -198 169 -198c49 0 84 13 166 61v-93c-50 -31 -106 -46 -166 -46c-85 0 -159 39 -198 103c-30 48 -50 105 -62 173h-83l22 59h55z" />
    <glyph glyph-name="peseta" unicode="&#x20a7;" horiz-adv-x="1094" 
d="M633 309v-40h-54v-212c0 -24 4 -28 27 -28c10 0 16 1 27 4v-42c-21 -4 -32 -5 -46 -5c-42 0 -66 18 -66 49v234h-44v40h44v85h58v-85h54zM991 223h-62c-1 34 -21 50 -61 50c-42 0 -66 -17 -66 -47c0 -22 16 -35 57 -44l49 -11c67 -15 95 -41 95 -87
c0 -59 -54 -98 -137 -98c-87 0 -130 35 -133 106h61c7 -45 27 -61 76 -61c44 0 72 19 72 49c0 23 -13 36 -46 43l-48 12c-80 18 -107 40 -107 88c0 57 51 95 128 95s121 -34 122 -95zM207 309v-309h-93v729h129c144 0 224 -77 224 -214c0 -67 -19 -114 -63 -154
c-39 -35 -83 -52 -141 -52h-56zM207 391h22c88 0 141 48 141 128s-53 128 -141 128h-22v-256z" />
    <glyph glyph-name="lira" unicode="&#x20a4;" 
d="M366 321h-136c5 -14 8 -24 11 -37h126v-55h-124c-9 -47 -41 -93 -116 -168c39 26 79 39 121 39c27 0 44 -3 83 -15c43 -12 60 -16 78 -16c27 0 54 10 84 31l42 -66c-40 -40 -79 -57 -132 -57c-36 0 -62 6 -145 35c-21 7 -45 11 -66 11c-35 0 -71 -12 -109 -36l-49 66
c82 67 117 117 125 176h-132v55h126c-6 16 -10 25 -17 37h-110v55h81l-7 11c-38 63 -46 86 -46 128c0 121 104 214 239 214c84 0 155 -37 190 -99c20 -33 28 -72 29 -133h-88c-4 103 -49 154 -136 154c-85 0 -141 -51 -141 -127c0 -38 7 -57 43 -120c7 -12 11 -18 16 -28
h160v-55z" />
    <glyph glyph-name="franc" unicode="&#x20a3;" 
d="M135 332v-332h-93v729h489v-82h-396v-233h148v-82h-148zM299 524h77v-95c48 78 89 110 143 110c10 0 18 -1 32 -3v-85c-115 3 -167 -53 -168 -179v-272h-84v524z" />
    <glyph glyph-name="uni0387" unicode="&#x387;" horiz-adv-x="278" 
d="M211 427v-125h-124v125h124z" />
    <glyph glyph-name="uni2219" unicode="&#x2219;" horiz-adv-x="278" 
d="M211 427v-125h-124v125h124z" />
    <glyph glyph-name="uni00AD" unicode="&#xad;" horiz-adv-x="333" 
d="M284 312v-72h-238v72h238z" />
    <glyph glyph-name="afii00208" unicode="&#x2015;" horiz-adv-x="1000" 
d="M1001 312v-72h-1010v72h1010z" />
    <glyph glyph-name="afii61248" unicode="&#x2105;" horiz-adv-x="885" 
d="M491 441v-104h-104v104h104z" />
    <glyph glyph-name="quotereversed" unicode="&#x201b;" horiz-adv-x="222" 
d="M158 729v-104h-48c-1 -58 13 -85 48 -90v-38c-60 4 -93 51 -93 131v101h93z" />
    <glyph glyph-name="uni2215" unicode="&#x2215;" horiz-adv-x="278" 
d="M333 709h58l-452 -729h-58z" />
    <glyph glyph-name="uni02C9" unicode="&#x2c9;" horiz-adv-x="333" 
d="M302 701v-70h-274v70h274z" />
    <glyph glyph-name="aringacute" unicode="&#x1fb;" 
d="M535 49v-63c-28 -7 -39 -9 -57 -9c-54 0 -80 23 -86 77c-59 -54 -112 -77 -178 -77c-106 0 -172 60 -172 155c0 68 31 114 92 140c32 13 50 17 168 32c68 9 86 22 87 58v22c0 50 -41 78 -117 78c-78 0 -116 -29 -123 -93h-84c2 52 12 82 36 109c36 39 97 61 174 61
c129 0 197 -50 197 -143v-308c0 -26 16 -41 45 -41c5 0 9 0 18 2zM389 165v94c-28 -13 -45 -17 -134 -29c-90 -13 -126 -41 -126 -96c0 -53 38 -84 103 -84c49 0 90 16 124 47c25 23 33 40 33 68zM279 754c49 0 88 -39 88 -88c0 -48 -40 -87 -88 -87c-49 0 -88 39 -88 88
c0 48 40 87 88 87zM279 710c-24 0 -44 -20 -44 -44c0 -23 20 -43 44 -43s44 20 44 43c0 25 -19 44 -44 44zM237 901h112l-149 -148h-60z" />
    <glyph glyph-name="hcircumflex" unicode="&#x125;" 
d="M70 729h83v-277c49 64 94 87 168 87c102 0 165 -55 165 -143v-396h-83v363c0 37 -10 62 -34 80c-20 15 -46 23 -74 23c-86 0 -142 -70 -142 -177v-289h-83v729zM66 940h95l96 -150h-63l-81 96l-79 -96h-64z" />
    <glyph glyph-name="ebreve" unicode="&#x115;" 
d="M513 234h-386c1 -52 8 -82 28 -112c28 -44 73 -68 126 -68c67 0 114 36 137 105h84c-21 -114 -104 -182 -224 -182c-148 0 -238 105 -238 278s94 284 240 284c98 0 178 -52 212 -138c15 -39 21 -87 21 -167zM129 302h294c0 94 -59 160 -144 160c-84 0 -143 -63 -150 -160
zM136 732h59c5 -44 35 -66 92 -66c54 0 87 24 91 66h59c-7 -89 -59 -135 -152 -135c-57 0 -101 20 -128 57c-14 20 -20 39 -21 78z" />
    <glyph glyph-name="iogonek" unicode="&#x12f;" horiz-adv-x="222" 
d="M150 524v-524c-30 -27 -53 -71 -53 -103c0 -34 20 -56 50 -56c13 0 25 3 43 9v-45c-18 -5 -41 -9 -58 -9c-63 0 -107 36 -107 88c0 42 18 71 74 116h-32v524h83zM150 729v-105h-84v105h84z" />
    <glyph glyph-name="ldot" unicode="&#x140;" horiz-adv-x="334" 
d="M158 729v-729h-83v729h83zM225 408h102v-105h-102v105z" />
    <glyph glyph-name="obreve" unicode="&#x14f;" 
d="M272 539c152 0 238 -103 238 -285c0 -172 -89 -277 -237 -277c-149 0 -237 104 -237 281c0 176 88 281 236 281zM273 462c-93 0 -150 -77 -150 -204s57 -204 150 -204c92 0 150 77 150 201c0 130 -56 207 -150 207zM122 732h58c5 -44 36 -66 93 -66c53 0 86 24 91 66h59
c-8 -89 -60 -135 -152 -135c-57 0 -102 20 -128 57c-15 20 -20 39 -21 78z" />
    <glyph glyph-name="oslashacute" unicode="&#x1ff;" horiz-adv-x="611" 
d="M529 511l-63 -71c30 -50 44 -106 44 -182c0 -176 -88 -281 -236 -281c-68 0 -123 21 -163 62l-61 -69l-32 28l66 74c-33 49 -48 108 -48 186c0 177 88 281 237 281c69 0 121 -20 166 -65l58 65zM405 371l-238 -269c29 -32 64 -48 106 -48c93 0 150 77 150 204
c0 44 -6 81 -18 113zM144 141l239 269c-26 33 -66 52 -110 52c-93 0 -150 -77 -150 -204c0 -47 7 -83 21 -117zM288 754h113l-149 -148h-60z" />
    <glyph glyph-name="itilde" unicode="&#x129;" horiz-adv-x="278" 
d="M177 524v-524h-83v524h83zM233 717h58c-10 -69 -40 -104 -89 -104c-19 0 -27 2 -85 24c-25 10 -38 13 -49 13c-15 0 -27 -13 -33 -36h-58c11 66 42 103 86 103c21 0 28 -2 70 -19c25 -10 51 -17 63 -17c18 0 29 11 37 36z" />
    <glyph glyph-name="utilde" unicode="&#x169;" 
d="M482 0h-75v73c-49 -69 -98 -96 -175 -96c-102 0 -167 56 -167 143v404h83v-371c0 -63 42 -103 108 -103c87 0 143 70 143 177v297h83v-524zM373 717h58c-10 -69 -40 -104 -90 -104c-19 0 -26 2 -85 24c-24 10 -37 13 -49 13c-14 0 -26 -13 -33 -36h-57
c11 66 41 103 85 103c21 0 29 -2 70 -19c25 -10 51 -17 63 -17c18 0 30 11 38 36z" />
    <glyph glyph-name="Ldot" unicode="&#x13f;" 
d="M173 729v-647h360v-82h-453v729h93zM341 408h102v-105h-102v105z" />
    <glyph glyph-name="Obreve" unicode="&#x14e;" horiz-adv-x="778" 
d="M389 741c214 0 353 -153 353 -388c0 -119 -47 -232 -126 -299c-59 -50 -137 -77 -226 -77c-211 0 -352 153 -352 382c0 228 142 382 351 382zM389 659c-155 0 -258 -120 -258 -300s103 -300 259 -300c154 0 259 120 259 296c0 185 -102 304 -260 304zM238 931h58
c5 -44 36 -66 93 -66c54 0 86 24 91 66h59c-7 -89 -59 -135 -152 -135c-57 0 -102 20 -128 57c-15 20 -20 39 -21 78z" />
    <glyph glyph-name="Scommaaccent" unicode="&#x218;" horiz-adv-x="667" 
d="M596 515h-88c-1 96 -66 148 -182 148c-98 0 -163 -49 -163 -123c0 -56 32 -84 120 -108l183 -49c99 -27 155 -93 155 -183c0 -63 -31 -128 -80 -167c-47 -36 -118 -56 -205 -56c-111 0 -195 35 -245 104c-29 40 -42 84 -43 151h88c-1 -45 11 -80 38 -112
c35 -42 88 -61 168 -61c59 0 105 10 134 31c31 22 52 62 52 101c0 57 -41 94 -134 118l-181 48c-96 25 -143 81 -143 170c0 132 99 214 259 214c123 0 208 -44 248 -128c16 -34 19 -48 19 -98zM291 -60h100v-103c-1 -76 -40 -123 -100 -121v38c38 0 57 31 55 86h-55v100z
" />
    <glyph glyph-name="Ubreve" unicode="&#x16c;" horiz-adv-x="722" 
d="M552 729h93v-512c0 -146 -110 -240 -281 -240c-173 0 -279 92 -279 240v512h93v-512c0 -55 17 -92 53 -120c35 -25 79 -38 133 -38c117 0 188 60 188 158v512zM210 931h58c5 -44 36 -66 93 -66c54 0 86 24 91 66h59c-7 -89 -59 -135 -152 -135c-57 0 -102 20 -128 57
c-15 20 -20 39 -21 78z" />
    <glyph glyph-name="Aringacute" unicode="&#x1fa;" horiz-adv-x="667" 
d="M474 219h-281l-77 -219h-99l260 729h120l256 -729h-104zM448 297l-112 332l-120 -332h232zM334 953c49 0 88 -39 88 -88c0 -48 -40 -87 -88 -87c-49 0 -88 39 -88 88c0 48 40 87 88 87zM334 909c-24 0 -44 -20 -44 -44c0 -23 20 -43 44 -43s44 20 44 43
c0 25 -19 44 -44 44zM278 1075h113l-149 -148h-60z" />
    <glyph glyph-name="Oslashacute" unicode="&#x1fe;" horiz-adv-x="778" 
d="M30 19l81 89c-51 70 -76 155 -76 252c0 228 142 381 352 381c91 0 168 -27 230 -81l87 95l40 -36l-89 -97c54 -68 84 -161 84 -264c0 -228 -142 -381 -352 -381c-97 0 -175 29 -241 90l-77 -84zM174 176l384 419c-48 43 -106 64 -171 64c-155 0 -259 -120 -259 -299
c0 -70 15 -131 46 -184zM593 554l-387 -421c49 -49 110 -74 181 -74c155 0 259 120 259 299c0 75 -18 142 -53 196zM392 939h112l-149 -148h-60z" />
    <glyph glyph-name="AEacute" unicode="&#x1fc;" horiz-adv-x="1000" 
d="M468 214h-269l-85 -214h-103l299 729h622v-82h-371v-233h352v-82h-352v-250h389v-82h-482v214zM468 296v351h-100l-138 -351h238zM612 939h112l-149 -148h-60z" />
    <glyph glyph-name="Eng" unicode="&#x14a;" horiz-adv-x="723" 
d="M410 -296v85c18 -2 29 -2 41 -2c41 0 66 9 79 30c10 14 11 25 11 92v591c0 52 -10 88 -32 113c-24 29 -70 46 -121 46c-59 0 -109 -22 -146 -64c-38 -43 -55 -99 -55 -179v-416h-93v720h83v-120c73 102 139 141 236 141c62 0 122 -21 163 -57c39 -35 58 -84 58 -153v-649
c0 -77 -12 -113 -45 -143c-30 -25 -72 -38 -127 -38c-15 0 -26 1 -52 3z" />
    <glyph glyph-name="Tbar" unicode="&#x166;" horiz-adv-x="611" 
d="M261 403h-160v67h160v177h-240v82h572v-82h-239v-177h160v-67h-160v-403h-93v403z" />
    <glyph glyph-name="eng" unicode="&#x14b;" 
d="M317 -215v72c12 -1 17 -1 25 -1c28 0 46 7 54 21c7 11 8 19 8 80v407c0 62 -40 102 -103 102c-90 0 -146 -68 -146 -177v-289h-84v524h77v-88c56 77 101 103 177 103c53 0 99 -18 128 -50c24 -25 34 -57 34 -106v-449c0 -76 -6 -99 -34 -122c-23 -21 -53 -30 -95 -30
c-15 0 -23 1 -41 3z" />
    <glyph glyph-name="tbar" unicode="&#x167;" horiz-adv-x="278" 
d="M254 54v-70c-28 -5 -46 -7 -68 -7c-65 0 -101 29 -101 83v260h-61v53h61v83h-71v68h71v144h83v-144h86v-68h-86v-83h76v-53h-76v-223c0 -37 10 -47 46 -47c17 0 28 1 40 4z" />
    <glyph glyph-name="kgreenlandic" unicode="&#x138;" horiz-adv-x="500" 
d="M106 179v-179h-65v510h65v-258l254 258h84l-208 -208l210 -302h-77l-180 261z" />
    <glyph glyph-name="napostrophe" unicode="&#x149;" horiz-adv-x="604" 
d="M118 524h77v-88c46 73 96 103 174 103c101 0 166 -56 166 -143v-396h-83v363c0 63 -42 103 -108 103c-86 0 -142 -70 -142 -177v-289h-84v524zM10 764h100v-103c0 -70 -38 -121 -92 -121h-8v38c38 0 57 31 55 86h-55v100z" />
    <glyph glyph-name="Utilde" unicode="&#x168;" horiz-adv-x="722" 
d="M552 729h93v-512c0 -146 -110 -240 -281 -240c-173 0 -279 92 -279 240v512h93v-512c0 -55 17 -92 53 -120c35 -25 79 -38 133 -38c117 0 188 60 188 158v512zM456 916h58c-10 -69 -40 -104 -90 -104c-19 0 -26 2 -85 24c-24 10 -37 13 -49 13c-14 0 -26 -13 -33 -36h-57
c11 66 41 103 85 103c21 0 29 -2 70 -19c25 -10 51 -17 63 -17c18 0 30 11 38 36z" />
    <glyph glyph-name="aeacute" unicode="&#x1fd;" horiz-adv-x="889" 
d="M751 159h84c-22 -114 -105 -182 -223 -182c-77 0 -143 31 -178 83c-5 8 -9 15 -16 27c-75 -78 -138 -110 -216 -110c-102 0 -168 61 -168 155c0 68 31 114 92 140c33 14 84 24 168 31c70 7 86 18 87 59v22c0 51 -41 78 -118 78s-115 -29 -122 -93h-84c2 52 12 82 36 109
c35 39 97 61 172 61c85 0 144 -27 175 -82c36 52 101 82 173 82c97 0 177 -53 211 -138c15 -39 21 -87 21 -167h-386c1 -52 8 -82 28 -112c28 -44 73 -68 126 -68c67 0 114 36 138 105zM381 157v101c-28 -12 -45 -16 -134 -29c-90 -13 -126 -40 -126 -95
c0 -52 38 -84 100 -84c41 0 78 13 111 38c30 23 49 50 49 69zM461 302h294c0 95 -59 160 -144 160c-84 0 -143 -63 -150 -160zM466 740h113l-149 -148h-60z" />
    <glyph glyph-name="Itilde" unicode="&#x128;" horiz-adv-x="278" 
d="M194 729v-729h-94v729h94zM233 916h58c-10 -69 -40 -104 -89 -104c-19 0 -27 2 -85 24c-25 10 -38 13 -49 13c-15 0 -27 -13 -33 -36h-58c11 66 42 103 86 103c21 0 28 -2 70 -19c25 -10 51 -17 63 -17c18 0 29 11 37 36z" />
    <glyph glyph-name="Wgrave" unicode="&#x1e80;" horiz-adv-x="944" 
d="M744 0h-102l-168 599l-163 -599h-102l-187 729h104l137 -592l162 592h100l166 -592l134 592h104zM460 939l96 -148h-60l-149 148h113z" />
    <glyph glyph-name="Wacute" unicode="&#x1e82;" horiz-adv-x="944" 
d="M744 0h-102l-168 599l-163 -599h-102l-187 729h104l137 -592l162 592h100l166 -592l134 592h104zM550 939h113l-149 -148h-60z" />
    <glyph glyph-name="wgrave" unicode="&#x1e81;" horiz-adv-x="722" 
d="M554 0h-95l-106 411l-101 -411h-94l-152 524h92l107 -408l100 408h102l103 -408l104 408h94zM329 740l97 -148h-61l-148 148h112z" />
    <glyph glyph-name="wacute" unicode="&#x1e83;" horiz-adv-x="722" 
d="M554 0h-95l-106 411l-101 -411h-94l-152 524h92l107 -408l100 408h102l103 -408l104 408h94zM368 740h113l-149 -148h-60z" />
    <glyph glyph-name="Ygrave" unicode="&#x1ef2;" horiz-adv-x="667" 
d="M387 286v-286h-93v286l-281 443h115l214 -355l208 355h111zM302 939l96 -148h-60l-149 148h113z" />
    <glyph glyph-name="ygrave" unicode="&#x1ef3;" horiz-adv-x="500" 
d="M388 524h90l-233 -634c-16 -42 -31 -64 -57 -83c-22 -16 -51 -25 -78 -25c-22 0 -39 4 -56 13v75c18 -4 30 -6 44 -6c35 0 53 14 67 51l32 83l-177 526h89l134 -408zM212 740l96 -148h-60l-149 148h113z" />
    <glyph glyph-name="uni2002" unicode="&#x2002;" horiz-adv-x="500" 
 />
    <glyph glyph-name="uni00A0" unicode="&#xa0;" horiz-adv-x="278" 
 />
    <glyph glyph-name="smileface" unicode="&#x263a;" horiz-adv-x="1021" 
d="M511 730c202 0 365 -163 365 -365c0 -203 -163 -365 -368 -365c-201 0 -362 164 -362 371c0 195 166 359 365 359zM511 681c-173 0 -316 -141 -316 -311c0 -179 139 -321 314 -321c177 0 318 140 318 316c0 175 -141 316 -316 316zM402 518c27 0 50 -23 50 -50
s-23 -50 -50 -50s-50 23 -50 51c0 26 23 49 50 49zM274 410c11 -50 22 -72 48 -102c48 -55 108 -81 189 -81s141 26 189 81c26 30 37 52 48 102c-7 -93 -22 -138 -58 -185c-42 -54 -102 -81 -179 -81c-83 0 -147 32 -189 95c-30 45 -41 86 -48 171zM620 518
c27 0 50 -23 50 -50s-23 -50 -50 -50s-50 23 -50 51c0 26 23 49 50 49z" />
    <glyph glyph-name="invsmileface" unicode="&#x263b;" horiz-adv-x="1052" 
d="M527 730c202 0 365 -163 365 -365c0 -203 -163 -365 -368 -365c-201 0 -362 164 -362 371c0 195 166 359 365 359zM418 523c-29 0 -55 -25 -55 -54c0 -31 25 -56 55 -56s55 25 55 55s-25 55 -55 55zM290 410c7 -93 22 -138 58 -185c42 -54 102 -81 179 -81
c83 0 147 32 189 95c30 45 41 86 48 171c-11 -50 -22 -72 -48 -102c-48 -55 -108 -81 -189 -81s-141 26 -189 81c-26 30 -37 52 -48 102zM636 523c-29 0 -55 -25 -55 -54c0 -31 25 -56 55 -56s55 25 55 55s-25 55 -55 55z" />
    <glyph glyph-name="heart" unicode="&#x2665;" horiz-adv-x="594" 
d="M296 -28c-26 103 -66 171 -217 373c-84 114 -105 159 -105 226c0 89 66 157 151 157c55 0 106 -29 139 -79c12 -18 20 -36 32 -72c13 46 23 68 45 93c33 38 77 59 125 59c84 0 154 -68 154 -151c0 -79 -32 -146 -128 -268c-116 -145 -176 -248 -196 -338z" />
    <glyph glyph-name="diamond" unicode="&#x2666;" horiz-adv-x="510" 
d="M5 349l-13 16c146 184 220 289 276 392c33 -68 198 -301 278 -392c-105 -125 -218 -285 -278 -393c-38 75 -162 252 -263 377z" />
    <glyph glyph-name="club" unicode="&#x2663;" horiz-adv-x="656" 
d="M579 0h-498v20c95 20 118 29 150 54c54 44 92 125 92 197c0 5 0 16 -1 32c-45 -91 -113 -141 -194 -141c-92 0 -165 73 -165 166c0 87 66 163 141 163c31 0 52 -6 100 -30c-34 53 -41 72 -41 108c0 90 71 160 164 160c91 0 164 -71 164 -159c0 -37 -11 -68 -39 -109
c59 29 66 31 95 31c81 0 146 -72 146 -162c0 -94 -71 -168 -162 -168c-53 0 -115 31 -154 77c-12 14 -20 27 -41 64c1 -96 18 -149 65 -201c46 -48 75 -62 178 -82v-20z" />
    <glyph glyph-name="spade" unicode="&#x2660;" horiz-adv-x="531" 
d="M60 0v23c159 1 246 96 240 263c-17 -37 -28 -52 -47 -70c-32 -30 -73 -47 -115 -47c-73 0 -134 62 -134 137c0 64 35 120 115 187c106 86 165 172 181 264c39 -117 58 -144 167 -245c107 -97 133 -138 133 -206c0 -74 -58 -136 -128 -136c-73 0 -119 33 -163 116
c-3 -170 73 -255 234 -263v-23h-483z" />
    <glyph glyph-name="male" unicode="&#x2642;" horiz-adv-x="750" 
d="M384 494l153 153c-13 3 -19 5 -60 20c-39 15 -66 33 -66 46c0 8 6 13 14 13c5 0 8 -1 19 -3c29 -6 53 -9 81 -9c47 0 65 2 91 10c9 3 18 5 22 5c6 0 10 -4 10 -10c0 -4 0 -5 -5 -22c-7 -25 -10 -55 -10 -93c0 -29 2 -51 9 -83c2 -11 3 -15 3 -20c0 -7 -5 -13 -12 -13
c-10 0 -15 6 -26 26c-15 30 -35 79 -40 104l-150 -150c35 -35 53 -77 53 -123c0 -101 -84 -187 -182 -187c-100 0 -185 82 -185 178c0 100 85 185 184 185c34 0 58 -7 97 -27zM289 474c-76 0 -136 -59 -136 -133c0 -75 60 -135 134 -135s134 60 134 134
c0 73 -60 134 -132 134z" />
    <glyph glyph-name="female" unicode="&#x2640;" horiz-adv-x="750" 
d="M352 260v104c-91 13 -159 90 -159 177c0 101 83 188 181 188c99 0 183 -83 183 -182c0 -91 -68 -170 -157 -183v-104h161v-43h-161v-166h-48v166h-163v43h163zM379 675c-74 0 -132 -57 -132 -128c0 -73 57 -131 130 -131c71 0 129 58 129 130c0 70 -58 129 -127 129z" />
    <glyph glyph-name="musicalnote" unicode="&#x266a;" horiz-adv-x="500" 
d="M235 191v538h48v-64c8 -11 14 -18 15 -19l56 -67c64 -76 95 -154 95 -236c0 -64 -21 -123 -60 -171h-29c25 59 34 102 34 157c0 91 -50 173 -111 182v-320c0 -101 -66 -173 -159 -173c-45 0 -73 24 -73 63c0 65 60 122 127 122c19 0 41 -5 57 -12z" />
    <glyph glyph-name="sun" unicode="&#x263c;" horiz-adv-x="917" 
d="M256 527l-88 87l42 41l87 -87c39 31 84 50 132 56v122h59v-123c50 -6 97 -25 134 -55l87 87l41 -41l-87 -87c30 -37 49 -83 55 -132h123v-60h-123c-6 -50 -25 -95 -55 -133l87 -87l-41 -41l-87 87c-40 -31 -87 -50 -134 -55v-123h-59v123c-46 5 -90 23 -132 55l-87 -87
l-42 41l87 87c-29 36 -49 85 -54 133h-124v60h124c6 51 23 91 55 132zM461 555c-105 0 -188 -82 -188 -185c0 -105 82 -188 186 -188c103 0 187 84 187 187c0 101 -84 186 -185 186z" />
    <glyph glyph-name="openbullet" unicode="&#x25e6;" horiz-adv-x="354" 
d="M179 436c67 0 123 -58 123 -127c0 -70 -56 -127 -125 -127s-125 57 -125 127c0 71 56 127 127 127zM176 393c-45 0 -82 -38 -82 -84s37 -84 83 -84s83 38 83 84c0 47 -37 84 -84 84z" />
    <glyph glyph-name="invbullet" unicode="&#x25d8;" horiz-adv-x="604" 
d="M-8 0v620h620v-620h-620zM301 438c-68 0 -127 -61 -127 -132c0 -66 57 -124 122 -124c71 0 134 61 134 130c0 68 -59 126 -129 126z" />
    <glyph glyph-name="circle" unicode="&#x25cb;" horiz-adv-x="604" 
d="M302 644c152 0 279 -126 279 -279s-127 -279 -281 -279c-152 0 -277 128 -277 283c0 148 129 275 279 275zM302 595c-125 0 -230 -103 -230 -226c0 -130 102 -234 228 -234c129 0 232 103 232 230s-103 230 -230 230z" />
    <glyph glyph-name="invcircle" unicode="&#x25d9;" horiz-adv-x="604" 
d="M302 644c-150 0 -279 -127 -279 -275c0 -155 125 -283 277 -283c154 0 281 126 281 279c0 152 -127 279 -279 279zM666 0h-729v729h729v-729zM302 595c127 0 230 -103 230 -230c0 -128 -103 -230 -232 -230c-126 0 -228 104 -228 234c0 122 105 226 230 226z" />
    <glyph glyph-name="filledrect" unicode="&#x25ac;" horiz-adv-x="1000" 
d="M136 0v365h729v-365h-729z" />
    <glyph glyph-name="filledbox" unicode="&#x25a0;" horiz-adv-x="604" 
d="M-63 729h729v-729h-729v729z" />
    <glyph glyph-name="uni25A1" unicode="&#x25a1;" horiz-adv-x="604" 
d="M43 0v519h519v-519h-519zM510 52v415h-415v-415h415z" />
    <glyph glyph-name="triagup" unicode="&#x25b2;" horiz-adv-x="990" 
d="M795 67h-600l300 561z" />
    <glyph glyph-name="arrowright" unicode="&#x2192;" horiz-adv-x="1000" 
d="M85 281v60h662c-19 26 -31 44 -42 67c-8 16 -20 49 -20 55c0 9 8 16 18 16c7 0 11 -2 19 -11c51 -60 78 -82 179 -141c8 -5 12 -10 12 -18c0 -7 -7 -13 -27 -24c-73 -41 -117 -75 -157 -122c-15 -17 -18 -20 -26 -20c-10 0 -18 7 -18 16c0 18 38 93 62 122h-662z" />
    <glyph glyph-name="arrowleft" unicode="&#x2190;" horiz-adv-x="1000" 
d="M913 281h-662c24 -29 62 -104 62 -122c0 -9 -8 -16 -18 -16c-8 0 -11 3 -26 20c-40 47 -84 81 -157 122c-20 11 -27 17 -27 24c0 9 2 12 20 22c97 58 121 77 171 137c8 9 12 11 19 11c10 0 18 -7 18 -16c0 -8 -14 -44 -24 -63c-11 -20 -21 -36 -38 -59h662v-60z" />
    <glyph glyph-name="arrowboth" unicode="&#x2194;" horiz-adv-x="1000" 
d="M713 280h-427c21 -28 32 -46 43 -67c8 -16 20 -48 20 -54c0 -9 -8 -16 -18 -16c-9 0 -10 1 -28 22c-44 51 -75 75 -169 130c-8 5 -12 10 -12 18c0 7 7 13 27 24c74 42 116 75 156 122c15 17 18 20 26 20c10 0 18 -7 18 -15c0 -19 -36 -91 -63 -124h427
c-25 30 -62 105 -62 123c0 9 8 16 18 16c8 0 12 -3 26 -20c39 -46 83 -80 156 -122c21 -12 27 -17 27 -24c0 -10 -2 -13 -19 -22c-95 -57 -122 -78 -171 -137c-8 -9 -12 -11 -19 -11c-10 0 -18 7 -18 17c0 19 29 75 62 120z" />
    <glyph glyph-name="arrowup" unicode="&#x2191;" horiz-adv-x="500" 
d="M210 -107v662c-30 -24 -104 -62 -122 -62c-9 0 -16 8 -16 18c0 8 3 11 20 26c47 40 81 84 122 157c11 20 17 27 24 27c9 0 12 -2 22 -20c58 -97 77 -121 137 -171c9 -8 11 -12 11 -19c0 -10 -7 -18 -16 -18c-8 0 -44 14 -63 24c-20 11 -36 21 -59 38v-662h-60z" />
    <glyph glyph-name="arrowdown" unicode="&#x2193;" horiz-adv-x="500" 
d="M210 721h60v-662c26 19 44 31 67 42c16 8 49 20 55 20c9 0 16 -8 16 -18c0 -7 -2 -11 -11 -19c-60 -50 -82 -78 -141 -179c-5 -8 -10 -12 -18 -12c-7 0 -13 7 -24 27c-41 73 -75 117 -122 157c-17 15 -20 18 -20 26c0 10 7 18 16 18c18 0 93 -38 122 -62v662z" />
    <glyph glyph-name="arrowupdn" unicode="&#x2195;" horiz-adv-x="500" 
d="M218 129v426c-28 -21 -46 -32 -67 -43c-16 -8 -48 -20 -54 -20c-9 0 -16 8 -16 18c0 9 1 10 22 28c51 44 75 75 130 169c5 8 10 12 18 12c7 0 13 -7 24 -27c42 -74 75 -116 122 -156c17 -15 20 -18 20 -26c0 -10 -7 -18 -15 -18c-20 0 -91 36 -124 63v-426
c30 24 105 61 123 61c9 0 16 -8 16 -18c0 -8 -3 -12 -20 -26c-46 -39 -80 -83 -122 -156c-12 -21 -17 -27 -24 -27c-10 0 -13 2 -22 19c-57 95 -78 122 -137 171c-9 8 -11 12 -11 19c0 10 7 18 17 18c19 0 75 -29 120 -61z" />
    <glyph glyph-name="arrowupdnbse" unicode="&#x21a8;" horiz-adv-x="500" 
d="M120 -68h264v-43h-264v43zM218 196v426c-28 -21 -46 -32 -67 -43c-16 -8 -48 -20 -54 -20c-9 0 -16 8 -16 18c0 9 1 10 22 28c51 44 75 75 130 169c5 8 10 12 18 12c7 0 13 -7 24 -27c42 -74 75 -116 122 -156c17 -15 20 -18 20 -26c0 -10 -7 -18 -15 -18
c-20 0 -91 36 -124 63v-426c30 24 105 61 123 61c9 0 16 -8 16 -18c0 -8 -3 -12 -20 -26c-46 -39 -80 -83 -122 -156c-12 -21 -17 -27 -24 -27c-10 0 -13 2 -22 19c-57 95 -78 122 -137 171c-9 8 -11 12 -11 19c0 10 7 18 17 18c19 0 75 -29 120 -61z" />
    <glyph glyph-name="lozenge" unicode="&#x25ca;" horiz-adv-x="471" 
d="M261 744l192 -372l-192 -372h-62l-192 372l192 372h62zM231 60l160 312l-160 312l-161 -312z" />
    <glyph glyph-name="triagdn" unicode="&#x25bc;" horiz-adv-x="990" 
d="M195 600h600l-300 -561z" />
    <glyph glyph-name="H18533" unicode="&#x25cf;" horiz-adv-x="604" 
d="M307 519c139 0 255 -118 255 -259c0 -144 -116 -260 -259 -260c-145 0 -260 116 -260 262c0 143 117 257 264 257z" />
    <glyph glyph-name="carriagereturn" unicode="&#x21b5;" horiz-adv-x="1000" 
d="M884 522v-244h-623l210 -82l-23 -52l-286 128v77l286 127l23 -53l-210 -81h559v180h64z" />
    <glyph glyph-name="angleleft" unicode="&#x2329;" horiz-adv-x="333" 
d="M58 238l174 340c10 18 18 24 30 24c8 0 13 -4 13 -12c0 -7 -2 -15 -5 -23l-131 -329l131 -329c3 -8 5 -16 5 -23s-5 -11 -13 -11c-12 0 -22 7 -30 23z" />
    <glyph glyph-name="angleright" unicode="&#x232a;" horiz-adv-x="333" 
d="M275 238l-174 -340c-10 -17 -18 -23 -30 -23c-8 0 -13 4 -13 12c0 7 2 15 5 22l131 329l-131 329c-3 9 -5 17 -5 23c0 8 5 12 13 12c12 0 21 -7 30 -24z" />
    <glyph glyph-name="universal" unicode="&#x2200;" horiz-adv-x="278" 
d="M268 467l68 200h95l-234 -667h-110l-238 667h91l70 -200h258zM244 396h-212l109 -304z" />
    <glyph glyph-name="aleph" unicode="&#x2135;" horiz-adv-x="500" 
d="M299 292l67 158h-40c-31 0 -45 3 -55 14c-14 12 -22 37 -22 64c0 39 14 72 43 103v-16c0 -32 14 -43 52 -43h68c44 0 61 -20 61 -71c0 -29 -4 -55 -13 -86c-4 25 -14 35 -36 35h-22l-44 -106c-12 -32 -15 -46 -15 -64c0 -33 10 -54 47 -101l39 -49c25 -32 33 -50 33 -71
c0 -20 -5 -38 -15 -59l-299 376c-19 -35 -23 -47 -23 -66c0 -30 12 -57 46 -103c55 -74 64 -93 64 -133c0 -59 -22 -74 -110 -74h-82v61h18c22 0 35 10 35 28c0 11 0 11 -26 54c-20 35 -29 58 -29 78c0 19 10 48 28 81l56 105l-70 87c-20 25 -27 41 -27 60c0 21 5 41 15 63z
" />
    <glyph glyph-name="existential" unicode="&#x2203;" horiz-adv-x="426" 
d="M-42 688h477v-688h-481v79h390v238h-360v74h360v218h-386v79z" />
    <glyph glyph-name="Ifraktur" unicode="&#x2111;" horiz-adv-x="722" 
d="M480 234l-60 77c-16 21 -28 56 -28 82c0 39 16 64 73 109c-43 12 -95 18 -162 18c-97 0 -148 -22 -148 -65c0 -17 6 -29 21 -38c13 -7 13 -7 65 -25c27 -9 47 -34 47 -59s-13 -49 -43 -81c-3 44 -12 56 -72 99c-37 28 -53 59 -53 104c0 97 78 154 211 154
c81 0 166 -15 259 -47l-2 -14c-83 -58 -106 -86 -106 -129c0 -35 7 -48 60 -106c47 -51 66 -90 66 -134c0 -50 -25 -98 -67 -126c-51 -34 -125 -63 -161 -63c-15 0 -32 5 -57 17l-67 33c-18 9 -35 13 -50 13s-29 -4 -57 -15l-10 8c50 65 72 84 97 84c14 0 28 -4 53 -16
l94 -45c42 -20 51 -23 71 -23c36 0 65 43 65 96c0 32 -9 53 -39 92z" />
    <glyph glyph-name="Rfraktur" unicode="&#x211c;" horiz-adv-x="778" 
d="M116 12l-17 5c22 65 49 94 90 94c20 0 33 -6 57 -23c8 -5 14 -8 20 -8c9 0 23 17 30 37c10 29 13 54 13 110v148v10v10c0 89 -37 142 -98 142c-52 0 -92 -41 -92 -95c0 -26 11 -48 32 -65c8 -7 8 -7 63 -35c31 -16 45 -33 45 -55c0 -26 -12 -50 -45 -89l-11 3
c2 10 3 18 3 24c0 25 -18 46 -57 68c-59 33 -77 62 -77 123c0 105 78 188 176 188c51 0 97 -25 124 -67c43 45 88 66 144 66c84 0 148 -61 148 -141c0 -53 -40 -90 -134 -123c29 -18 42 -39 58 -96l29 -111c9 -38 20 -51 41 -51c6 0 11 2 22 6l13 -14
c-39 -49 -82 -79 -115 -79c-19 0 -34 23 -45 67l-42 168c-12 48 -15 56 -28 64c-10 7 -23 10 -45 10c-3 0 -9 0 -16 -1v-57c0 -69 -15 -127 -44 -171c-33 -49 -74 -78 -113 -78c-27 0 -27 0 -74 31c-7 5 -16 8 -26 8c-11 0 -19 -7 -29 -23zM402 376v-37c62 15 80 21 109 36
c30 16 49 47 49 80c0 50 -39 86 -94 86c-31 0 -49 -6 -78 -27c12 -43 14 -55 14 -138z" />
    <glyph glyph-name="gradient" unicode="&#x2207;" horiz-adv-x="741" 
d="M69 630h604l-259 -630h-88zM370 102l183 455h-365z" />
    <glyph glyph-name="Delta" unicode="&#x2206;" horiz-adv-x="612" 
d="M-26 0l281 729h100l283 -729h-664zM305 616l-198 -534h397z" />
    <glyph glyph-name="arrowdbldown" unicode="&#x21d3;" horiz-adv-x="722" 
d="M361 71l71 82v495h42v-446l52 60h57l-222 -262l-222 262h57l52 -60v446h42v-495z" />
    <glyph glyph-name="arrowdblup" unicode="&#x21d1;" horiz-adv-x="722" 
d="M361 577l-71 -82v-495h-42v446l-52 -60h-57l222 262l222 -262h-57l-52 60v-446h-42v495z" />
    <glyph glyph-name="notequal" unicode="&#x2260;" horiz-adv-x="549" 
d="M157 111h-125v70h164l57 102h-221v70h260l76 133l50 -28l-59 -105h157v-70h-196l-57 -102h253v-70h-292l-76 -136l-51 29z" />
    <glyph glyph-name="equivalence" unicode="&#x2261;" horiz-adv-x="583" 
d="M534 267v-70h-484v70h484zM534 95v-70h-484v70h484zM534 439v-70h-484v70h484z" />
    <glyph glyph-name="radical" unicode="&#x221a;" horiz-adv-x="453" 
d="M432 913l36 -5l-152 -944l-241 497l-94 -46l-18 33l148 73l193 -396z" />
    <glyph glyph-name="integral" unicode="&#x222b;" horiz-adv-x="274" 
d="M188 523v-229c0 -173 -5 -246 -21 -310c-14 -58 -45 -89 -89 -89c-35 0 -63 24 -63 55c0 27 22 49 48 49c14 0 25 -5 35 -15c11 -11 13 -12 19 -12c12 0 18 10 18 28c0 12 -2 34 -6 76c-10 105 -14 166 -14 210v228c0 177 5 246 21 310c14 58 45 89 88 89
c35 0 63 -24 63 -54c0 -28 -21 -50 -48 -50c-13 0 -25 5 -35 15c-10 11 -13 12 -19 12c-12 0 -18 -10 -18 -28c0 -12 2 -34 6 -76c9 -93 15 -172 15 -209z" />
    <glyph glyph-name="integraltp" unicode="&#x2320;" horiz-adv-x="604" 
d="M339 -218h-73v732c0 177 5 246 21 310c14 58 45 89 88 89c35 0 63 -24 63 -54c0 -28 -21 -50 -48 -50c-13 0 -25 5 -35 15c-10 11 -13 12 -19 12c-12 0 -18 -10 -18 -28c0 -12 2 -34 6 -76c9 -93 15 -172 15 -209v-741z" />
    <glyph glyph-name="integralbt" unicode="&#x2321;" horiz-adv-x="604" 
d="M265 913h73v-732c0 -177 -5 -246 -21 -310c-14 -58 -45 -89 -88 -89c-35 0 -63 24 -63 54c0 28 21 50 48 50c13 0 25 -5 35 -15c10 -11 13 -12 19 -12c12 0 18 10 18 28c0 12 -2 34 -6 76c-9 93 -15 172 -15 209v741z" />
    <glyph glyph-name="approxequal" unicode="&#x2248;" horiz-adv-x="549" 
d="M479 388l38 -36c-34 -49 -36 -51 -49 -67c-22 -27 -51 -42 -81 -42c-27 0 -33 2 -116 34c-58 22 -84 29 -106 29c-40 0 -66 -21 -96 -76l-37 36c24 38 31 48 43 64c26 34 58 52 93 52c25 0 58 -10 123 -36c57 -23 71 -27 97 -27c39 0 61 16 91 69zM479 228l38 -36
c-34 -49 -36 -51 -49 -67c-22 -27 -51 -42 -81 -42c-27 0 -33 2 -116 34c-58 22 -84 29 -106 29c-40 0 -66 -21 -96 -76l-37 36c24 38 31 48 43 64c26 34 58 52 93 52c25 0 58 -10 123 -36c57 -23 71 -27 97 -27c39 0 61 16 91 69z" />
    <glyph glyph-name="lessequal" unicode="&#x2264;" horiz-adv-x="549" 
d="M517 56v-67h-489v67h489zM28 363v69l489 207v-79l-394 -161l394 -164v-79z" />
    <glyph glyph-name="greaterequal" unicode="&#x2265;" horiz-adv-x="549" 
d="M517 56v-67h-489v67h489zM517 432v-69l-489 -207v79l394 161l-394 164v79z" />
    <glyph glyph-name="revlogicalnot" unicode="&#x2310;" horiz-adv-x="584" 
d="M544 375v-70h-434v-219h-70v289h504z" />
    <glyph glyph-name="union" unicode="&#x222a;" horiz-adv-x="1000" 
d="M720 559v-246c0 -149 -6 -181 -39 -226c-41 -56 -105 -87 -181 -87c-83 0 -153 37 -191 102c-24 40 -29 74 -29 211v246h60v-249c0 -112 6 -153 29 -186c28 -40 79 -65 131 -65c59 0 115 32 140 80c15 29 20 70 20 171v249h60z" />
    <glyph glyph-name="intersection" unicode="&#x2229;" horiz-adv-x="719" 
d="M599 0h-70v272c0 126 -6 167 -29 203c-29 46 -84 75 -141 75c-61 0 -119 -34 -146 -84c-18 -34 -24 -81 -24 -194v-272h-70v269c0 162 6 198 43 247c45 62 114 95 197 95c90 0 167 -41 209 -111c26 -44 31 -82 31 -231v-269z" />
    <glyph glyph-name="element" unicode="&#x2208;" horiz-adv-x="1000" 
d="M767 216h-462c6 -106 62 -156 171 -154h291v-62h-280c-69 0 -96 4 -130 18c-79 34 -124 117 -124 233c0 95 34 168 99 211c37 25 72 32 155 32h280v-62h-291c-109 2 -165 -48 -171 -155h462v-61z" />
    <glyph glyph-name="perpendicular" unicode="&#x22a5;" horiz-adv-x="1000" 
d="M470 598h61v-537h268v-61h-598v61h269v537z" />
    <glyph glyph-name="infinity" unicode="&#x221e;" horiz-adv-x="713" 
d="M356 297c49 43 53 47 73 61c36 28 83 46 119 46c77 0 140 -63 140 -140s-63 -140 -140 -140c-37 0 -82 18 -119 46c-19 14 -24 18 -73 61c-48 -43 -52 -47 -72 -61c-37 -29 -82 -46 -119 -46c-77 0 -140 63 -140 140s63 140 140 140c36 0 82 -18 119 -46
c20 -15 24 -18 72 -61zM392 264c57 -57 113 -89 155 -89c49 0 89 40 89 89c0 48 -40 88 -89 88c-42 0 -98 -32 -155 -88zM321 264c-57 57 -113 88 -155 88c-49 0 -89 -40 -89 -88s40 -88 89 -88c42 0 98 32 155 88z" />
    <glyph glyph-name="proportional" unicode="&#x221d;" horiz-adv-x="1000" 
d="M682 167v-62c-60 -3 -124 34 -180 103c-16 -19 -21 -24 -29 -32c-40 -45 -93 -70 -145 -70c-78 0 -131 55 -131 135c0 81 56 138 134 138c59 0 117 -34 171 -102c50 66 108 102 168 102h12v-61h-6c-43 0 -80 -22 -126 -75c53 -58 83 -75 132 -76zM453 243
c-9 9 -9 9 -19 18c-48 45 -71 57 -105 57c-45 0 -73 -29 -73 -75s27 -76 67 -76c41 0 74 18 120 65c6 6 6 6 10 11z" />
    <glyph glyph-name="congruent" unicode="&#x2245;" horiz-adv-x="278" 
d="M379 273v-51h-481v51h481zM379 147v-50h-481v50h481zM336 435l36 -31c-29 -52 -72 -78 -132 -78c-29 0 -31 0 -104 23c-83 24 -83 24 -103 24c-35 0 -48 -9 -90 -57l-40 31c36 52 79 77 132 77c26 0 44 -4 114 -25c62 -19 74 -22 91 -22c36 0 54 11 96 58z" />
    <glyph glyph-name="uni222E" unicode="&#x222e;" horiz-adv-x="1000" 
d="M455 571v80c1 113 1 113 9 140c15 52 66 85 131 85c23 0 38 -2 68 -11l-17 -80c-17 8 -27 10 -41 10c-27 0 -46 -12 -54 -35c-4 -11 -5 -30 -5 -70v-119c96 -21 163 -104 163 -202c0 -97 -67 -181 -163 -202v-97c0 -120 -3 -140 -24 -170c-25 -35 -74 -54 -136 -54
c-21 0 -30 2 -48 9l17 80c18 -9 27 -11 41 -11c27 0 47 13 54 35c4 13 5 16 5 95v113c-93 21 -161 106 -161 202c0 97 65 179 161 202zM546 522v-305c70 21 115 81 115 152s-47 133 -115 153zM455 217v304c-68 -21 -113 -82 -113 -152s46 -132 113 -152z" />
    <glyph glyph-name="therefore" unicode="&#x2234;" horiz-adv-x="1000" 
d="M502 549c32 0 55 -24 55 -57c0 -32 -24 -57 -57 -57s-57 24 -57 57c0 34 23 57 59 57zM255 114c31 0 55 -25 55 -57c0 -33 -24 -57 -57 -57s-57 24 -57 57c0 34 24 57 59 57zM749 114c31 0 55 -25 55 -57c0 -33 -24 -57 -57 -57s-57 24 -57 57c0 34 24 57 59 57z" />
    <glyph glyph-name="uni2235" unicode="&#x2235;" horiz-adv-x="1000" 
d="M501 124c35 0 61 -27 61 -62c0 -36 -25 -62 -61 -62c-38 0 -63 25 -63 62c0 36 27 62 63 62zM231 598c35 0 61 -27 61 -62c0 -36 -26 -62 -61 -62c-37 0 -63 26 -63 62s26 62 63 62zM771 598c35 0 61 -27 61 -62c0 -36 -26 -62 -61 -62c-37 0 -63 26 -63 62s26 62 63 62z
" />
    <glyph glyph-name="product" unicode="&#x220f;" horiz-adv-x="823" 
d="M24 735v25h775v-25c-79 -3 -97 -21 -96 -100v-597c-1 -79 17 -97 96 -100v-25h-306v25c79 3 97 21 96 100v668h-355v-668c-1 -79 17 -97 96 -100v-25h-306v25c79 3 97 21 96 100v597c1 79 -17 97 -96 100z" />
    <glyph glyph-name="summation" unicode="&#x2211;" horiz-adv-x="600" 
d="M529 753l6 -159h-19c-20 90 -45 111 -130 113h-231l238 -354l-256 -336h301c88 -1 104 12 138 113h22c-13 -55 -21 -96 -24 -121c-4 -27 -7 -53 -11 -79c0 -2 -1 -8 -3 -18h-559l304 397l-304 444h528z" />
    <glyph glyph-name="afii61289" unicode="&#x2113;" horiz-adv-x="323" 
d="M130 292c-15 -80 -34 -205 -34 -231c0 -19 7 -28 21 -28c20 0 35 16 56 61c7 14 13 19 21 19c7 0 13 -6 13 -13c0 -12 -7 -32 -20 -53c-25 -44 -54 -65 -89 -65c-46 0 -73 34 -73 90c0 31 2 57 14 149c-26 -26 -56 -50 -63 -50c-6 0 -13 9 -13 16s6 14 23 30
c13 11 33 31 61 62c60 318 126 460 212 460c39 0 65 -34 65 -86c0 -57 -25 -134 -66 -203c-26 -45 -65 -92 -128 -158zM140 347c61 67 96 122 121 189c15 41 25 90 25 120c0 26 -11 43 -28 43c-45 0 -73 -85 -118 -352z" />
    <glyph glyph-name="partialdiff" unicode="&#x2202;" horiz-adv-x="476" 
d="M102 670l-40 52c40 18 87 28 132 28c153 0 264 -145 264 -345c0 -104 -28 -234 -66 -302c-43 -77 -104 -118 -180 -118c-107 0 -190 85 -190 194c0 65 28 132 74 179c34 34 73 50 122 50c54 0 81 -12 150 -65c9 59 11 83 11 113c0 73 -21 148 -55 195
c-24 34 -63 52 -110 52c-38 0 -38 0 -112 -33zM361 304c-26 41 -63 63 -105 63c-81 0 -147 -96 -147 -212c0 -87 33 -138 89 -138c55 0 100 44 127 122c15 44 23 77 36 165z" />
    <glyph glyph-name="circlemultiply" unicode="&#x2297;" horiz-adv-x="1000" 
d="M506 629c168 0 309 -143 309 -314c0 -174 -141 -315 -314 -315c-175 0 -315 141 -315 317c0 173 142 312 320 312zM500 357l159 159c-44 35 -101 55 -159 55s-115 -20 -159 -55zM458 315l-159 159c-37 -48 -55 -101 -55 -159s19 -112 55 -159zM542 315l159 -159
c35 45 54 101 54 159s-18 112 -54 159zM500 273l-159 -159c42 -35 100 -55 159 -55s117 20 159 55z" />
    <glyph glyph-name="weierstrass" unicode="&#x2118;" horiz-adv-x="648" 
d="M294 402l11 -16c-94 -55 -133 -109 -133 -184c0 -22 3 -40 12 -59c157 164 224 211 303 211c58 0 98 -46 98 -115c0 -55 -22 -111 -63 -158c-47 -55 -104 -88 -154 -88c-51 0 -87 32 -87 78c0 38 24 69 53 69c17 0 29 -12 29 -28c0 -19 -15 -34 -37 -36
c-14 -1 -21 -8 -21 -21c0 -23 28 -44 59 -44c33 0 71 24 96 63c34 50 58 127 58 181c0 44 -22 74 -56 74c-36 0 -73 -19 -135 -72c-56 -46 -95 -85 -134 -134c41 -85 56 -132 56 -172c0 -67 -43 -120 -97 -120c-49 0 -86 40 -86 94c0 41 15 74 66 149c-16 42 -23 70 -23 96
c0 81 63 160 185 232zM141 54c-50 -76 -57 -92 -57 -131c0 -43 27 -74 64 -74c30 0 51 22 51 53c0 33 -17 77 -58 152z" />
    <glyph glyph-name="notsubset" unicode="&#x2284;" horiz-adv-x="1000" 
d="M425 2l-38 -65l-41 26l28 49c-90 29 -141 115 -141 239c0 95 34 168 98 211c38 25 73 32 156 32h170l43 73l42 -25l-28 -48h53v-62h-90l-217 -370h16h291v-62h-280c-34 0 -40 0 -62 2zM621 432h-145c-121 0 -173 -56 -173 -185c0 -101 34 -159 105 -178z" />
    <glyph glyph-name="angle" unicode="&#x2220;" horiz-adv-x="1000" 
d="M643 417l29 -33l-352 -342h469v-42h-578z" />
    <glyph glyph-name="propersuperset" unicode="&#x2283;" horiz-adv-x="1000" 
d="M233 62h291c121 0 173 55 173 185s-52 185 -173 185h-291v62h280c69 0 96 -4 130 -18c78 -33 124 -118 124 -229c0 -99 -33 -172 -98 -215c-38 -25 -73 -32 -156 -32h-280v62z" />
    <glyph glyph-name="propersubset" unicode="&#x2282;" horiz-adv-x="1000" 
d="M767 62v-62h-280c-69 0 -96 4 -130 18c-79 34 -124 118 -124 233c0 96 34 168 99 211c37 25 72 32 155 32h280v-62h-291c-121 0 -173 -56 -173 -185c0 -130 52 -185 173 -185h291z" />
    <glyph glyph-name="reflexsuperset" unicode="&#x2287;" horiz-adv-x="1000" 
d="M233 166h291c121 0 173 56 173 186s-52 185 -173 185h-291v62h280c69 0 96 -4 130 -18c78 -33 124 -118 124 -230c0 -99 -33 -172 -98 -215c-38 -25 -73 -32 -156 -32h-280v62zM767 55v-55h-534v55h534z" />
    <glyph glyph-name="reflexsubset" unicode="&#x2286;" horiz-adv-x="1000" 
d="M767 166v-62h-280c-90 0 -127 9 -167 41c-59 46 -87 113 -87 210c0 96 34 169 99 212c37 25 72 32 155 32h280v-62h-291c-121 0 -173 -56 -173 -185c0 -130 52 -186 173 -186h291zM767 55v-55h-534v55h534z" />
    <glyph glyph-name="notelement" unicode="&#x2209;" horiz-adv-x="1000" 
d="M528 216l-87 -153c9 -1 15 -1 35 -1h291v-62h-280c-42 0 -54 1 -80 4l-38 -67l-43 23l33 57c-81 34 -126 118 -126 234c0 95 34 168 98 211c38 25 73 32 156 32h143l47 83l42 -24l-33 -59h81v-62h-116l-88 -155h204v-61h-239zM472 216h-167c3 -72 34 -123 86 -141z
M595 432h-119c-109 2 -165 -48 -171 -155h202z" />
    <glyph glyph-name="arrowdblleft" unicode="&#x21d0;" horiz-adv-x="722" 
d="M79 295l82 -71h552v-42h-503l60 -52v-57l-262 222l262 223v-58l-60 -52h503v-42h-552z" />
    <glyph glyph-name="arrowdblright" unicode="&#x21d2;" horiz-adv-x="722" 
d="M643 295l-82 71h-552v42h503l-60 52v58l262 -223l-262 -222v57l60 52h-503v42h552z" />
    <glyph glyph-name="arrowdblboth" unicode="&#x21d4;" horiz-adv-x="722" 
d="M203 408h314l-60 52v58l262 -223l-262 -222v57l60 52h-314l60 -52v-57l-262 222l262 223v-58zM154 366l-82 -71l82 -71h412l82 71l-82 71h-412z" />
    <glyph glyph-name="underscoredbl" unicode="&#x2017;" horiz-adv-x="552" 
d="M576 -226v-50h-600v50h600zM576 -126v-50h-600v50h600z" />
    <glyph glyph-name="uni203E" unicode="&#x203e;" horiz-adv-x="333" 
d="M466 905v-50h-600v50h600z" />
    <glyph glyph-name="emptyset" unicode="&#x2205;" horiz-adv-x="1000" 
d="M104 38l121 101c-39 61 -58 124 -58 194c0 191 152 346 340 346c92 0 174 -35 242 -103l110 93l32 -38l-111 -92c44 -63 66 -131 66 -207c0 -190 -152 -345 -339 -345c-97 0 -183 39 -252 114l-120 -100zM263 171l449 375c-57 58 -127 89 -205 89
c-160 0 -290 -135 -290 -302c0 -58 14 -110 46 -162zM743 508l-451 -377c58 -66 132 -100 215 -100c159 0 289 135 289 301c0 63 -19 125 -53 176z" />
    <glyph glyph-name="exclamdbl" unicode="&#x203c;" horiz-adv-x="500" 
d="M195 729v-338l-22 -223h-40l-21 223v338h83zM195 104v-104h-84v104h84zM444 729v-338l-22 -223h-40l-21 223v338h83zM444 104v-104h-84v104h84z" />
    <glyph glyph-name="uni2225" unicode="&#x2225;" horiz-adv-x="722" 
d="M471 0h-67v668h67v-668zM318 668v-668h-67v668h67z" />
    <glyph glyph-name="H18543" unicode="&#x25aa;" horiz-adv-x="354" 
d="M49 131v256h256v-256h-256z" />
    <glyph glyph-name="H18551" unicode="&#x25ab;" horiz-adv-x="354" 
d="M49 131v257h256v-257h-256zM253 183v153h-152v-153h152z" />
    <glyph glyph-name="orthogonal" unicode="&#x221f;" horiz-adv-x="979" 
d="M50 0v870h66v-804h814v-66h-880z" />
    <glyph glyph-name="ltshade" unicode="&#x2591;" horiz-adv-x="708" 
d="M-146 750h100v-100h-100v100zM54 750h100v-100h-100v100zM654 750h100v-100h-100v100zM254 750h100v-100h-100v100zM454 750h100v-100h-100v100zM-146 550h100v-100h-100v100zM-146 350h100v-100h-100v100zM-146 150h100v-100h-100v100zM-146 -50h100v-100h-100v100z
M54 550h100v-100h-100v100zM54 350h100v-100h-100v100zM54 150h100v-100h-100v100zM54 -50h100v-100h-100v100zM254 550h100v-100h-100v100zM254 350h100v-100h-100v100zM254 150h100v-100h-100v100zM254 -50h100v-100h-100v100zM454 550h100v-100h-100v100zM454 350h100
v-100h-100v100zM454 150h100v-100h-100v100zM454 -50h100v-100h-100v100zM654 550h100v-100h-100v100zM654 350h100v-100h-100v100zM654 150h100v-100h-100v100zM654 -50h100v-100h-100v100z" />
    <glyph glyph-name="shade" unicode="&#x2592;" horiz-adv-x="708" 
d="M-146 750h100v-100h-100v100zM54 750h100v-100h-100v100zM654 750h100v-100h-100v100zM254 750h100v-100h-100v100zM454 750h100v-100h-100v100zM-46 650h100v-100h-100v100zM154 650h100v-100h-100v100zM354 650h100v-100h-100v100zM554 650h100v-100h-100v100zM754 650
h100v-100h-100v100zM-146 -50h100v-100h-100v100zM54 -50h100v-100h-100v100zM654 -50h100v-100h-100v100zM254 -50h100v-100h-100v100zM454 -50h100v-100h-100v100zM-46 -150h100v-100h-100v100zM154 -150h100v-100h-100v100zM354 -150h100v-100h-100v100zM554 -150h100
v-100h-100v100zM754 -150h100v-100h-100v100zM-146 150h100v-100h-100v100zM54 150h100v-100h-100v100zM654 150h100v-100h-100v100zM254 150h100v-100h-100v100zM454 150h100v-100h-100v100zM-46 50h100v-100h-100v100zM154 50h100v-100h-100v100zM354 50h100v-100h-100
v100zM554 50h100v-100h-100v100zM754 50h100v-100h-100v100zM-146 350h100v-100h-100v100zM54 350h100v-100h-100v100zM654 350h100v-100h-100v100zM254 350h100v-100h-100v100zM454 350h100v-100h-100v100zM-46 250h100v-100h-100v100zM154 250h100v-100h-100v100zM354 250
h100v-100h-100v100zM554 250h100v-100h-100v100zM754 250h100v-100h-100v100zM-146 550h100v-100h-100v100zM54 550h100v-100h-100v100zM654 550h100v-100h-100v100zM254 550h100v-100h-100v100zM454 550h100v-100h-100v100zM-46 450h100v-100h-100v100zM154 450h100v-100
h-100v100zM354 450h100v-100h-100v100zM554 450h100v-100h-100v100zM754 450h100v-100h-100v100z" />
    <glyph glyph-name="dkshade" unicode="&#x2593;" horiz-adv-x="729" 
d="M864 -250h-1000v100h100v100h-100v100h100v100h-100v100h100v100h-100v100h100v100h-100v100h100v100h100v-100h100v100h100v-100h100v100h100v-100h100v100h100v-100h100v100h100v-1000zM764 550h-100v-100h100v100zM564 550h-100v-100h100v100zM364 550h-100v-100h100
v100zM164 550h-100v-100h100v100zM764 350h-100v-100h100v100zM564 350h-100v-100h100v100zM364 350h-100v-100h100v100zM164 350h-100v-100h100v100zM764 150h-100v-100h100v100zM564 150h-100v-100h100v100zM364 150h-100v-100h100v100zM164 150h-100v-100h100v100z
M764 -50h-100v-100h100v100zM564 -50h-100v-100h100v100zM364 -50h-100v-100h100v100zM164 -50h-100v-100h100v100z" />
    <glyph glyph-name="SF110000" unicode="&#x2502;" horiz-adv-x="625" 
d="M280 -250v1000h66v-1000h-66z" />
    <glyph glyph-name="SF090000" unicode="&#x2524;" horiz-adv-x="708" 
d="M321 217h-467v66h467v467h66v-1000h-66v467z" />
    <glyph glyph-name="SF190000" unicode="&#x2561;" horiz-adv-x="708" 
d="M321 349v401h66v-1000h-66v401h-467v66h467v66h-467v66h467z" />
    <glyph glyph-name="SF200000" unicode="&#x2562;" horiz-adv-x="708" 
d="M255 217h-401v66h401v467h66v-1000h-66v467zM387 -250v1000h66v-1000h-66z" />
    <glyph glyph-name="SF210000" unicode="&#x2556;" horiz-adv-x="708" 
d="M321 217v-467h-66v467h-401v66h599v-533h-66v467h-66z" />
    <glyph glyph-name="SF220000" unicode="&#x2555;" horiz-adv-x="708" 
d="M321 151h-467v66h467v66h-467v66h533v-599h-66v401z" />
    <glyph glyph-name="SF230000" unicode="&#x2563;" horiz-adv-x="708" 
d="M453 -250h-66v1000h66v-1000zM255 349v401h66v-467h-467v66h401zM255 151h-401v66h467v-467h-66v401z" />
    <glyph glyph-name="SF240000" unicode="&#x2551;" horiz-adv-x="708" 
d="M255 -250v1000h66v-1000h-66zM387 -250v1000h66v-1000h-66z" />
    <glyph glyph-name="SF250000" unicode="&#x2557;" horiz-adv-x="708" 
d="M387 283h-533v66h599v-599h-66v533zM255 151h-401v66h467v-467h-66v401z" />
    <glyph glyph-name="SF260000" unicode="&#x255d;" horiz-adv-x="708" 
d="M387 217v533h66v-599h-599v66h533zM255 349v401h66v-467h-467v66h401z" />
    <glyph glyph-name="SF270000" unicode="&#x255c;" horiz-adv-x="708" 
d="M321 283h66v467h66v-533h-599v66h401v467h66v-467z" />
    <glyph glyph-name="SF280000" unicode="&#x255b;" horiz-adv-x="708" 
d="M321 349v401h66v-599h-533v66h467v66h-467v66h467z" />
    <glyph glyph-name="SF030000" unicode="&#x2510;" horiz-adv-x="708" 
d="M321 217h-467v66h533v-533h-66v467z" />
    <glyph glyph-name="SF020000" unicode="&#x2514;" horiz-adv-x="708" 
d="M387 283h467v-66h-533v533h66v-467z" />
    <glyph glyph-name="SF070000" unicode="&#x2534;" horiz-adv-x="708" 
d="M321 283v467h66v-467h467v-66h-1000v66h467z" />
    <glyph glyph-name="SF060000" unicode="&#x252c;" horiz-adv-x="708" 
d="M387 217v-467h-66v467h-467v66h1000v-66h-467z" />
    <glyph glyph-name="SF080000" unicode="&#x251c;" horiz-adv-x="708" 
d="M387 283h467v-66h-467v-467h-66v1000h66v-467z" />
    <glyph glyph-name="SF100000" unicode="&#x2500;" horiz-adv-x="708" 
d="M-146 217v66h1000v-66h-1000z" />
    <glyph glyph-name="SF050000" unicode="&#x253c;" horiz-adv-x="708" 
d="M321 217h-467v66h467v467h66v-467h467v-66h-467v-467h-66v467z" />
    <glyph glyph-name="SF360000" unicode="&#x255e;" horiz-adv-x="708" 
d="M321 750h66v-401h467v-66h-467v-66h467v-66h-467v-401h-66v1000z" />
    <glyph glyph-name="SF370000" unicode="&#x255f;" horiz-adv-x="708" 
d="M453 217v-467h-66v1000h66v-467h401v-66h-401zM321 -250h-66v1000h66v-1000z" />
    <glyph glyph-name="SF380000" unicode="&#x255a;" horiz-adv-x="708" 
d="M321 217h533v-66h-599v599h66v-533zM453 349h401v-66h-467v467h66v-401z" />
    <glyph glyph-name="SF390000" unicode="&#x2554;" horiz-adv-x="708" 
d="M321 283v-533h-66v599h599v-66h-533zM453 151v-401h-66v467h467v-66h-401z" />
    <glyph glyph-name="SF400000" unicode="&#x2569;" horiz-adv-x="708" 
d="M-146 151v66h1000v-66h-1000zM453 349h401v-66h-467v467h66v-401zM255 349v401h66v-467h-467v66h401z" />
    <glyph glyph-name="SF410000" unicode="&#x2566;" horiz-adv-x="708" 
d="M-146 349h1000v-66h-1000v66zM453 151v-401h-66v467h467v-66h-401zM255 151h-401v66h467v-467h-66v401z" />
    <glyph glyph-name="SF420000" unicode="&#x2560;" horiz-adv-x="708" 
d="M255 -250v1000h66v-1000h-66zM453 349h401v-66h-467v467h66v-401zM453 151v-401h-66v467h467v-66h-401z" />
    <glyph glyph-name="SF430000" unicode="&#x2550;" horiz-adv-x="708" 
d="M-146 151v66h1000v-66h-1000zM-146 283v66h1000v-66h-1000z" />
    <glyph glyph-name="SF440000" unicode="&#x256c;" horiz-adv-x="708" 
d="M453 349h401v-66h-467v467h66v-401zM255 349v401h66v-467h-467v66h401zM453 151v-401h-66v467h467v-66h-401zM255 151h-401v66h467v-467h-66v401z" />
    <glyph glyph-name="SF450000" unicode="&#x2567;" horiz-adv-x="708" 
d="M-146 151v66h1000v-66h-1000zM321 349v401h66v-401h467v-66h-1000v66h467z" />
    <glyph glyph-name="SF460000" unicode="&#x2568;" horiz-adv-x="708" 
d="M-146 217v66h401v467h66v-467h66v467h66v-467h401v-66h-1000z" />
    <glyph glyph-name="SF470000" unicode="&#x2564;" horiz-adv-x="708" 
d="M-146 349h1000v-66h-1000v66zM321 151h-467v66h1000v-66h-467v-401h-66v401z" />
    <glyph glyph-name="SF480000" unicode="&#x2565;" horiz-adv-x="708" 
d="M255 217h-401v66h1000v-66h-401v-467h-66v467h-66v-467h-66v467z" />
    <glyph glyph-name="SF490000" unicode="&#x2559;" horiz-adv-x="708" 
d="M387 283v467h66v-467h401v-66h-599v533h66v-467h66z" />
    <glyph glyph-name="SF500000" unicode="&#x2558;" horiz-adv-x="708" 
d="M321 750h66v-401h467v-66h-467v-66h467v-66h-533v599z" />
    <glyph glyph-name="SF510000" unicode="&#x2552;" horiz-adv-x="708" 
d="M321 -250v599h533v-66h-467v-66h467v-66h-467v-401h-66z" />
    <glyph glyph-name="SF520000" unicode="&#x2553;" horiz-adv-x="708" 
d="M387 217h-66v-467h-66v533h599v-66h-401v-467h-66v467z" />
    <glyph glyph-name="SF530000" unicode="&#x256b;" horiz-adv-x="708" 
d="M255 217h-401v66h401v467h66v-467h66v467h66v-467h401v-66h-401v-467h-66v467h-66v-467h-66v467z" />
    <glyph glyph-name="SF540000" unicode="&#x256a;" horiz-adv-x="708" 
d="M321 217v66h-467v66h467v401h66v-401h467v-66h-467v-66h467v-66h-467v-401h-66v401h-467v66h467z" />
    <glyph glyph-name="SF040000" unicode="&#x2518;" horiz-adv-x="708" 
d="M-146 217v66h467v467h66v-533h-533z" />
    <glyph glyph-name="SF010000" unicode="&#x250c;" horiz-adv-x="708" 
d="M854 283v-66h-467v-467h-66v533h533z" />
    <glyph glyph-name="block" unicode="&#x2588;" horiz-adv-x="708" 
d="M-146 -250v1000h1000v-1000h-1000z" />
    <glyph glyph-name="rtblock" unicode="&#x2590;" horiz-adv-x="708" 
d="M354 -250v1000h500v-1000h-500z" />
    <glyph glyph-name="lfblock" unicode="&#x258c;" horiz-adv-x="708" 
d="M-146 -250v1000h500v-1000h-500z" />
    <glyph glyph-name="dnblock" unicode="&#x2584;" horiz-adv-x="708" 
d="M-146 -250v500h1000v-500h-1000z" />
    <glyph glyph-name="upblock" unicode="&#x2580;" horiz-adv-x="708" 
d="M-146 250v500h1000v-500h-1000z" />
    <glyph glyph-name="minute" unicode="&#x2032;" horiz-adv-x="188" 
d="M161 673l-71 -256h-57l54 256h74z" />
    <glyph glyph-name="second" unicode="&#x2033;" horiz-adv-x="354" 
d="M178 673l-71 -256h-57l54 256h74zM311 673l-71 -256h-57l54 256h74z" />
    <glyph glyph-name="house" unicode="&#x2302;" horiz-adv-x="604" 
d="M41 0v401l261 328l261 -328v-401h-522zM92 51h420v328l-210 270l-210 -270v-328z" />
    <glyph glyph-name="uni2126" unicode="&#x2126;" horiz-adv-x="768" 
d="M539 82h201v-82h-301v78c58 32 86 53 117 86c54 61 82 136 82 222c0 81 -24 143 -78 199c-50 52 -102 74 -176 74s-126 -22 -176 -74c-54 -56 -78 -118 -78 -199c0 -92 32 -172 94 -234c28 -28 53 -46 105 -74v-78h-301v82h201c-131 75 -192 176 -192 315
c0 104 38 190 115 258c65 57 142 86 232 86s167 -29 232 -86c77 -68 115 -154 115 -258c0 -139 -61 -240 -192 -315z" />
    <glyph glyph-name="uni2285" unicode="&#x2285;" horiz-adv-x="1000" 
d="M310 0h-102v67h141l236 402c-17 3 -32 4 -59 4h-318v67h305c57 0 78 -2 109 -8l51 87l46 -26l-47 -80c78 -44 119 -128 119 -247c0 -105 -37 -186 -107 -232c-41 -26 -80 -34 -171 -34h-142l-40 -69l-45 29zM636 451l-225 -384h115c132 0 189 61 189 203
c0 92 -26 152 -79 181z" />
    <glyph glyph-name="uni2213" unicode="&#x2213;" horiz-adv-x="1000" 
d="M237 607v55h524v-55h-524zM528 0h-55v239h-237v55h237v239h55v-239h237v-55h-237v-239z" />
    <glyph glyph-name="uni2196" unicode="&#x2196;" horiz-adv-x="722" 
d="M194 565l436 -437l-42 -42l-436 437v-148h-61v251h250v-61h-147z" />
    <glyph glyph-name="uni2198" unicode="&#x2198;" horiz-adv-x="722" 
d="M528 147l-437 437l42 42l437 -437v148h61v-251h-251v61h148z" />
    <glyph glyph-name="uni2197" unicode="&#x2197;" horiz-adv-x="722" 
d="M528 565h-148v61h251v-251h-61v148l-437 -437l-42 42z" />
    <glyph glyph-name="uni2199" unicode="&#x2199;" horiz-adv-x="722" 
d="M194 147h147v-61h-250v251h61v-148l436 437l42 -42z" />
    <glyph glyph-name="asteriskmath" unicode="&#x2217;" horiz-adv-x="1000" 
d="M462 242l-105 37l38 65l84 -73l-19 111h80l-19 -111l84 73l38 -65l-105 -37l105 -38l-38 -65l-84 73l19 -111h-80l19 111l-84 -73l-38 65z" />
    <glyph glyph-name="uni2237" unicode="&#x2237;" horiz-adv-x="1000" 
d="M259 124c35 0 61 -27 61 -62c0 -36 -26 -62 -62 -62s-62 26 -62 62s26 62 63 62zM742 124c35 0 61 -27 61 -62c0 -36 -26 -62 -62 -62s-62 26 -62 62s26 62 63 62zM259 599c35 0 61 -26 61 -62s-26 -62 -62 -62s-62 26 -62 62s26 62 63 62zM742 599c35 0 61 -26 61 -62
s-26 -62 -62 -62s-62 26 -62 62s26 62 63 62z" />
    <glyph glyph-name="suchthat" unicode="&#x220b;" horiz-adv-x="1000" 
d="M233 216v61h462c-5 106 -62 157 -171 155h-291v62h280c69 0 96 -4 130 -18c77 -33 124 -118 124 -226c0 -102 -32 -174 -98 -218c-38 -25 -73 -32 -156 -32h-280v62h291c109 -3 166 48 171 154h-462z" />
    <glyph glyph-name="estimated" unicode="&#x212e;" horiz-adv-x="600" 
d="M528 244h-373v-98c11 -37 20 -53 37 -68c24 -22 60 -34 104 -34c65 0 116 26 147 76c3 4 8 13 15 29h57l-2 -7c-32 -103 -106 -155 -220 -155c-148 0 -238 101 -238 268s93 274 240 274c115 0 202 -67 224 -173c7 -33 8 -45 9 -105v-7zM442 292v85c-6 18 -10 25 -21 38
c-35 40 -72 57 -126 57c-69 0 -105 -25 -138 -95v-85h285z" />
    <glyph glyph-name="triagrt" unicode="&#x25ba;" horiz-adv-x="990" 
d="M798 337l-566 -200v400z" />
    <glyph glyph-name="triaglf" unicode="&#x25c4;" horiz-adv-x="990" 
d="M193 337l566 200v-400z" />
    <glyph glyph-name="musicalnotedbl" unicode="&#x266b;" horiz-adv-x="750" 
d="M257 645l381 -56v-446c0 -49 -8 -79 -29 -108c-28 -40 -74 -64 -121 -64c-44 0 -71 23 -71 61c0 61 57 115 122 115c18 0 35 -3 53 -11v367l-289 44v-348c0 -49 -8 -79 -29 -108c-28 -40 -74 -64 -121 -64c-44 0 -71 23 -71 61c0 61 57 115 122 115c18 0 35 -3 53 -11
v453z" />
    <glyph glyph-name="Alpha" unicode="&#x391;" horiz-adv-x="667" 
d="M474 219h-281l-77 -219h-99l260 729h120l256 -729h-104zM448 297l-112 332l-120 -332h232z" />
    <glyph glyph-name="Beta" unicode="&#x392;" horiz-adv-x="667" 
d="M79 0v729h296c70 0 119 -16 158 -51c38 -34 58 -80 58 -134c0 -75 -34 -128 -101 -159c93 -36 133 -89 133 -177c0 -57 -20 -109 -56 -147c-39 -42 -90 -61 -159 -61h-329zM172 415h180c52 0 81 7 106 26c26 20 40 50 40 90s-14 70 -40 90c-25 19 -54 26 -106 26h-180
v-232zM172 82h227c82 0 131 47 131 125c0 79 -49 126 -131 126h-227v-251z" />
    <glyph glyph-name="Gamma" unicode="&#x393;" horiz-adv-x="551" 
d="M78 729h469v-82h-376v-647h-93v729z" />
    <glyph glyph-name="uni0394" unicode="&#x394;" horiz-adv-x="668" 
d="M-12 0l294 729h100l297 -729h-691zM333 616l-212 -534h423z" />
    <glyph glyph-name="Epsilon" unicode="&#x395;" horiz-adv-x="667" 
d="M183 332v-250h430v-82h-523v729h505v-82h-412v-233h397v-82h-397z" />
    <glyph glyph-name="Zeta" unicode="&#x396;" horiz-adv-x="611" 
d="M581 729v-84l-436 -563h438v-82h-555v82l438 565h-410v82h525z" />
    <glyph glyph-name="Eta" unicode="&#x397;" horiz-adv-x="722" 
d="M551 332h-374v-332h-94v729h93v-315h375v315h93v-729h-93v332z" />
    <glyph glyph-name="Theta" unicode="&#x398;" horiz-adv-x="778" 
d="M539 396v-73h-299v73h299zM388 741c214 0 353 -153 353 -388c0 -119 -47 -232 -126 -299c-59 -50 -137 -77 -226 -77c-211 0 -352 153 -352 382c0 228 142 382 351 382zM388 659c-155 0 -258 -120 -258 -300s103 -300 259 -300c154 0 259 120 259 296
c0 185 -102 304 -260 304z" />
    <glyph glyph-name="Iota" unicode="&#x399;" horiz-adv-x="278" 
d="M194 729v-729h-94v729h94z" />
    <glyph glyph-name="Kappa" unicode="&#x39a;" horiz-adv-x="667" 
d="M172 255v-255h-93v729h93v-369l363 369h120l-297 -297l300 -432h-110l-257 374z" />
    <glyph glyph-name="Lambda" unicode="&#x39b;" horiz-adv-x="668" 
d="M396 729l256 -729h-104l-214 629l-214 -629h-104l256 729h124z" />
    <glyph glyph-name="Mu" unicode="&#x39c;" horiz-adv-x="833" 
d="M468 0h-98l-207 611v-611h-88v729h129l216 -635l212 635h129v-729h-88v611z" />
    <glyph glyph-name="Nu" unicode="&#x39d;" horiz-adv-x="722" 
d="M646 729v-729h-105l-377 591v-591h-88v729h101l381 -596v596h88z" />
    <glyph glyph-name="Xi" unicode="&#x39e;" horiz-adv-x="650" 
d="M64 0v82h523v-82h-523zM95 332v82h459v-82h-459zM66 647v82h519v-82h-519z" />
    <glyph glyph-name="Omicron" unicode="&#x39f;" horiz-adv-x="778" 
d="M389 741c214 0 353 -153 353 -388c0 -119 -47 -232 -126 -299c-59 -50 -137 -77 -226 -77c-211 0 -352 153 -352 382c0 228 142 382 351 382zM389 659c-155 0 -258 -120 -258 -300s103 -300 259 -300c154 0 259 120 259 296c0 185 -102 304 -260 304z" />
    <glyph glyph-name="Pi" unicode="&#x3a0;" horiz-adv-x="722" 
d="M175 647v-647h-94v729h561v-729h-94v647h-373z" />
    <glyph glyph-name="Rho" unicode="&#x3a1;" horiz-adv-x="667" 
d="M184 309v-309h-93v729h301c144 0 225 -77 225 -214c0 -67 -19 -114 -63 -154c-39 -35 -84 -52 -141 -52h-229zM184 391h194c89 0 142 48 142 128s-53 128 -142 128h-194v-256z" />
    <glyph glyph-name="Sigma" unicode="&#x3a3;" horiz-adv-x="618" 
d="M44 0v81l281 289l-280 277v82h514v-82h-391l275 -277l-281 -288h414v-82h-532z" />
    <glyph glyph-name="Tau" unicode="&#x3a4;" horiz-adv-x="611" 
d="M354 647v-647h-93v647h-240v82h572v-82h-239z" />
    <glyph glyph-name="Upsilon" unicode="&#x3a5;" horiz-adv-x="667" 
d="M387 286v-286h-93v286l-281 443h115l214 -355l208 355h111z" />
    <glyph glyph-name="Phi" unicode="&#x3a6;" horiz-adv-x="798" 
d="M352 -10v91c-167 11 -275 121 -275 284c0 162 108 273 275 283v91h93v-91c174 -10 275 -114 275 -283s-102 -274 -275 -284v-91h-93zM352 162v405c-43 -3 -67 -11 -96 -29c-58 -37 -86 -92 -86 -174c0 -80 27 -133 88 -172c29 -19 52 -26 94 -30zM445 567v-405
c42 4 65 11 94 30c61 39 88 92 88 172c0 82 -28 137 -86 174c-29 18 -53 26 -96 29z" />
    <glyph glyph-name="Chi" unicode="&#x3a7;" horiz-adv-x="667" 
d="M391 374l258 -374h-115l-199 304l-200 -304h-113l258 374l-242 355h113l187 -286l188 286h111z" />
    <glyph glyph-name="Psi" unicode="&#x3a8;" horiz-adv-x="835" 
d="M463 729v-509c68 3 125 23 163 58c41 44 50 84 49 234v217h94v-217c0 -186 -22 -255 -103 -314c-54 -38 -122 -58 -203 -60v-138h-92v138c-94 2 -172 29 -228 79c-61 59 -78 125 -78 295v217h94v-217c-1 -160 10 -203 64 -246c38 -28 88 -44 148 -46v509h92z" />
    <glyph glyph-name="uni03A9" unicode="&#x3a9;" horiz-adv-x="748" 
d="M28 0v82h193c-61 36 -88 59 -116 98c-41 56 -62 129 -62 215c0 105 30 189 89 248c62 63 149 98 242 98c107 0 205 -46 266 -123c43 -56 66 -133 66 -223c0 -86 -21 -159 -62 -215c-28 -39 -55 -62 -116 -98h193v-82h-288v82c61 36 90 61 118 99c40 54 62 131 62 213
c0 163 -92 265 -238 265c-147 0 -239 -102 -239 -265c0 -82 22 -159 62 -213c28 -38 57 -63 118 -99v-82h-288z" />
    <glyph glyph-name="alpha" unicode="&#x3b1;" horiz-adv-x="578" 
d="M589 524l-97 -253l104 -271h-92l-56 164c-21 -50 -33 -73 -54 -103c-38 -54 -94 -84 -155 -84c-122 0 -207 115 -207 280c0 164 88 281 212 281c55 0 108 -24 144 -67c23 -27 36 -49 59 -98l52 151h90zM408 271c-53 141 -95 191 -160 191c-77 0 -129 -82 -129 -205
c0 -118 52 -202 125 -202c66 0 115 64 164 216z" />
    <glyph glyph-name="beta" unicode="&#x3b2;" horiz-adv-x="575" 
d="M79 -218v717c0 97 9 138 39 174c34 42 97 68 166 68c117 0 199 -76 199 -184c0 -65 -29 -114 -85 -145c85 -34 126 -98 126 -198c0 -143 -88 -237 -223 -237c-57 0 -101 15 -139 46v-241h-83zM162 504v-394c33 -39 73 -56 126 -56c91 0 149 62 149 160
c0 95 -57 157 -143 157c-12 0 -24 -1 -39 -2v69c49 3 65 5 85 15c33 15 56 57 56 103c0 69 -46 112 -119 112c-38 0 -73 -14 -91 -38c-19 -24 -24 -53 -24 -126z" />
    <glyph glyph-name="gamma" unicode="&#x3b3;" horiz-adv-x="500" 
d="M212 -218v234l-200 508h94l148 -389l140 389h94l-192 -508v-234h-84z" />
    <glyph glyph-name="delta" unicode="&#x3b4;" horiz-adv-x="557" 
d="M258 532l-160 126v71h369v-74h-251l148 -115c70 -54 76 -59 93 -80c40 -50 59 -116 59 -202c0 -177 -88 -281 -237 -281s-237 104 -237 281c0 168 80 269 216 274zM279 462c-93 0 -150 -77 -150 -204s57 -204 150 -204c92 0 150 77 150 201c0 130 -56 207 -150 207z" />
    <glyph glyph-name="epsilon" unicode="&#x3b5;" horiz-adv-x="446" 
d="M286 304v-70c-9 1 -18 1 -21 1c-109 0 -158 -27 -158 -86c0 -57 49 -96 121 -96c75 0 116 34 139 115h83c-12 -54 -26 -83 -54 -116c-44 -50 -102 -75 -175 -75c-117 0 -201 70 -201 167c0 62 35 109 95 130c-53 28 -81 72 -81 123c0 82 80 142 191 142
c68 0 125 -24 164 -69c25 -28 35 -52 42 -101h-81c-17 65 -54 94 -121 94c-63 0 -108 -33 -108 -79c0 -24 15 -46 42 -61c25 -13 60 -19 123 -19z" />
    <glyph glyph-name="zeta" unicode="&#x3b6;" horiz-adv-x="441" 
d="M85 655v74h344v-74c-79 -45 -131 -87 -181 -147c-79 -95 -121 -194 -121 -286c0 -60 18 -105 50 -124c21 -12 27 -14 101 -21l46 -5c95 -10 129 -38 129 -105c0 -48 -5 -66 -49 -185h-85c46 121 49 131 49 165c0 37 -14 46 -77 52l-44 4c-49 4 -85 12 -112 25
c-61 28 -95 96 -95 186c0 117 49 232 144 336c42 46 78 77 125 105h-224z" />
    <glyph glyph-name="eta" unicode="&#x3b7;" 
d="M70 524h77v-88c46 73 96 103 174 103c101 0 166 -56 166 -143v-614h-84v581c0 63 -42 103 -107 103c-37 0 -72 -15 -99 -43c-30 -32 -43 -71 -43 -134v-289h-84v524z" />
    <glyph glyph-name="theta" unicode="&#x3b8;" 
d="M278 744c74 0 134 -30 172 -86c43 -66 58 -142 58 -296c0 -145 -14 -223 -51 -287c-38 -66 -98 -98 -183 -98c-76 0 -139 35 -175 98c-37 65 -51 142 -51 289c0 152 15 229 58 294c38 55 98 86 172 86zM133 415h292c-4 104 -11 140 -33 186c-22 43 -61 66 -113 66
s-92 -23 -113 -66c-23 -46 -29 -82 -33 -186zM424 348h-292c1 -106 6 -155 18 -194c22 -66 65 -101 128 -101c67 0 113 40 132 117c9 36 13 84 14 178z" />
    <glyph glyph-name="iota" unicode="&#x3b9;" horiz-adv-x="222" 
d="M69 0v524h84v-524h-84z" />
    <glyph glyph-name="kappa" unicode="&#x3ba;" horiz-adv-x="500" 
d="M141 303l221 221h109l-184 -182l214 -342h-103l-174 280l-83 -81v-199h-84v524h84v-221z" />
    <glyph glyph-name="lambda" unicode="&#x3bb;" horiz-adv-x="500" 
d="M22 0l181 509l-82 220h91l268 -729h-92l-141 391l-135 -391h-90z" />
    <glyph glyph-name="uni03BC" unicode="&#x3bc;" horiz-adv-x="576" 
d="M413 524h84v-524h-75v73c-48 -68 -97 -96 -170 -96c-33 0 -64 7 -89 19v-214h-83v742h84v-371c0 -63 42 -103 107 -103c39 0 77 18 103 48c29 33 39 71 39 143v283z" />
    <glyph glyph-name="nu" unicode="&#x3bd;" horiz-adv-x="500" 
d="M287 0h-91l-184 524h94l140 -413l148 413h94z" />
    <glyph glyph-name="xi" unicode="&#x3be;" horiz-adv-x="448" 
d="M47 655v74h371v-74h-89c-53 0 -85 -6 -111 -21c-34 -20 -57 -60 -57 -99c0 -75 65 -116 183 -116h48v-74h-51c-65 0 -106 -6 -143 -21c-49 -20 -80 -68 -80 -122c0 -41 19 -81 47 -99c22 -14 43 -19 107 -25l57 -5c98 -9 132 -37 132 -106c0 -45 -12 -89 -48 -185h-86
c38 95 49 133 49 165c0 38 -15 47 -89 52l-58 4c-61 4 -95 14 -126 37c-46 33 -73 92 -73 159c0 96 48 153 155 185c-33 10 -48 18 -67 35c-29 27 -46 67 -46 107c0 55 27 98 80 129h-105z" />
    <glyph glyph-name="omicron" unicode="&#x3bf;" 
d="M277 539c152 0 238 -103 238 -285c0 -172 -89 -277 -237 -277c-149 0 -237 104 -237 281c0 176 88 281 236 281zM278 462c-93 0 -150 -77 -150 -204s57 -204 150 -204c92 0 150 77 150 201c0 130 -56 207 -150 207z" />
    <glyph glyph-name="pi" unicode="&#x3c0;" horiz-adv-x="690" 
d="M623 524v-74h-75v-450h-84v450h-239v-450h-84v450h-75v74h557z" />
    <glyph glyph-name="rho" unicode="&#x3c1;" horiz-adv-x="569" 
d="M59 -218v461c0 110 13 160 55 212c43 54 108 84 182 84c142 0 232 -109 232 -283c0 -169 -89 -279 -226 -279c-67 0 -115 24 -159 78v-273h-84zM293 462c-92 0 -150 -79 -150 -204s57 -203 148 -203c90 0 150 79 150 199c0 128 -57 208 -148 208z" />
    <glyph glyph-name="sigma" unicode="&#x3c3;" horiz-adv-x="617" 
d="M582 524v-74h-115c48 -52 67 -108 67 -196c0 -172 -89 -277 -237 -277c-149 0 -237 104 -237 281c0 173 90 281 235 281c35 0 58 -3 105 -15h182zM297 462c-93 0 -150 -77 -150 -204s57 -204 150 -204s150 77 150 202c0 130 -55 206 -150 206z" />
    <glyph glyph-name="tau" unicode="&#x3c4;" horiz-adv-x="395" 
d="M155 0v450h-173v74h431v-74h-174v-450h-84z" />
    <glyph glyph-name="upsilon" unicode="&#x3c5;" horiz-adv-x="547" 
d="M65 524h84v-339c0 -59 9 -85 35 -104c23 -17 56 -27 90 -27s67 10 89 27c27 20 35 45 35 104v339h84v-339c0 -81 -9 -116 -40 -149c-36 -38 -95 -59 -168 -59c-71 0 -130 20 -166 57c-32 32 -43 69 -43 151v339z" />
    <glyph glyph-name="phi" unicode="&#x3c6;" horiz-adv-x="648" 
d="M278 -218v196c-71 7 -109 20 -149 51c-63 49 -99 135 -99 237c0 71 17 124 57 175c33 42 61 62 120 86v-83c-29 -16 -42 -28 -55 -53c-19 -35 -29 -79 -29 -130c0 -72 21 -135 56 -169c24 -24 50 -34 99 -39v485c16 1 20 1 32 1c54 0 108 -10 147 -28
c94 -41 151 -139 151 -256c0 -94 -37 -176 -103 -226c-41 -32 -78 -45 -143 -51v-196h-84zM362 463v-410c49 5 76 17 101 45c34 39 52 98 52 168c0 119 -56 191 -153 197z" />
    <glyph glyph-name="chi" unicode="&#x3c7;" horiz-adv-x="525" 
d="M261 260l126 264h92l-172 -354l189 -388h-95l-142 293l-140 -293h-90l185 383l-176 359h96z" />
    <glyph glyph-name="psi" unicode="&#x3c8;" horiz-adv-x="713" 
d="M407 524v-466c110 9 152 59 148 178v288h84v-291c8 -157 -62 -233 -232 -252v-199h-84v199c-170 19 -240 95 -232 252v291h84v-288c-4 -119 38 -169 148 -178v466h84z" />
    <glyph glyph-name="omega" unicode="&#x3c9;" horiz-adv-x="781" 
d="M348 397h84v-200c0 -51 2 -71 10 -94c11 -32 36 -51 69 -51c57 0 94 69 94 176c0 117 -38 212 -118 296h98c70 -76 107 -177 107 -292c0 -155 -68 -255 -173 -255c-59 0 -97 26 -129 89c-37 -67 -71 -90 -131 -90c-104 0 -171 100 -171 256c0 115 37 215 107 292h98
c-80 -85 -118 -180 -118 -297c0 -108 36 -176 93 -176c32 0 59 19 70 52c8 23 10 42 10 94v200z" />
    <glyph glyph-name="uni03C2" unicode="&#x3c2;" horiz-adv-x="482" 
d="M419 -218h-86c36 95 48 133 48 154c0 22 -14 36 -49 48l-113 38c-61 21 -97 42 -126 74c-41 44 -67 116 -67 184c0 70 29 145 73 191c43 43 104 68 170 68c71 0 134 -28 174 -77c27 -34 38 -63 43 -118h-88c-4 33 -10 50 -24 68c-23 31 -63 50 -106 50
c-89 0 -155 -76 -155 -178c0 -55 21 -109 56 -141c22 -21 48 -34 115 -58l45 -16c85 -29 89 -31 113 -53c16 -15 26 -38 26 -62c0 -30 -13 -77 -49 -172z" />
    <glyph glyph-name="theta1" unicode="&#x3d1;" horiz-adv-x="547" 
d="M4 294h117c3 -90 6 -119 17 -150c20 -60 61 -92 120 -92c70 0 116 44 135 128c7 34 10 77 11 155h-15c-186 0 -312 94 -312 232c0 104 73 177 177 177c89 0 161 -49 200 -134c21 -45 29 -99 32 -205c21 1 24 1 45 3v-69c-21 -2 -24 -2 -45 -3c0 -107 -9 -170 -30 -223
c-37 -92 -103 -137 -200 -137c-130 0 -204 88 -210 251h-42v67zM404 404v30c0 89 -14 146 -49 189c-23 30 -61 48 -101 48c-57 0 -97 -43 -97 -104c0 -100 96 -163 247 -163z" />
    <glyph glyph-name="phi1" unicode="&#x3d5;" horiz-adv-x="560" 
d="M238 -218v196c-54 4 -85 14 -119 38c-68 47 -106 135 -106 242c0 108 38 195 106 243c34 24 65 34 119 38v123h82v-123c55 -4 86 -14 120 -38c69 -48 108 -135 108 -243c0 -107 -39 -195 -108 -242c-34 -24 -65 -34 -120 -38v-196h-82zM238 53v411
c-89 -10 -138 -83 -138 -204c0 -125 48 -197 138 -207zM320 464v-411c90 10 140 83 140 205c0 123 -50 196 -140 206z" />
    <glyph glyph-name="omega1" unicode="&#x3d6;" horiz-adv-x="781" 
d="M166 456h-97v68h267c231 0 357 -104 357 -296c0 -135 -78 -239 -181 -239c-51 0 -97 28 -125 78c-30 -50 -74 -78 -126 -78c-37 0 -76 16 -105 43c-51 46 -77 113 -77 200c0 99 28 172 87 224zM313 456h-37c-79 -58 -110 -120 -110 -224c0 -102 35 -166 91 -166
c58 0 88 58 88 167v70h84v-70c0 -111 30 -168 88 -168c54 0 89 64 89 160c0 91 -39 163 -109 201c-42 22 -92 30 -184 30z" />
    <glyph glyph-name="iotadieresis" unicode="&#x3ca;" horiz-adv-x="222" 
d="M69 0v524h84v-524h-84zM78 715v-103h-104v103h104zM240 715v-103h-104v103h104z" />
    <glyph glyph-name="upsilondieresis" unicode="&#x3cb;" horiz-adv-x="547" 
d="M65 524h84v-339c0 -59 9 -85 35 -104c23 -17 56 -27 90 -27s67 10 89 27c27 20 35 45 35 104v339h84v-339c0 -81 -9 -116 -40 -149c-36 -38 -95 -59 -168 -59c-71 0 -130 20 -166 57c-32 32 -43 69 -43 151v339zM245 715v-103h-104v103h104zM407 715v-103h-104v103h104z
" />
    <glyph glyph-name="tonos" unicode="&#x384;" horiz-adv-x="333" 
d="M126 779h82v-91l-26 -104h-30l-26 104v91z" />
    <glyph glyph-name="dieresistonos" unicode="&#x385;" horiz-adv-x="333" 
d="M126 859h82v-91l-26 -104h-30l-26 104v91zM300 708v-103h-92v103h92zM126 708v-103h-92v103h92z" />
    <glyph glyph-name="Alphatonos" unicode="&#x386;" horiz-adv-x="667" 
d="M474 219h-281l-77 -219h-99l260 729h120l256 -729h-104zM448 297l-112 332l-120 -332h232zM55 729h82v-91l-26 -104h-30l-26 104v91z" />
    <glyph glyph-name="Epsilontonos" unicode="&#x388;" horiz-adv-x="784" 
d="M256 332v-250h430v-82h-523v729h505v-82h-412v-233h397v-82h-397zM27 729h82v-91l-26 -104h-30l-26 104v91z" />
    <glyph glyph-name="Etatonos" unicode="&#x389;" horiz-adv-x="838" 
d="M624 332h-374v-332h-94v729h93v-315h375v315h93v-729h-93v332zM20 729h82v-91l-26 -104h-30l-26 104v91z" />
    <glyph glyph-name="Iotatonos" unicode="&#x38a;" horiz-adv-x="384" 
d="M256 729v-729h-94v729h94zM26 729h82v-91l-26 -104h-30l-26 104v91z" />
    <glyph glyph-name="Omicrontonos" unicode="&#x38c;" horiz-adv-x="774" 
d="M386 741c214 0 353 -153 353 -388c0 -119 -47 -232 -126 -299c-59 -50 -137 -77 -226 -77c-211 0 -352 153 -352 382c0 228 142 382 351 382zM386 659c-155 0 -258 -120 -258 -300s103 -300 259 -300c154 0 259 120 259 296c0 185 -102 304 -260 304zM-24 729h82v-91
l-26 -104h-30l-26 104v91z" />
    <glyph glyph-name="Omegatonos" unicode="&#x38f;" horiz-adv-x="752" 
d="M29 0v82h193c-61 36 -88 59 -116 98c-41 56 -62 129 -62 215c0 105 30 189 89 248c62 63 149 98 242 98c107 0 205 -46 266 -123c43 -56 66 -133 66 -223c0 -86 -21 -159 -62 -215c-28 -39 -55 -62 -116 -98h193v-82h-288v82c61 36 90 61 118 99c40 54 62 131 62 213
c0 163 -92 265 -238 265c-147 0 -239 -102 -239 -265c0 -82 22 -159 62 -213c28 -38 57 -63 118 -99v-82h-288zM-22 729h82v-91l-26 -104h-30l-26 104v91z" />
    <glyph glyph-name="Upsilontonos" unicode="&#x38e;" horiz-adv-x="855" 
d="M519 286v-286h-93v286l-281 443h115l214 -355l208 355h111zM33 729h82v-91l-26 -104h-30l-26 104v91z" />
    <glyph glyph-name="Iotadieresis" unicode="&#x3aa;" horiz-adv-x="278" 
d="M194 729v-729h-94v729h94zM110 914v-103h-104v103h104zM272 914v-103h-104v103h104z" />
    <glyph glyph-name="Upsilondieresis" unicode="&#x3ab;" horiz-adv-x="667" 
d="M387 286v-286h-93v286l-281 443h115l214 -355l208 355h111zM305 914v-103h-104v103h104zM467 914v-103h-104v103h104z" />
    <glyph glyph-name="alphatonos" unicode="&#x3ac;" horiz-adv-x="578" 
d="M587 524l-97 -253l104 -271h-92l-57 164c-55 -134 -115 -187 -212 -187c-132 0 -227 117 -227 280c0 162 98 281 232 281c59 0 111 -24 148 -67c23 -27 36 -49 58 -98l52 151h91zM406 271c-54 144 -95 191 -164 191c-87 0 -149 -85 -149 -203s61 -204 146 -204
c69 0 117 62 167 216zM202 779h82v-91l-26 -104h-30l-26 104v91z" />
    <glyph glyph-name="epsilontonos" unicode="&#x3ad;" horiz-adv-x="446" 
d="M286 304v-70c-9 1 -18 1 -21 1c-109 0 -158 -27 -158 -86c0 -57 49 -96 121 -96c75 0 116 34 139 115h83c-12 -54 -26 -83 -54 -116c-44 -50 -102 -75 -175 -75c-117 0 -201 70 -201 167c0 62 35 109 95 130c-53 28 -81 72 -81 123c0 82 80 142 191 142
c68 0 125 -24 164 -69c25 -28 35 -52 42 -101h-81c-17 65 -54 94 -121 94c-63 0 -108 -33 -108 -79c0 -24 15 -46 42 -61c25 -13 60 -19 123 -19zM182 779h82v-91l-26 -104h-30l-26 104v91z" />
    <glyph glyph-name="etatonos" unicode="&#x3ae;" 
d="M70 524h77v-88c46 73 96 103 174 103c101 0 166 -56 166 -143v-614h-84v581c0 63 -42 103 -107 103c-37 0 -72 -15 -99 -43c-30 -32 -43 -71 -43 -134v-289h-84v524zM257 779h82v-91l-26 -104h-30l-26 104v91z" />
    <glyph glyph-name="iotatonos" unicode="&#x3af;" horiz-adv-x="222" 
d="M69 0v524h84v-524h-84zM70 779h82v-91l-26 -104h-30l-26 104v91z" />
    <glyph glyph-name="omicrontonos" unicode="&#x3cc;" 
d="M277 539c152 0 238 -103 238 -285c0 -172 -89 -277 -237 -277c-149 0 -237 104 -237 281c0 176 88 281 236 281zM278 462c-93 0 -150 -77 -150 -204s57 -204 150 -204c92 0 150 77 150 201c0 130 -56 207 -150 207zM237 779h82v-91l-26 -104h-30l-26 104v91z" />
    <glyph glyph-name="omegatonos" unicode="&#x3ce;" horiz-adv-x="781" 
d="M348 397h84v-200c0 -51 2 -71 10 -94c11 -32 36 -51 69 -51c57 0 94 69 94 176c0 117 -38 212 -118 296h98c70 -76 107 -177 107 -292c0 -155 -68 -255 -173 -255c-59 0 -97 26 -129 89c-37 -67 -71 -90 -131 -90c-104 0 -171 100 -171 256c0 115 37 215 107 292h98
c-80 -85 -118 -180 -118 -297c0 -108 36 -176 93 -176c32 0 59 19 70 52c8 23 10 42 10 94v200zM349 779h82v-91l-26 -104h-30l-26 104v91z" />
    <glyph glyph-name="upsilontonos" unicode="&#x3cd;" horiz-adv-x="547" 
d="M65 524h84v-339c0 -59 9 -85 35 -104c23 -17 56 -27 90 -27s67 10 89 27c27 20 35 45 35 104v339h84v-339c0 -81 -9 -116 -40 -149c-36 -38 -95 -59 -168 -59c-71 0 -130 20 -166 57c-32 32 -43 69 -43 151v339zM233 779h82v-91l-26 -104h-30l-26 104v91z" />
    <glyph glyph-name="iotadieresistonos" unicode="&#x390;" horiz-adv-x="222" 
d="M69 0v524h84v-524h-84zM70 859h82v-91l-26 -104h-30l-26 104v91zM244 708v-103h-92v103h92zM70 708v-103h-92v103h92z" />
    <glyph glyph-name="upsilondieresistonos" unicode="&#x3b0;" horiz-adv-x="547" 
d="M65 524h84v-339c0 -59 9 -85 35 -104c23 -17 56 -27 90 -27s67 10 89 27c27 20 35 45 35 104v339h84v-339c0 -81 -9 -116 -40 -149c-36 -38 -95 -59 -168 -59c-71 0 -130 20 -166 57c-32 32 -43 69 -43 151v339zM233 859h82v-91l-26 -104h-30l-26 104v91zM407 708v-103
h-92v103h92zM233 708v-103h-92v103h92z" />
    <glyph glyph-name="afii10017" unicode="&#x410;" horiz-adv-x="667" 
d="M473 219h-281l-77 -219h-99l260 729h120l256 -729h-104zM447 297l-112 332l-120 -332h232z" />
    <glyph glyph-name="afii10018" unicode="&#x411;" horiz-adv-x="656" 
d="M170 420h219c74 0 120 -13 161 -46c46 -37 70 -92 70 -164c0 -133 -82 -210 -225 -210h-319v729h478v-82h-384v-227zM170 338v-256h210c92 0 146 48 146 128c0 81 -54 128 -146 128h-210z" />
    <glyph glyph-name="afii10019" unicode="&#x412;" horiz-adv-x="667" 
d="M81 0v729h296c70 0 119 -16 158 -51c38 -34 58 -80 58 -134c0 -75 -34 -128 -101 -159c93 -36 133 -89 133 -177c0 -57 -20 -109 -56 -147c-39 -42 -90 -61 -159 -61h-329zM175 414h179c52 0 81 7 106 26c26 20 40 51 40 91s-14 70 -40 90c-25 19 -54 26 -106 26h-179
v-233zM175 82h226c82 0 131 47 131 125c0 79 -49 125 -131 125h-226v-250z" />
    <glyph glyph-name="afii10020" unicode="&#x413;" horiz-adv-x="542" 
d="M83 729h454v-82h-360v-647h-94v729z" />
    <glyph glyph-name="afii10021" unicode="&#x414;" horiz-adv-x="677" 
d="M569 0h-465v-166h-94v248c115 11 181 118 177 286v361h420v-647h56v-248h-94v166zM513 82v565h-232v-276c1 -139 -41 -244 -114 -289h346z" />
    <glyph glyph-name="afii10022" unicode="&#x415;" horiz-adv-x="667" 
d="M179 332v-250h429v-82h-523v729h505v-82h-411v-233h396v-82h-396z" />
    <glyph glyph-name="afii10024" unicode="&#x416;" horiz-adv-x="923" 
d="M414 0v345h-97l-224 -345h-105l251 384l-207 345h105l180 -302h97v302h94v-302h97l180 302h103l-204 -345l251 -384h-102l-225 345h-100v-345h-94z" />
    <glyph glyph-name="afii10025" unicode="&#x417;" horiz-adv-x="604" 
d="M56 224h94v-17c0 -90 60 -148 154 -148c92 0 146 52 146 140c0 51 -19 90 -55 113c-26 17 -52 23 -99 23h-40v81h33c84 0 139 48 139 122c0 72 -50 121 -125 121c-77 0 -130 -50 -130 -124v-34h-94v17c0 134 89 223 223 223c127 0 220 -83 220 -197
c0 -45 -16 -90 -43 -122c-17 -21 -34 -31 -68 -42c84 -16 133 -80 133 -174c0 -60 -23 -122 -62 -163c-40 -43 -101 -66 -177 -66c-98 0 -173 38 -216 110c-24 40 -32 75 -33 137z" />
    <glyph glyph-name="afii10026" unicode="&#x418;" horiz-adv-x="719" 
d="M77 0v729h94v-510l377 428v82h94v-729h-94v513l-377 -430v-83h-94z" />
    <glyph glyph-name="afii10028" unicode="&#x41a;" horiz-adv-x="583" 
d="M63 0v729h94v-302h63l180 302h103l-204 -345l252 -384h-104l-225 345h-65v-345h-94z" />
    <glyph glyph-name="afii10029" unicode="&#x41b;" horiz-adv-x="656" 
d="M515 0v647h-299v-369c-3 -95 -19 -152 -55 -200c-44 -58 -86 -80 -145 -78h-16v82c81 6 124 74 122 194v453h487v-729h-94z" />
    <glyph glyph-name="afii10030" unicode="&#x41c;" horiz-adv-x="833" 
d="M467 0h-98l-207 611v-611h-88v729h129l216 -635l212 635h129v-729h-88v611z" />
    <glyph glyph-name="afii10031" unicode="&#x41d;" horiz-adv-x="722" 
d="M548 332h-373v-332h-94v729h93v-315h374v315h94v-729h-94v332z" />
    <glyph glyph-name="afii10032" unicode="&#x41e;" horiz-adv-x="778" 
d="M388 741c214 0 353 -153 353 -388c0 -119 -47 -232 -126 -299c-59 -50 -137 -77 -226 -77c-211 0 -352 153 -352 382c0 228 142 382 351 382zM388 659c-155 0 -258 -120 -258 -300s103 -300 259 -300c154 0 259 120 259 296c0 185 -102 304 -260 304z" />
    <glyph glyph-name="afii10033" unicode="&#x41f;" horiz-adv-x="719" 
d="M173 647v-647h-94v729h561v-729h-94v647h-373z" />
    <glyph glyph-name="afii10034" unicode="&#x420;" horiz-adv-x="667" 
d="M186 309v-309h-94v729h301c144 0 225 -77 225 -214c0 -67 -19 -114 -63 -154c-39 -35 -84 -52 -141 -52h-228zM186 391h193c89 0 142 48 142 128s-53 128 -142 128h-193v-256z" />
    <glyph glyph-name="afii10035" unicode="&#x421;" horiz-adv-x="722" 
d="M583 257h99c0 -55 -8 -84 -33 -129c-55 -98 -152 -151 -275 -151c-85 0 -156 25 -212 75c-76 67 -120 179 -120 306c0 231 136 383 341 383c165 0 285 -102 288 -245h-99c-1 101 -72 163 -188 163c-156 0 -248 -112 -248 -301c0 -185 94 -299 244 -299
c120 0 201 79 203 198z" />
    <glyph glyph-name="afii10036" unicode="&#x422;" horiz-adv-x="611" 
d="M353 647v-647h-94v647h-239v82h572v-82h-239z" />
    <glyph glyph-name="afii10037" unicode="&#x423;" horiz-adv-x="635" 
d="M142 0v82h56c48 2 62 13 86 74l-265 573h112l199 -462l188 462h110l-277 -637c-27 -61 -69 -92 -121 -92h-88z" />
    <glyph glyph-name="afii10038" unicode="&#x424;" horiz-adv-x="760" 
d="M333 -10v91c-186 11 -305 121 -305 284c0 162 119 273 305 283v91h94v-91c193 -10 305 -114 305 -283s-113 -274 -305 -284v-91h-94zM333 162v405c-50 -3 -77 -10 -111 -29c-67 -36 -100 -93 -100 -174c0 -80 31 -133 101 -172c35 -19 62 -26 110 -30zM427 567v-405
c48 4 75 11 109 30c71 39 102 92 102 172c0 81 -33 138 -100 174c-34 19 -61 26 -111 29z" />
    <glyph glyph-name="afii10039" unicode="&#x425;" horiz-adv-x="667" 
d="M389 374l258 -374h-115l-199 304l-200 -304h-113l258 374l-242 355h113l187 -286l188 286h111z" />
    <glyph glyph-name="afii10040" unicode="&#x426;" horiz-adv-x="740" 
d="M83 0v729h94v-647h374v647h94v-647h55v-248h-94v166h-523z" />
    <glyph glyph-name="afii10041" unicode="&#x427;" horiz-adv-x="667" 
d="M507 0v277c-70 -18 -140 -28 -204 -28c-162 0 -256 68 -256 185v295h94v-290c0 -72 61 -108 183 -108c59 0 108 8 183 28v370h94v-729h-94z" />
    <glyph glyph-name="afii10042" unicode="&#x428;" horiz-adv-x="917" 
d="M51 0v729h94v-647h266v647h94v-647h266v647h94v-729h-814z" />
    <glyph glyph-name="afii10043" unicode="&#x429;" horiz-adv-x="938" 
d="M53 0v729h94v-647h268v647h94v-647h278v647h94v-647h56v-248h-94v166h-790z" />
    <glyph glyph-name="afii10046" unicode="&#x42c;" horiz-adv-x="656" 
d="M172 420h219c74 0 120 -13 160 -46c47 -37 71 -92 71 -164c0 -133 -82 -210 -225 -210h-319v729h94v-309zM172 338v-256h210c92 0 146 48 146 128c0 81 -54 128 -146 128h-210z" />
    <glyph glyph-name="afii10045" unicode="&#x42b;" horiz-adv-x="885" 
d="M179 420h219c74 0 120 -13 160 -46c47 -37 71 -92 71 -164c0 -133 -82 -210 -225 -210h-319v729h94v-309zM179 338v-256h210c92 0 146 48 146 128c0 81 -54 128 -146 128h-210zM706 0v729h94v-729h-94z" />
    <glyph glyph-name="afii10044" unicode="&#x42a;" horiz-adv-x="792" 
d="M338 729v-309h193c74 0 120 -13 161 -46c46 -37 70 -92 70 -164c0 -133 -82 -210 -225 -210h-293v647h-274v82h368zM338 338v-256h184c92 0 146 48 146 128s-54 128 -146 128h-184z" />
    <glyph glyph-name="afii10047" unicode="&#x42d;" horiz-adv-x="719" 
d="M610 323h-314v83h313c-9 63 -23 106 -49 146c-44 67 -121 107 -207 107c-109 0 -191 -55 -234 -158l-91 18c59 147 168 222 325 222c210 0 352 -153 352 -382s-142 -382 -352 -382c-102 0 -188 35 -251 100c-42 45 -63 84 -87 164l91 16c18 -61 35 -93 68 -126
c45 -46 109 -72 179 -72c145 0 241 99 257 264z" />
    <glyph glyph-name="afii10048" unicode="&#x42e;" horiz-adv-x="1010" 
d="M164 414h152c25 204 151 327 335 327c191 0 317 -152 317 -382s-126 -382 -317 -382c-193 0 -323 137 -337 355h-150v-332h-94v729h94v-315zM650 659c-145 0 -244 -122 -244 -300s99 -300 244 -300c135 0 225 118 225 296c0 186 -87 304 -225 304z" />
    <glyph glyph-name="afii10049" unicode="&#x42f;" horiz-adv-x="722" 
d="M540 314h-239c-83 0 -120 -40 -120 -129c0 -8 0 -19 1 -33v-32c0 -54 -6 -85 -21 -120h-108c33 33 38 53 40 170c0 119 19 156 98 190c-80 40 -112 89 -112 174c0 126 79 195 222 195h333v-729h-94v314zM540 396v251h-224c-52 0 -82 -8 -105 -28c-25 -21 -38 -54 -38 -97
c0 -87 44 -126 143 -126h224z" />
    <glyph glyph-name="afii10050" unicode="&#x490;" horiz-adv-x="489" 
d="M434 729l96 148h113l-149 -148v-82h-344v-647h-94v729h378z" />
    <glyph glyph-name="afii10051" unicode="&#x402;" horiz-adv-x="865" 
d="M258 0v647h-233v82h496v-82h-169v-234c49 60 96 79 198 79c90 0 138 -16 180 -58c31 -31 45 -67 45 -113v-166c2 -82 -70 -157 -150 -155h-146v82h145c36 2 57 26 57 66v169c0 65 -45 93 -149 93c-75 0 -115 -12 -148 -44c-22 -21 -32 -45 -32 -75v-291h-94z" />
    <glyph glyph-name="afii10053" unicode="&#x404;" horiz-adv-x="719" 
d="M424 323h-314c16 -165 112 -264 257 -264c69 0 134 26 179 72c32 33 49 65 67 126l92 -16c-24 -80 -45 -119 -88 -164c-63 -65 -149 -100 -250 -100c-211 0 -352 153 -352 382s141 382 352 382c156 0 266 -75 325 -222l-92 -18c-43 103 -124 158 -233 158
c-95 0 -176 -47 -219 -127c-20 -36 -30 -72 -37 -126h313v-83z" />
    <glyph glyph-name="afii10054" unicode="&#x405;" horiz-adv-x="667" 
d="M596 515h-88c-1 96 -66 148 -182 148c-98 0 -163 -49 -163 -123c0 -56 32 -84 120 -108l183 -49c99 -27 155 -92 155 -183c0 -63 -31 -128 -80 -167c-47 -36 -118 -56 -204 -56c-112 0 -196 35 -246 104c-29 40 -42 84 -43 151h88c-1 -45 11 -80 38 -112
c35 -42 88 -61 168 -61c59 0 105 10 134 31c31 22 52 62 52 101c0 57 -41 94 -134 118l-181 48c-96 25 -143 81 -143 170c0 132 99 214 259 214c167 0 268 -85 267 -226z" />
    <glyph glyph-name="afii10055" unicode="&#x406;" horiz-adv-x="278" 
d="M186 729v-729h-94v729h94z" />
    <glyph glyph-name="uni04C0" unicode="&#x4c0;" horiz-adv-x="278" 
d="M186 729v-729h-94v729h94z" />
    <glyph glyph-name="uni04CF" unicode="&#x4cf;" horiz-adv-x="278" 
d="M186 729v-729h-94v729h94z" />
    <glyph glyph-name="afii10057" unicode="&#x408;" horiz-adv-x="500" 
d="M330 729h94v-547c0 -64 -17 -110 -55 -148c-39 -39 -86 -57 -153 -57c-122 0 -201 75 -201 193v64h94v-47c0 -44 7 -70 26 -94s50 -38 84 -38c37 0 70 17 88 45c17 25 23 57 23 116v513z" />
    <glyph glyph-name="afii10058" unicode="&#x409;" horiz-adv-x="1057" 
d="M512 647h-271v-369c-3 -95 -19 -152 -55 -200c-44 -58 -86 -80 -145 -78h-16v82c81 6 124 74 122 194v453h459v-309h195c74 0 120 -13 161 -46c48 -38 70 -90 70 -161c0 -136 -81 -213 -224 -213h-296v647zM606 338v-256h187c91 0 145 48 145 128c0 81 -54 128 -145 128
h-187z" />
    <glyph glyph-name="afii10059" unicode="&#x40a;" horiz-adv-x="1010" 
d="M442 338h-292v-338h-94v729h93v-309h293v309h94v-309h219c74 0 120 -13 160 -46c47 -37 71 -92 71 -164c0 -133 -82 -210 -225 -210h-319v338zM536 338v-256h210c92 0 146 48 146 128c0 81 -54 128 -146 128h-210z" />
    <glyph glyph-name="afii10060" unicode="&#x40b;" horiz-adv-x="854" 
d="M253 0v647h-236v82h541v-82h-211v-234c47 58 95 78 187 78c80 0 130 -17 169 -58c31 -32 45 -66 45 -112v-321h-94v317c0 64 -44 92 -142 92c-101 0 -165 -46 -165 -118v-291h-94z" />
    <glyph glyph-name="afii10145" unicode="&#x40f;" horiz-adv-x="719" 
d="M79 0v729h94v-647h374v647h94v-729h-235v-166h-94v166h-233z" />
    <glyph glyph-name="uni04E8" unicode="&#x4e8;" horiz-adv-x="778" 
d="M388 741c214 0 353 -153 353 -388c0 -120 -47 -233 -126 -300c-59 -50 -137 -77 -226 -77c-211 0 -352 153 -352 382s141 383 351 383zM646 317h-514c18 -162 114 -259 257 -259s239 96 257 259zM132 400h514c-18 163 -114 259 -257 259s-239 -97 -257 -259z" />
    <glyph glyph-name="uni0496" unicode="&#x496;" horiz-adv-x="1021" 
d="M441 0v345h-111l-224 -345h-105l251 384l-207 345h105l180 -302h111v302h94v-302h111l180 302h104l-205 -345l198 -302h96v-228h-93v146h-52l-225 345h-114v-345h-94z" />
    <glyph glyph-name="uni04AE" unicode="&#x4ae;" horiz-adv-x="674" 
d="M387 286v-286h-94v286l-280 443h115l214 -355l208 355h111z" />
    <glyph glyph-name="uni04D8" unicode="&#x4d8;" horiz-adv-x="778" 
d="M39 400h607c-7 64 -23 110 -50 152c-43 67 -120 107 -207 107c-109 0 -190 -55 -233 -158l-92 18c59 147 169 222 325 222c211 0 352 -154 352 -383s-141 -382 -352 -382s-352 154 -352 383c0 14 0 24 2 41zM646 317h-514c18 -162 114 -259 257 -259s239 96 257 259z" />
    <glyph glyph-name="uni04BA" unicode="&#x4ba;" horiz-adv-x="695" 
d="M155 729v-277c70 18 140 28 204 28c162 0 256 -68 256 -185v-295h-94v290c0 72 -61 108 -183 108c-59 0 -108 -8 -183 -28v-370h-94v729h94z" />
    <glyph glyph-name="afii61352" unicode="&#x2116;" horiz-adv-x="1073" 
d="M534 729v-729h-89l-321 591v-591h-75v729h86l324 -596v596h75zM815 741c125 0 217 -117 217 -275c0 -163 -89 -279 -215 -279c-130 0 -218 112 -218 278c0 159 91 276 216 276zM815 658c-83 0 -141 -79 -141 -192c0 -116 58 -196 143 -196c82 0 140 80 140 191
c0 119 -56 197 -142 197zM609 0v83h414v-83h-414z" />
    <glyph glyph-name="uni0492" unicode="&#x492;" horiz-adv-x="538" 
d="M175 414h256v-82h-256v-332h-94v332h-46v82h46v315h454v-82h-360v-233z" />
    <glyph glyph-name="uni04B0" unicode="&#x4b0;" horiz-adv-x="674" 
d="M387 222h148v-84h-148v-138h-94v138h-155v84h155v64l-280 443h114l215 -355l208 355h111l-274 -443v-64z" />
    <glyph glyph-name="afii10023" unicode="&#x401;" horiz-adv-x="667" 
d="M179 332v-250h429v-82h-523v729h505v-82h-411v-233h396v-82h-396zM310 914v-103h-104v103h104zM472 914v-103h-104v103h104z" />
    <glyph glyph-name="afii10027" unicode="&#x419;" horiz-adv-x="719" 
d="M77 0v729h94v-510l376 428v82h94v-729h-94v513l-376 -430v-83h-94zM208 931h59c5 -44 35 -66 93 -66c53 0 86 24 90 66h59c-7 -89 -59 -135 -152 -135c-56 0 -101 20 -128 57c-14 20 -19 39 -21 78z" />
    <glyph glyph-name="afii10052" unicode="&#x403;" horiz-adv-x="542" 
d="M86 729h454v-82h-360v-647h-94v729zM301 939h113l-149 -148h-60z" />
    <glyph glyph-name="afii10056" unicode="&#x407;" horiz-adv-x="278" 
d="M186 729v-729h-94v729h94zM110 914v-103h-104v103h104zM272 914v-103h-104v103h104z" />
    <glyph glyph-name="afii10061" unicode="&#x40c;" horiz-adv-x="583" 
d="M63 0v729h94v-302h62l179 302h104l-205 -345l252 -384h-104l-225 345h-63v-345h-94zM313 939h113l-149 -148h-60z" />
    <glyph glyph-name="afii10062" unicode="&#x40e;" horiz-adv-x="635" 
d="M142 0v82h56c48 2 62 13 86 74l-265 573h112l199 -462l188 462h110l-277 -637c-27 -61 -69 -92 -121 -92h-88zM167 931h59c5 -44 35 -66 92 -66c54 0 87 24 91 66h59c-7 -89 -59 -135 -152 -135c-57 0 -101 20 -128 57c-15 20 -20 39 -21 78z" />
    <glyph glyph-name="uni04E2" unicode="&#x4e2;" horiz-adv-x="667" 
d="M473 219h-281l-77 -219h-99l260 729h120l256 -729h-104zM447 297l-112 332l-120 -332h232zM183 931h59c5 -44 35 -66 92 -66c54 0 87 24 91 66h59c-7 -89 -59 -135 -152 -135c-57 0 -101 20 -128 57c-15 20 -20 39 -21 78z" />
    <glyph glyph-name="uni04EE" unicode="&#x4ee;" horiz-adv-x="657" 
d="M174 332v-250h429v-82h-523v729h505v-82h-411v-233h396v-82h-396zM183 931h59c5 -44 35 -66 93 -66c53 0 86 24 90 66h59c-7 -89 -59 -135 -152 -135c-56 0 -101 20 -128 57c-14 20 -19 39 -21 78z" />
    <glyph glyph-name="uni049C" unicode="&#x49c;" horiz-adv-x="618" 
d="M226 427v184h60v-184l179 302h104l-205 -345l252 -384h-104l-224 345h-2v-183h-60v183h-52v-345h-94v729h94v-302h52z" />
    <glyph glyph-name="uni049A" unicode="&#x49a;" horiz-adv-x="666" 
d="M80 0v729h94v-302h72l179 302h104l-205 -345l198 -302h102v-248h-94v166h-58l-225 345h-73v-345h-94z" />
    <glyph glyph-name="uni04A2" unicode="&#x4a2;" horiz-adv-x="722" 
d="M548 332h-373v-332h-94v729h93v-315h374v315h94v-647h56v-248h-94v166h-56v332z" />
    <glyph glyph-name="uni04B2" unicode="&#x4b2;" horiz-adv-x="709" 
d="M389 374l201 -292h99v-248h-94v166h-63l-199 304l-200 -304h-113l258 374l-242 355h113l187 -286l188 286h111z" />
    <glyph glyph-name="uni04B8" unicode="&#x4b8;" horiz-adv-x="695" 
d="M368 251v-143h-60v141c-156 2 -246 69 -247 185v295h94v-290c-1 -66 49 -101 153 -107v225h60v-225c50 3 93 11 153 27v370h94v-729h-94v277c-48 -13 -96 -21 -153 -26z" />
    <glyph glyph-name="uni04B6" unicode="&#x4b6;" horiz-adv-x="695" 
d="M521 0v277c-70 -18 -140 -28 -204 -28c-162 0 -256 68 -256 185v295h94v-290c0 -72 61 -108 183 -108c59 0 108 8 183 28v370h94v-647h56v-248h-94v166h-56z" />
    <glyph glyph-name="uni0400" unicode="&#x400;" horiz-adv-x="667" 
d="M183 332v-250h430v-82h-523v729h505v-82h-412v-233h397v-82h-397zM331 939l96 -148h-60l-149 148h113z" />
    <glyph glyph-name="uni040D" unicode="&#x40d;" horiz-adv-x="719" 
d="M77 0v729h94v-510l377 428v82h94v-729h-94v513l-377 -430v-83h-94zM349 939l96 -148h-60l-149 148h113z" />
    <glyph glyph-name="uni0462" unicode="&#x462;" horiz-adv-x="778" 
d="M188 642v87h94v-87h189v-81h-189v-141h219c74 0 121 -13 161 -46c46 -38 70 -92 70 -163c0 -134 -82 -211 -225 -211h-319v561h-179v81h179zM282 338v-256h210c92 0 146 48 146 128s-54 128 -146 128h-210z" />
    <glyph glyph-name="uni0472" unicode="&#x472;" horiz-adv-x="778" 
d="M393 740c206 0 348 -153 348 -376c0 -224 -141 -375 -352 -375c-210 0 -352 151 -352 374c0 229 140 377 356 377zM391 400l39 -26c16 -11 38 -17 62 -17c39 0 85 11 155 37c-13 161 -113 264 -258 264s-243 -100 -258 -263c87 29 117 36 159 36c39 0 67 -9 101 -31z
M646 324c-6 -2 -15 -5 -26 -9c-79 -28 -114 -36 -151 -36c-34 0 -43 4 -103 43c-34 23 -61 31 -101 31s-69 -6 -133 -28c8 -65 24 -112 50 -150c45 -66 120 -104 207 -104c144 0 237 92 257 253z" />
    <glyph glyph-name="uni0474" unicode="&#x474;" horiz-adv-x="803" 
d="M741 726v-87c-18 9 -27 12 -43 12c-34 0 -52 -16 -65 -59l-186 -592h-101l-261 729h100l214 -617l148 509c24 82 63 118 132 118c23 0 37 -3 62 -13z" />
    <glyph glyph-name="afii10065" unicode="&#x430;" 
d="M535 51v-65c-28 -7 -40 -9 -59 -9c-55 0 -82 23 -88 74c-59 -52 -110 -74 -176 -74c-105 0 -170 60 -170 158c0 68 31 115 92 141c32 14 49 17 168 32c67 10 85 22 86 59v16c0 51 -41 79 -117 79c-77 0 -115 -30 -122 -95h-84c3 53 12 83 36 110c36 40 97 62 174 62
c129 0 197 -50 197 -144v-307c0 -26 16 -41 43 -41c7 0 12 1 20 4zM388 164v94c-27 -12 -44 -16 -134 -29c-89 -13 -125 -40 -125 -95c0 -53 38 -84 103 -84c48 0 90 16 124 47c24 22 32 40 32 67z" />
    <glyph glyph-name="afii10066" unicode="&#x431;" horiz-adv-x="573" 
d="M350 784h86c0 -77 -10 -110 -42 -146c-32 -28 -36 -30 -129 -46c-68 -13 -108 -51 -117 -114c41 40 91 61 149 61c64 0 128 -30 168 -79c40 -50 59 -116 59 -202c0 -177 -88 -281 -237 -281c-75 0 -136 27 -177 79c-44 54 -60 116 -60 225c0 122 18 219 52 283
c30 56 74 87 145 102c78 16 99 32 103 78v40zM287 462c-93 0 -150 -77 -150 -204s57 -204 150 -204c92 0 150 77 150 201c0 130 -56 207 -150 207z" />
    <glyph glyph-name="afii10067" unicode="&#x432;" horiz-adv-x="531" 
d="M58 0v524h270c89 0 154 -56 154 -134c0 -45 -18 -78 -60 -109c60 -32 82 -68 82 -129c0 -93 -59 -152 -151 -152h-295zM142 74h186c54 0 89 32 89 82c0 51 -35 84 -89 84h-186v-166zM142 314h186c39 0 67 28 67 69c0 42 -25 67 -67 67h-186v-136z" />
    <glyph glyph-name="afii10068" unicode="&#x433;" horiz-adv-x="365" 
d="M59 0v524h317v-74h-233v-450h-84z" />
    <glyph glyph-name="afii10069" unicode="&#x434;" horiz-adv-x="583" 
d="M16 -97v171c53 20 88 61 116 137c25 64 37 148 37 250v63h334v-450h43v-171h-87v97h-356v-97h-87zM419 74v376h-168v-35c-3 -160 -41 -279 -109 -341h277z" />
    <glyph glyph-name="afii10070" unicode="&#x435;" 
d="M515 234h-386c1 -52 8 -82 28 -112c29 -44 75 -68 128 -68c68 0 117 36 140 105h79c-21 -114 -104 -182 -224 -182c-148 0 -238 105 -238 278s94 284 240 284c98 0 178 -52 212 -138c15 -37 21 -87 21 -167zM131 302h294c0 94 -59 160 -144 160c-84 0 -143 -63 -150 -160
z" />
    <glyph glyph-name="afii10072" unicode="&#x436;" horiz-adv-x="669" 
d="M293 0v249h-63l-148 -249h-98l167 286l-124 238h97l106 -201h63v201h84v-201h62l105 201h98l-125 -238l167 -286h-97l-148 249h-62v-249h-84z" />
    <glyph glyph-name="afii10073" unicode="&#x437;" horiz-adv-x="458" 
d="M43 164h87v-22c0 -57 34 -88 98 -88c61 0 99 33 99 88c0 54 -41 90 -103 90h-35v74h35c25 0 58 13 76 31c10 10 16 27 16 44c0 47 -35 81 -85 81c-52 0 -90 -37 -90 -87v-23h-87v23c0 32 17 78 38 104c32 38 82 60 140 60c97 0 171 -65 171 -149c0 -50 -25 -89 -76 -117
c59 -27 87 -68 87 -128c0 -98 -77 -168 -187 -168c-113 0 -184 64 -184 165v22z" />
    <glyph glyph-name="afii10074" unicode="&#x438;" horiz-adv-x="559" 
d="M81 0v524h84v-351l230 307v44h84v-524h-84v358l-230 -310v-48h-84z" />
    <glyph glyph-name="afii10076" unicode="&#x43a;" horiz-adv-x="438" 
d="M37 0v524h84v-201h103l106 201h97l-124 -238l167 -286h-98l-148 249h-103v-249h-84z" />
    <glyph glyph-name="afii10077" unicode="&#x43b;" horiz-adv-x="583" 
d="M417 0v450h-220v-233c2 -127 -63 -212 -168 -217v74c48 10 82 62 84 126v324h388v-524h-84z" />
    <glyph glyph-name="afii10078" unicode="&#x43c;" horiz-adv-x="688" 
d="M42 0v524h127l174 -439l174 439h128v-524h-84v450l-174 -450h-86l-175 450v-450h-84z" />
    <glyph glyph-name="afii10079" unicode="&#x43d;" horiz-adv-x="552" 
d="M72 0v524h84v-211h241v211h84v-524h-84v239h-241v-239h-84z" />
    <glyph glyph-name="afii10080" unicode="&#x43e;" 
d="M277 539c152 0 238 -103 238 -285c0 -172 -89 -277 -237 -277c-149 0 -237 104 -237 281c0 176 88 281 236 281zM278 462c-93 0 -150 -77 -150 -204s57 -204 150 -204c92 0 150 77 150 201c0 130 -56 207 -150 207z" />
    <glyph glyph-name="afii10081" unicode="&#x43f;" horiz-adv-x="542" 
d="M71 0v524h400v-524h-84v450h-232v-450h-84z" />
    <glyph glyph-name="afii10082" unicode="&#x440;" 
d="M58 -218v742h82v-74c38 58 95 89 165 89c137 0 222 -109 222 -286c0 -167 -89 -276 -225 -276c-69 0 -118 24 -162 78v-273h-82zM288 461c-89 0 -146 -80 -146 -203s57 -203 146 -203c91 0 152 81 152 200c0 125 -60 206 -152 206z" />
    <glyph glyph-name="afii10083" unicode="&#x441;" horiz-adv-x="500" 
d="M472 348h-83c-10 73 -55 114 -125 114c-92 0 -147 -78 -147 -209c0 -124 55 -199 145 -199c71 0 114 42 127 126h83c-10 -128 -88 -203 -212 -203c-141 0 -230 107 -230 276c0 174 92 286 234 286c73 0 136 -29 172 -78c21 -29 31 -62 36 -113z" />
    <glyph glyph-name="afii10084" unicode="&#x442;" horiz-adv-x="458" 
d="M187 0v450h-153v74h389v-74h-152v-450h-84z" />
    <glyph glyph-name="afii10085" unicode="&#x443;" horiz-adv-x="500" 
d="M390 524h90l-234 -634c-16 -42 -31 -64 -56 -83c-23 -16 -51 -25 -79 -25c-21 0 -38 3 -55 11v77c17 -6 30 -8 45 -8c34 0 52 14 66 53l32 85l-177 524h89l135 -408z" />
    <glyph glyph-name="afii10086" unicode="&#x444;" horiz-adv-x="823" 
d="M369 -218v196c-70 4 -109 14 -156 38c-89 44 -141 135 -141 242c0 108 52 198 141 243c47 24 86 33 156 38v123h84v-123c71 -5 111 -14 159 -38c90 -44 143 -135 143 -243c0 -107 -53 -198 -143 -242c-48 -24 -88 -34 -159 -38v-196h-84zM369 53v411
c-136 -11 -210 -83 -210 -206s74 -195 210 -205zM453 464v-411c140 11 215 83 215 205c0 123 -75 195 -215 206z" />
    <glyph glyph-name="afii10087" unicode="&#x445;" horiz-adv-x="500" 
d="M297 269l178 -269h-96l-128 201l-135 -201h-90l180 269l-180 255h101l124 -190l128 190h96z" />
    <glyph glyph-name="afii10088" unicode="&#x446;" horiz-adv-x="573" 
d="M87 0v524h84v-450h219v450h84v-450h46v-233h-86v159h-347z" />
    <glyph glyph-name="afii10091" unicode="&#x449;" horiz-adv-x="823" 
d="M70 0v524h85v-450h210v450h84v-450h210v450h84v-450h43v-233h-84v159h-632z" />
    <glyph glyph-name="afii10092" unicode="&#x44a;" horiz-adv-x="625" 
d="M188 0v450h-210v74h294v-210h166c103 0 169 -62 169 -160c0 -94 -66 -154 -168 -154h-251zM272 74h164c53 0 84 30 84 83s-31 83 -84 83h-164v-166z" />
    <glyph glyph-name="afii10093" unicode="&#x44b;" horiz-adv-x="719" 
d="M81 0v524h84v-210h166c103 0 169 -62 169 -160c0 -94 -66 -154 -168 -154h-251zM165 74h164c53 0 84 30 84 83s-31 83 -84 83h-164v-166zM555 0v524h84v-524h-84z" />
    <glyph glyph-name="afii10094" unicode="&#x44c;" horiz-adv-x="521" 
d="M69 0v524h84v-210h166c103 0 169 -62 169 -160c0 -94 -66 -154 -168 -154h-251zM153 74h164c53 0 84 30 84 83s-31 83 -84 83h-164v-166z" />
    <glyph glyph-name="afii10095" unicode="&#x44d;" horiz-adv-x="510" 
d="M113 350l-86 18c30 110 110 171 223 171c145 0 238 -109 238 -280c0 -174 -91 -282 -238 -282c-123 0 -201 67 -229 198l86 22c18 -93 67 -143 143 -143c88 0 147 71 150 180h-186v74h184c-11 97 -65 154 -145 154c-68 0 -120 -41 -140 -112z" />
    <glyph glyph-name="afii10096" unicode="&#x44e;" horiz-adv-x="750" 
d="M135 313h121c19 145 102 226 234 226c149 0 237 -104 237 -281s-88 -281 -237 -281c-144 0 -228 93 -236 262h-119v-239h-84v524h84v-211zM490 462c-93 0 -150 -77 -150 -204s57 -204 150 -204c92 0 150 77 150 201c0 130 -56 207 -150 207z" />
    <glyph glyph-name="afii10097" unicode="&#x44f;" horiz-adv-x="542" 
d="M381 0v210h-144c-42 -1 -71 -33 -72 -80v-56c-1 -36 -8 -62 -20 -74h-87c15 12 19 27 20 74v56c2 50 24 81 70 99c-73 29 -103 69 -103 139c0 91 70 156 170 156h250v-524h-84zM381 284v166h-166c-50 0 -83 -32 -83 -82c0 -52 32 -84 83 -84h166z" />
    <glyph glyph-name="afii10098" unicode="&#x491;" horiz-adv-x="411" 
d="M344 524l96 148h113l-149 -148v-74h-233v-450h-84v524h257z" />
    <glyph glyph-name="afii10099" unicode="&#x452;" 
d="M76 0v585h-103v74h103v70h84v-70h116v-74h-116v-150c57 68 109 97 175 97c93 0 159 -72 159 -174v-307c-1 -101 -78 -179 -182 -184h-129v77h129c51 -1 97 49 98 107v307c0 56 -39 97 -93 97c-56 0 -111 -38 -157 -110v-345h-84z" />
    <glyph glyph-name="afii10101" unicode="&#x454;" horiz-adv-x="510" 
d="M483 368l-86 -18c-20 71 -72 112 -140 112c-81 0 -134 -57 -145 -154h184v-74h-187c4 -109 63 -180 151 -180c75 0 125 50 143 143l86 -22c-29 -131 -106 -198 -230 -198c-146 0 -237 108 -237 282c0 171 92 280 238 280c112 0 193 -61 223 -171z" />
    <glyph glyph-name="afii10102" unicode="&#x455;" horiz-adv-x="500" 
d="M438 378h-88c-2 55 -38 84 -105 84c-68 0 -111 -30 -111 -79c0 -37 29 -59 97 -75l80 -19c104 -25 148 -68 148 -146c0 -101 -84 -166 -216 -166c-137 0 -205 58 -209 179h88c5 -37 11 -52 24 -67c21 -22 59 -35 104 -35c73 0 122 33 122 83c0 37 -23 58 -81 72l-78 19
c-124 30 -166 69 -166 151c0 97 79 160 201 160c121 0 189 -57 190 -161z" />
    <glyph glyph-name="afii10103" unicode="&#x456;" horiz-adv-x="222" 
d="M153 524v-524h-84v524h84zM153 729v-105h-84v105h84z" />
    <glyph glyph-name="afii10105" unicode="&#x458;" horiz-adv-x="222" 
d="M69 524h84v-633c-4 -80 -57 -113 -172 -109v78c8 -1 15 -1 20 -1c52 0 68 17 68 69v596zM153 729v-105h-84v105h84z" />
    <glyph glyph-name="afii10106" unicode="&#x459;" horiz-adv-x="906" 
d="M427 0v450h-230v-233c2 -127 -63 -212 -168 -217v74c48 10 82 62 84 126v324h398v-210h166c103 0 169 -62 169 -160c0 -94 -66 -154 -168 -154h-251zM511 74h164c53 0 84 30 84 83s-31 83 -84 83h-164v-166z" />
    <glyph glyph-name="afii10107" unicode="&#x45a;" horiz-adv-x="813" 
d="M52 0v524h84v-211h241v211h84v-210h166c103 0 169 -62 169 -160c0 -94 -66 -154 -168 -154h-251v239h-241v-239h-84zM461 74h164c53 0 84 30 84 83c0 28 -12 55 -32 69c-13 10 -27 14 -52 14h-164v-166z" />
    <glyph glyph-name="afii10108" unicode="&#x45b;" 
d="M76 0v585h-103v74h103v70h84v-70h116v-74h-116v-150c56 68 109 97 175 97c93 0 159 -72 159 -174v-358h-84v358c0 56 -39 97 -93 97c-56 0 -111 -39 -157 -110v-345h-84z" />
    <glyph glyph-name="afii10193" unicode="&#x45f;" horiz-adv-x="552" 
d="M83 0v524h84v-450h219v450h84v-524h-150v-160h-84v160h-153z" />
    <glyph glyph-name="uni04E9" unicode="&#x4e9;" 
d="M277 539c152 0 238 -103 238 -285c0 -172 -89 -277 -237 -277c-149 0 -237 104 -237 281c0 176 88 281 236 281zM426 221h-296c11 -107 64 -167 148 -167s137 60 148 167zM130 295h296c-11 107 -64 167 -148 167s-137 -60 -148 -167z" />
    <glyph glyph-name="afii10089" unicode="&#x447;" horiz-adv-x="521" 
d="M360 0v200c-46 -20 -87 -29 -134 -29c-61 0 -110 18 -140 51c-21 23 -29 48 -29 89v213h84v-194c0 -54 34 -82 100 -82c38 0 76 6 119 20v256h84v-524h-84z" />
    <glyph glyph-name="afii10090" unicode="&#x448;" horiz-adv-x="802" 
d="M64 0v524h85v-450h210v450h84v-450h210v450h84v-524h-673z" />
    <glyph glyph-name="uni0497" unicode="&#x497;" horiz-adv-x="819" 
d="M351 0v249h-103l-148 -249h-98l167 286l-124 238h97l106 -201h103v201h84v-201h103l105 201h98l-124 -238l124 -211h77v-232h-84v157h-48l-148 249h-103v-249h-84z" />
    <glyph glyph-name="uni04AF" unicode="&#x4af;" horiz-adv-x="500" 
d="M391 524h89l-187 -524v-218h-84v218l-187 524h89l140 -408z" />
    <glyph glyph-name="afii10846" unicode="&#x4d9;" horiz-adv-x="555" 
d="M41 282h386c-1 52 -8 82 -28 112c-29 44 -75 68 -128 68c-68 0 -117 -36 -140 -105h-79c21 114 104 182 224 182c148 0 238 -105 238 -278s-94 -284 -240 -284c-98 0 -178 52 -212 138c-15 37 -21 87 -21 167zM425 214h-294c0 -94 59 -160 144 -160c84 0 143 63 150 160z
" />
    <glyph glyph-name="uni04BB" unicode="&#x4bb;" horiz-adv-x="567" 
d="M82 0v729h84v-294c57 68 109 97 175 97c93 0 159 -72 159 -174v-358h-84v358c0 56 -39 97 -93 97c-56 0 -111 -39 -157 -110v-345h-84z" />
    <glyph glyph-name="uni0493" unicode="&#x493;" horiz-adv-x="389" 
d="M154 323h152l-1 -74h-151v-249h-84v249h-35v74h35v201h317v-74h-233v-127z" />
    <glyph glyph-name="uni04B1" unicode="&#x4b1;" horiz-adv-x="500" 
d="M293 -2h119v-57h-119v-159h-84v159h-121v57h121v2l-187 524h89l140 -408l139 408h90l-187 -524v-2z" />
    <glyph glyph-name="afii10071" unicode="&#x451;" 
d="M516 234h-386c1 -52 8 -82 28 -112c29 -44 75 -68 128 -68c68 0 117 36 140 105h79c-21 -114 -104 -182 -224 -182c-148 0 -238 105 -238 278s94 284 240 284c98 0 178 -52 212 -138c15 -37 21 -87 21 -167zM132 302h294c0 94 -59 160 -144 160c-84 0 -143 -63 -150 -160
zM249 715v-103h-104v103h104zM411 715v-103h-104v103h104z" />
    <glyph glyph-name="afii10075" unicode="&#x439;" horiz-adv-x="559" 
d="M81 0v524h84v-351l230 307v44h84v-524h-84v358l-230 -310v-48h-84zM129 732h59c5 -44 35 -66 92 -66c54 0 86 24 91 66h59c-7 -89 -59 -135 -152 -135c-57 0 -102 20 -128 57c-15 20 -20 39 -21 78z" />
    <glyph glyph-name="afii10100" unicode="&#x453;" horiz-adv-x="365" 
d="M64 0v524h317v-74h-233v-450h-84zM236 740h113l-149 -148h-60z" />
    <glyph glyph-name="afii10104" unicode="&#x457;" horiz-adv-x="278" 
d="M184 524v-524h-84v524h84zM110 715v-103h-104v103h104zM272 715v-103h-104v103h104z" />
    <glyph glyph-name="afii10109" unicode="&#x45c;" horiz-adv-x="438" 
d="M37 0v524h84v-201h103l106 201h97l-124 -238l167 -286h-98l-148 249h-103v-249h-84zM244 740h113l-149 -148h-60z" />
    <glyph glyph-name="afii10110" unicode="&#x45e;" horiz-adv-x="500" 
d="M390 524h90l-234 -634c-16 -42 -31 -64 -56 -83c-23 -16 -51 -25 -79 -25c-21 0 -38 3 -55 11v77c17 -6 30 -8 45 -8c34 0 52 14 66 53l32 85l-177 524h89l135 -408zM99 732h59c5 -44 35 -66 92 -66c54 0 87 24 91 66h59c-7 -89 -59 -135 -152 -135
c-57 0 -101 20 -128 57c-14 20 -20 39 -21 78z" />
    <glyph glyph-name="uni04E3" unicode="&#x4e3;" 
d="M535 51v-65c-28 -7 -40 -9 -59 -9c-55 0 -82 23 -88 74c-59 -52 -110 -74 -176 -74c-105 0 -170 60 -170 158c0 68 31 115 92 141c32 14 49 17 168 32c67 10 85 22 86 59v16c0 51 -41 79 -117 79c-77 0 -115 -30 -122 -95h-84c3 53 12 83 36 110c36 40 97 62 174 62
c129 0 197 -50 197 -144v-307c0 -26 16 -41 43 -41c7 0 12 1 20 4zM388 164v94c-27 -12 -44 -16 -134 -29c-89 -13 -125 -40 -125 -95c0 -53 38 -84 103 -84c48 0 90 16 124 47c24 22 32 40 32 67zM127 732h59c5 -44 35 -66 92 -66c54 0 87 24 91 66h59
c-7 -89 -59 -135 -152 -135c-57 0 -101 20 -128 57c-14 20 -20 39 -21 78z" />
    <glyph glyph-name="uni04EF" unicode="&#x4ef;" horiz-adv-x="555" 
d="M514 234h-386c1 -52 8 -82 28 -112c29 -44 75 -68 128 -68c68 0 117 36 140 105h79c-21 -114 -104 -182 -224 -182c-148 0 -238 105 -238 278s94 284 240 284c98 0 178 -52 212 -138c15 -37 21 -87 21 -167zM130 302h294c0 94 -59 160 -144 160c-84 0 -143 -63 -150 -160
zM127 732h58c5 -44 36 -66 93 -66c53 0 86 24 91 66h59c-8 -89 -60 -135 -152 -135c-57 0 -102 20 -128 57c-15 20 -20 39 -21 78z" />
    <glyph glyph-name="uni049D" unicode="&#x49d;" horiz-adv-x="505" 
d="M205 323v128h54v-128l105 201h97l-124 -238l167 -286h-98l-147 249v-128h-54v128h-50v-249h-84v524h84v-201h50z" />
    <glyph glyph-name="uni049B" unicode="&#x49b;" horiz-adv-x="539" 
d="M71 0v524h84v-201h103l106 201h97l-124 -238l124 -212h77v-234h-84v160h-48l-148 249h-103v-249h-84z" />
    <glyph glyph-name="uni04A3" unicode="&#x4a3;" horiz-adv-x="550" 
d="M71 0v524h84v-211h241v211h84v-450h34v-234h-84v160h-34v239h-241v-239h-84z" />
    <glyph glyph-name="uni04B3" unicode="&#x4b3;" horiz-adv-x="527" 
d="M293 269l129 -195h83v-233h-84v159h-46l-128 201l-135 -201h-90l180 269l-180 255h101l124 -190l128 190h96z" />
    <glyph glyph-name="uni04B9" unicode="&#x4b9;" horiz-adv-x="508" 
d="M274 175v-94h-54v90c-106 1 -170 55 -166 140v213h84v-194c0 -49 29 -77 82 -81v122h54v-121c30 3 54 9 83 18v256h84v-524h-84v199c-30 -12 -52 -19 -83 -24z" />
    <glyph glyph-name="uni04B7" unicode="&#x4b7;" horiz-adv-x="508" 
d="M353 0v200c-46 -20 -87 -29 -134 -29c-61 0 -110 18 -140 51c-21 23 -29 48 -29 89v213h84v-194c0 -54 34 -82 100 -82c38 0 76 6 119 20v256h84v-450h34v-234h-84v160h-34z" />
    <glyph glyph-name="uni0450" unicode="&#x450;" 
d="M513 234h-386c1 -52 8 -82 28 -112c28 -44 73 -68 126 -68c67 0 114 36 137 105h84c-21 -114 -104 -182 -224 -182c-148 0 -238 105 -238 278s94 284 240 284c98 0 178 -52 212 -138c15 -39 21 -87 21 -167zM129 302h294c0 94 -59 160 -144 160c-84 0 -143 -63 -150 -160
zM251 740l97 -148h-60l-149 148h112z" />
    <glyph glyph-name="uni045D" unicode="&#x45d;" horiz-adv-x="559" 
d="M81 0v524h84v-351l230 307v44h84v-524h-84v358l-230 -310v-48h-84zM234 740l96 -148h-60l-149 148h113z" />
    <glyph glyph-name="uni0463" unicode="&#x463;" horiz-adv-x="613" 
d="M125 456h-70v68h71v144h83v-144h86v-68h-86v-142h166c103 0 169 -62 169 -160c0 -94 -66 -154 -168 -154h-251v456zM209 74h164c53 0 84 31 84 82c0 54 -31 84 -84 84h-164v-166z" />
    <glyph glyph-name="uni0473" unicode="&#x473;" 
d="M284 535c144 0 231 -104 231 -276c0 -171 -87 -270 -236 -270c-150 0 -238 100 -238 269c0 176 88 277 243 277zM427 229l-29 -11c-40 -17 -61 -23 -77 -23s-30 7 -53 26c-25 20 -40 27 -59 27c-20 0 -44 -7 -79 -22c5 -48 12 -70 29 -97c26 -40 70 -63 120 -63
c86 0 140 60 148 163zM412 292l14 6c-6 46 -12 67 -28 94c-25 42 -68 66 -118 66s-94 -24 -120 -66c-17 -27 -24 -49 -30 -98c46 21 75 30 98 30c22 0 38 -7 68 -30c21 -17 36 -24 48 -24c13 0 18 2 68 22z" />
    <glyph glyph-name="uni0475" unicode="&#x475;" horiz-adv-x="631" 
d="M556 524v-72c-12 5 -19 6 -29 6c-30 0 -44 -14 -57 -59l-116 -399h-91l-184 524h94l140 -425l76 317c20 82 54 115 119 115c16 0 28 -2 48 -7z" />
    <glyph glyph-name="uni211E" unicode="&#x211e;" horiz-adv-x="759" 
d="M471 284l54 -84l52 80h95l-102 -144l90 -136h-95l-43 66l-44 -66h-91l92 132l-102 151h-134v-283h-85v667h276c132 0 206 -70 206 -195c0 -77 -31 -132 -93 -167c-22 -12 -45 -19 -76 -21zM243 358h178c82 0 130 43 130 117c0 73 -48 117 -130 117h-178v-234z" />
    <glyph glyph-name="uni2223" unicode="&#x2223;" horiz-adv-x="722" 
d="M395 668v-668h-67v668h67z" />
    <glyph glyph-name="uni2227" unicode="&#x2227;" horiz-adv-x="1000" 
d="M533 513l224 -513h-80l-177 409l-177 -409h-80l224 513h66z" />
    <glyph glyph-name="uni2228" unicode="&#x2228;" horiz-adv-x="1000" 
d="M533 0h-66l-224 513h80l177 -409l177 409h80z" />
    <glyph glyph-name="uni2295" unicode="&#x2295;" horiz-adv-x="1000" 
d="M505 629c169 0 309 -142 309 -313c0 -174 -142 -316 -316 -316c-173 0 -313 140 -313 312c0 177 141 317 320 317zM531 346h225c-15 119 -106 210 -225 225v-225zM472 346v225c-119 -15 -210 -106 -225 -225h225zM531 287v-225c119 15 211 106 225 225h-225zM472 287
h-225c14 -119 106 -210 225 -225v225z" />
    </font>
</defs>
</svg>
